SplineFontDB: 3.2
FontName: RisingSun-LightItalic
FullName: Rising Sun Light Italic
FamilyName: Rising Sun Light
Weight: Light
Copyright: Copyright (c) 2012, The Raleway Project Authors (matt@pixelspread.com)
Version: 4.322
ItalicAngle: -12
UnderlinePosition: -125
UnderlineWidth: 50
Ascent: 800
Descent: 200
InvalidEm: 0
sfntRevision: 0x0004526e
LayerCount: 2
Layer: 0 1 "Back" 1
Layer: 1 1 "Fore" 0
XUID: [1021 158 994486733 16145496]
StyleMap: 0x0001
FSType: 0
OS2Version: 4
OS2_WeightWidthSlopeOnly: 0
OS2_UseTypoMetrics: 1
CreationTime: 1683073834
ModificationTime: 1710188254
PfmFamily: 81
TTFWeight: 300
TTFWidth: 5
LineGap: 21
VLineGap: 0
Panose: 0 0 0 0 0 0 0 0 0 0
OS2TypoAscent: 923
OS2TypoAOffset: 0
OS2TypoDescent: -213
OS2TypoDOffset: 0
OS2TypoLinegap: 21
OS2WinAscent: 944
OS2WinAOffset: 0
OS2WinDescent: 234
OS2WinDOffset: 0
HheadAscent: 923
HheadAOffset: 0
HheadDescent: -213
HheadDOffset: 0
OS2SubXSize: 650
OS2SubYSize: 600
OS2SubXOff: 0
OS2SubYOff: 75
OS2SupXSize: 650
OS2SupYSize: 600
OS2SupXOff: 0
OS2SupYOff: 350
OS2StrikeYSize: 50
OS2StrikeYPos: 300
OS2CapHeight: 710
OS2XHeight: 521
OS2Vendor: '    '
OS2CodePages: 2000019f.00000000
OS2UnicodeRanges: a00002ff.4000205b.00000000.00000000
Lookup: 1 0 0 "'aalt' Access All Alternates lookup 0" { "'aalt' Access All Alternates lookup 0 subtable"  } ['aalt' ('DFLT' <'dflt' > 'cyrl' <'BGR ' 'MKD ' 'SRB ' 'dflt' > 'latn' <'AZE ' 'CAT ' 'CRT ' 'KAZ ' 'MOL ' 'ROM ' 'TAT ' 'TRK ' 'dflt' > ) ]
Lookup: 3 0 0 "'aalt' Access All Alternates lookup 1" { "'aalt' Access All Alternates lookup 1 subtable"  } ['aalt' ('DFLT' <'dflt' > 'cyrl' <'BGR ' 'MKD ' 'SRB ' 'dflt' > 'latn' <'AZE ' 'CAT ' 'CRT ' 'KAZ ' 'MOL ' 'ROM ' 'TAT ' 'TRK ' 'dflt' > ) ]

StartChar: .notdef
Encoding: 65536 -1 0
Width: 608
GlyphClass: 1
Flags: W
LayerCount: 2
Fore
SplineSet
558 689 m 2,0,1
 558 699 558 699 553 704.5 c 128,-1,2
 548 710 548 710 540 710 c 2,3,-1
 69 710 l 2,4,5
 61 710 61 710 55.5 704 c 128,-1,6
 50 698 50 698 50 687 c 2,7,-1
 50 25 l 2,8,9
 50 12 50 12 55.5 6 c 128,-1,10
 61 0 61 0 77 0 c 2,11,-1
 525 0 l 2,12,13
 542 0 542 0 550 6.5 c 128,-1,14
 558 13 558 13 558 29 c 2,15,-1
 558 689 l 2,0,1
506 74 m 2,16,17
 506 61 506 61 499 55.5 c 128,-1,18
 492 50 492 50 478 50 c 2,19,-1
 125 50 l 2,20,21
 111 50 111 50 106.5 55 c 128,-1,22
 102 60 102 60 102 71 c 2,23,-1
 102 641 l 2,24,25
 102 650 102 650 106.5 655 c 128,-1,26
 111 660 111 660 118 660 c 2,27,-1
 491 660 l 2,28,29
 498 660 498 660 502 655 c 128,-1,30
 506 650 506 650 506 642 c 2,31,-1
 506 74 l 2,16,17
538 33 m 1,32,-1
 123 696 l 1,33,-1
 71 669 l 1,34,-1
 478 28 l 1,35,-1
 538 33 l 1,32,-1
EndSplineSet
EndChar

StartChar: exclam
Encoding: 33 33 4
Width: 247
GlyphClass: 1
Flags: W
LayerCount: 2
Fore
SplineSet
7 44 m 0,0,1
 4 33 4 33 6 23.5 c 128,-1,2
 8 14 8 14 14 7 c 128,-1,3
 20 0 20 0 28.5 -4 c 128,-1,4
 37 -8 37 -8 48 -8 c 256,5,6
 59 -8 59 -8 69.5 -4 c 128,-1,7
 80 0 80 0 89 7 c 128,-1,8
 98 14 98 14 104 23.5 c 128,-1,9
 110 33 110 33 112 44 c 0,10,11
 115 55 115 55 112.5 64.5 c 128,-1,12
 110 74 110 74 104.5 81 c 128,-1,13
 99 88 99 88 90.5 92 c 128,-1,14
 82 96 82 96 71 96 c 256,15,16
 60 96 60 96 49.5 92 c 128,-1,17
 39 88 39 88 30 81 c 128,-1,18
 21 74 21 74 15 64.5 c 128,-1,19
 9 55 9 55 7 44 c 0,0,1
123 227 m 1,20,-1
 181 467 l 1,21,-1
 234 717 l 1,22,-1
 169 717 l 1,23,-1
 116 467 l 1,24,-1
 71 227 l 1,25,-1
 123 227 l 1,20,-1
EndSplineSet
EndChar

StartChar: quotedbl
Encoding: 34 34 5
Width: 336
GlyphClass: 1
Flags: W
LayerCount: 2
Fore
SplineSet
120 531 m 1,0,-1
 157 531 l 1,1,-1
 254 717 l 1,2,-1
 187 717 l 1,3,-1
 120 531 l 1,0,-1
234 531 m 1,4,-1
 271 531 l 1,5,-1
 368 717 l 1,6,-1
 301 717 l 1,7,-1
 234 531 l 1,4,-1
EndSplineSet
EndChar

StartChar: numbersign
Encoding: 35 35 6
Width: 650
GlyphClass: 1
Flags: W
LayerCount: 2
Fore
SplineSet
657 508 m 1,0,-1
 546 508 l 1,1,-1
 637 710 l 1,2,-1
 581 710 l 1,3,-1
 492 508 l 1,4,-1
 313 508 l 1,5,-1
 403 710 l 1,6,-1
 348 710 l 1,7,-1
 259 508 l 1,8,-1
 123 508 l 1,9,-1
 112 458 l 1,10,-1
 235 458 l 1,11,-1
 149 260 l 1,12,-1
 29 260 l 1,13,-1
 18 208 l 1,14,-1
 125 208 l 1,15,-1
 32 0 l 1,16,-1
 88 0 l 1,17,-1
 180 208 l 1,18,-1
 359 208 l 1,19,-1
 266 0 l 1,20,-1
 322 0 l 1,21,-1
 413 208 l 1,22,-1
 553 208 l 1,23,-1
 563 260 l 1,24,-1
 436 260 l 1,25,-1
 524 458 l 1,26,-1
 646 458 l 1,27,-1
 657 508 l 1,0,-1
203 260 m 1,28,-1
 290 458 l 1,29,-1
 469 458 l 1,30,-1
 382 260 l 1,31,-1
 203 260 l 1,28,-1
EndSplineSet
EndChar

StartChar: dollar
Encoding: 36 36 7
Width: 594
GlyphClass: 1
Flags: W
LayerCount: 2
Fore
SplineSet
196 -102 m 1,0,-1
 232 -102 l 1,1,-1
 259 25 l 1,2,-1
 224 26 l 1,3,-1
 196 -102 l 1,0,-1
256 33 m 1,4,-1
 394 680 l 1,5,-1
 365 675 l 1,6,-1
 229 35 l 1,7,-1
 256 33 l 1,4,-1
362 677 m 1,8,-1
 399 683 l 1,9,-1
 427 815 l 1,10,-1
 391 815 l 1,11,-1
 362 677 l 1,8,-1
590 633 m 1,12,13
 574 652 574 652 553.5 667.5 c 128,-1,14
 533 683 533 683 508.5 693.5 c 128,-1,15
 484 704 484 704 455 709.5 c 128,-1,16
 426 715 426 715 393 715 c 0,17,18
 332 715 332 715 279 698.5 c 128,-1,19
 226 682 226 682 187.5 651.5 c 128,-1,20
 149 621 149 621 126.5 576.5 c 128,-1,21
 104 532 104 532 104 476 c 0,22,23
 104 444 104 444 116 420.5 c 128,-1,24
 128 397 128 397 151 380 c 128,-1,25
 174 363 174 363 208 350.5 c 128,-1,26
 242 338 242 338 285 327 c 0,27,28
 327 317 327 317 359.5 306 c 128,-1,29
 392 295 392 295 414.5 280.5 c 128,-1,30
 437 266 437 266 448.5 247 c 128,-1,31
 460 228 460 228 460 202 c 0,32,33
 460 166 460 166 446 138.5 c 128,-1,34
 432 111 432 111 406 92 c 128,-1,35
 380 73 380 73 343 63 c 128,-1,36
 306 53 306 53 259 53 c 0,37,38
 221 53 221 53 187 61 c 128,-1,39
 153 69 153 69 125.5 82 c 128,-1,40
 98 95 98 95 76.5 113 c 128,-1,41
 55 131 55 131 41 152 c 1,42,-1
 -4 97 l 1,43,44
 18 72 18 72 45 52 c 128,-1,45
 72 32 72 32 103.5 19.5 c 128,-1,46
 135 7 135 7 170.5 0.5 c 128,-1,47
 206 -6 206 -6 245 -6 c 0,48,49
 306 -6 306 -6 358.5 8.5 c 128,-1,50
 411 23 411 23 450 51.5 c 128,-1,51
 489 80 489 80 511.5 122.5 c 128,-1,52
 534 165 534 165 534 222 c 0,53,54
 534 259 534 259 520 284.5 c 128,-1,55
 506 310 506 310 480.5 328.5 c 128,-1,56
 455 347 455 347 418.5 360.5 c 128,-1,57
 382 374 382 374 338 384 c 0,58,59
 298 394 298 394 267.5 404 c 128,-1,60
 237 414 237 414 217 426.5 c 128,-1,61
 197 439 197 439 187 456 c 128,-1,62
 177 473 177 473 177 497 c 0,63,64
 177 531 177 531 188.5 560 c 128,-1,65
 200 589 200 589 225 610 c 128,-1,66
 250 631 250 631 288 643 c 128,-1,67
 326 655 326 655 379 655 c 0,68,69
 409 655 409 655 435.5 649.5 c 128,-1,70
 462 644 462 644 483 634 c 128,-1,71
 504 624 504 624 520.5 610 c 128,-1,72
 537 596 537 596 547 579 c 1,73,-1
 590 633 l 1,12,13
EndSplineSet
EndChar

StartChar: percent
Encoding: 37 37 8
Width: 686
GlyphClass: 1
Flags: W
LayerCount: 2
Fore
SplineSet
211 433 m 0,0,1
 245 433 245 433 276.5 447 c 128,-1,2
 308 461 308 461 332.5 483.5 c 128,-1,3
 357 506 357 506 372 537 c 128,-1,4
 387 568 387 568 387 602 c 0,5,6
 387 627 387 627 379 648.5 c 128,-1,7
 371 670 371 670 355.5 685.5 c 128,-1,8
 340 701 340 701 319 710.5 c 128,-1,9
 298 720 298 720 272 720 c 0,10,11
 239 720 239 720 207.5 706.5 c 128,-1,12
 176 693 176 693 151 670 c 128,-1,13
 126 647 126 647 111 616.5 c 128,-1,14
 96 586 96 586 96 552 c 0,15,16
 96 527 96 527 104.5 505 c 128,-1,17
 113 483 113 483 128 467.5 c 128,-1,18
 143 452 143 452 164 442.5 c 128,-1,19
 185 433 185 433 211 433 c 0,0,1
219 472 m 0,20,21
 187 472 187 472 166.5 496.5 c 128,-1,22
 146 521 146 521 146 557 c 0,23,24
 146 581 146 581 156.5 603.5 c 128,-1,25
 167 626 167 626 183.5 643 c 128,-1,26
 200 660 200 660 221 670.5 c 128,-1,27
 242 681 242 681 264 681 c 0,28,29
 296 681 296 681 316.5 656.5 c 128,-1,30
 337 632 337 632 337 596 c 0,31,32
 337 573 337 573 327 550 c 128,-1,33
 317 527 317 527 300.5 510 c 128,-1,34
 284 493 284 493 263 482.5 c 128,-1,35
 242 472 242 472 219 472 c 0,20,21
437 -10 m 0,36,37
 470 -10 470 -10 501.5 3.5 c 128,-1,38
 533 17 533 17 558 40 c 128,-1,39
 583 63 583 63 597.5 94 c 128,-1,40
 612 125 612 125 612 158 c 0,41,42
 612 184 612 184 604 205.5 c 128,-1,43
 596 227 596 227 581 242.5 c 128,-1,44
 566 258 566 258 544.5 267.5 c 128,-1,45
 523 277 523 277 498 277 c 0,46,47
 465 277 465 277 433 263 c 128,-1,48
 401 249 401 249 376.5 226.5 c 128,-1,49
 352 204 352 204 337 173.5 c 128,-1,50
 322 143 322 143 322 108 c 0,51,52
 322 84 322 84 330.5 62 c 128,-1,53
 339 40 339 40 354 24 c 128,-1,54
 369 8 369 8 390 -1 c 128,-1,55
 411 -10 411 -10 437 -10 c 0,36,37
445 29 m 0,56,57
 412 29 412 29 391.5 53.5 c 128,-1,58
 371 78 371 78 371 113 c 0,59,60
 371 138 371 138 381.5 160.5 c 128,-1,61
 392 183 392 183 408.5 200 c 128,-1,62
 425 217 425 217 446 227.5 c 128,-1,63
 467 238 467 238 489 238 c 0,64,65
 521 238 521 238 542 213.5 c 128,-1,66
 563 189 563 189 563 153 c 0,67,68
 563 128 563 128 552.5 106 c 128,-1,69
 542 84 542 84 525.5 66.5 c 128,-1,70
 509 49 509 49 488 39 c 128,-1,71
 467 29 467 29 445 29 c 0,56,57
33 -4 m 1,72,-1
 362 340 l 1,73,-1
 703 685 l 1,74,-1
 675 714 l 1,75,-1
 340 362 l 1,76,-1
 6 26 l 1,77,-1
 33 -4 l 1,72,-1
EndSplineSet
EndChar

StartChar: ampersand
Encoding: 38 38 9
Width: 671
GlyphClass: 1
Flags: W
LayerCount: 2
Fore
SplineSet
185 -10 m 0,0,1
 247 -10 247 -10 306 22 c 128,-1,2
 365 54 365 54 415 111 c 128,-1,3
 465 168 465 168 502 246 c 128,-1,4
 539 324 539 324 556 416 c 1,5,-1
 497 416 l 1,6,7
 483 338 483 338 452.5 270 c 128,-1,8
 422 202 422 202 382.5 151.5 c 128,-1,9
 343 101 343 101 295.5 72.5 c 128,-1,10
 248 44 248 44 199 44 c 0,11,12
 149 44 149 44 116 75.5 c 128,-1,13
 83 107 83 107 83 163 c 0,14,15
 83 195 83 195 96 223.5 c 128,-1,16
 109 252 109 252 132.5 278 c 128,-1,17
 156 304 156 304 191 328.5 c 128,-1,18
 226 353 226 353 269 378 c 1,19,-1
 237 418 l 1,20,21
 190 391 190 391 150 363 c 128,-1,22
 110 335 110 335 80.5 303.5 c 128,-1,23
 51 272 51 272 34.5 235 c 128,-1,24
 18 198 18 198 18 155 c 0,25,26
 18 118 18 118 30.5 88 c 128,-1,27
 43 58 43 58 65 36.5 c 128,-1,28
 87 15 87 15 117.5 2.5 c 128,-1,29
 148 -10 148 -10 185 -10 c 0,0,1
482 0 m 1,30,-1
 564 0 l 1,31,-1
 274 415 l 2,32,33
 257 440 257 440 245 460 c 128,-1,34
 233 480 233 480 226 496.5 c 128,-1,35
 219 513 219 513 216 526 c 128,-1,36
 213 539 213 539 213 550 c 0,37,38
 213 573 213 573 224.5 594.5 c 128,-1,39
 236 616 236 616 254 632.5 c 128,-1,40
 272 649 272 649 296.5 658.5 c 128,-1,41
 321 668 321 668 348 668 c 0,42,43
 390 668 390 668 423 642 c 128,-1,44
 456 616 456 616 472 574 c 1,45,-1
 517 614 l 1,46,47
 507 638 507 638 490.5 657.5 c 128,-1,48
 474 677 474 677 454 690.5 c 128,-1,49
 434 704 434 704 409.5 711.5 c 128,-1,50
 385 719 385 719 358 719 c 0,51,52
 317 719 317 719 279.5 705 c 128,-1,53
 242 691 242 691 213.5 666.5 c 128,-1,54
 185 642 185 642 168 610 c 128,-1,55
 151 578 151 578 151 541 c 0,56,57
 151 524 151 524 155.5 506.5 c 128,-1,58
 160 489 160 489 169.5 468 c 128,-1,59
 179 447 179 447 194 422.5 c 128,-1,60
 209 398 209 398 230 367 c 2,61,-1
 482 0 l 1,30,-1
495 363 m 1,62,-1
 643 363 l 1,63,-1
 654 416 l 1,64,-1
 507 416 l 1,65,-1
 495 363 l 1,62,-1
EndSplineSet
EndChar

StartChar: quotesingle
Encoding: 39 39 10
Width: 195
GlyphClass: 1
Flags: W
LayerCount: 2
Fore
SplineSet
143 528 m 1,0,-1
 240 715 l 1,1,-1
 173 715 l 1,2,-1
 106 528 l 1,3,-1
 143 528 l 1,0,-1
EndSplineSet
EndChar

StartChar: parenleft
Encoding: 40 40 11
Width: 261
GlyphClass: 1
Flags: W
LayerCount: 2
Fore
SplineSet
44 259 m 0,0,1
 44 224 44 224 48.5 186 c 128,-1,2
 53 148 53 148 61 110 c 128,-1,3
 69 72 69 72 80.5 34.5 c 128,-1,4
 92 -3 92 -3 107 -37 c 1,5,-1
 161 -10 l 1,6,7
 148 23 148 23 137.5 58.5 c 128,-1,8
 127 94 127 94 120 130 c 128,-1,9
 113 166 113 166 109.5 201 c 128,-1,10
 106 236 106 236 106 267 c 0,11,12
 106 328 106 328 128 392 c 128,-1,13
 150 456 150 456 181.5 515.5 c 128,-1,14
 213 575 213 575 250 626.5 c 128,-1,15
 287 678 287 678 316 714 c 1,16,-1
 271 738 l 1,17,18
 224 678 224 678 183 620.5 c 128,-1,19
 142 563 142 563 111 505 c 128,-1,20
 80 447 80 447 62 386.5 c 128,-1,21
 44 326 44 326 44 259 c 0,0,1
EndSplineSet
EndChar

StartChar: parenright
Encoding: 41 41 12
Width: 261
GlyphClass: 1
Flags: W
LayerCount: 2
Fore
SplineSet
237 432 m 0,0,1
 237 508 237 508 219.5 587 c 128,-1,2
 202 666 202 666 176 738 c 1,3,-1
 120 714 l 1,4,5
 130 691 130 691 139.5 657 c 128,-1,6
 149 623 149 623 156.5 584.5 c 128,-1,7
 164 546 164 546 169 504.5 c 128,-1,8
 174 463 174 463 174 424 c 0,9,10
 174 370 174 370 159 316 c 128,-1,11
 144 262 144 262 116.5 207.5 c 128,-1,12
 89 153 89 153 51.5 98.5 c 128,-1,13
 14 44 14 44 -32 -10 c 1,14,-1
 11 -37 l 1,15,16
 60 21 60 21 101.5 78.5 c 128,-1,17
 143 136 143 136 173 194 c 128,-1,18
 203 252 203 252 220 311 c 128,-1,19
 237 370 237 370 237 432 c 0,0,1
EndSplineSet
EndChar

StartChar: asterisk
Encoding: 42 42 13
Width: 312
GlyphClass: 1
Flags: W
LayerCount: 2
Fore
SplineSet
160 526 m 1,0,-1
 215 590 l 1,1,-1
 242 526 l 1,2,-1
 277 547 l 1,3,-1
 248 609 l 1,4,-1
 317 631 l 1,5,-1
 315 665 l 1,6,-1
 243 640 l 1,7,-1
 261 713 l 1,8,-1
 221 713 l 1,9,-1
 208 640 l 1,10,-1
 147 665 l 1,11,-1
 129 631 l 1,12,-1
 190 609 l 1,13,-1
 135 547 l 1,14,-1
 160 526 l 1,0,-1
EndSplineSet
EndChar

StartChar: plus
Encoding: 43 43 14
Width: 414
GlyphClass: 1
Flags: W
LayerCount: 2
Fore
SplineSet
246 382 m 1,0,-1
 246 518 l 1,1,-1
 186 518 l 1,2,-1
 186 382 l 1,3,-1
 61 382 l 1,4,-1
 61 328 l 1,5,-1
 186 328 l 1,6,-1
 186 192 l 1,7,-1
 246 192 l 1,8,-1
 246 328 l 1,9,-1
 372 328 l 1,10,-1
 372 382 l 1,11,-1
 246 382 l 1,0,-1
EndSplineSet
EndChar

StartChar: comma
Encoding: 44 44 15
Width: 227
GlyphClass: 1
Flags: W
LayerCount: 2
Fore
SplineSet
51 -160 m 1,0,-1
 174 100 l 1,1,-1
 107 100 l 1,2,-1
 14 -160 l 1,3,-1
 51 -160 l 1,0,-1
EndSplineSet
EndChar

StartChar: hyphen
Encoding: 45 45 16
Width: 405
GlyphClass: 1
Flags: W
LayerCount: 2
Fore
SplineSet
329 242 m 1,0,-1
 341 302 l 1,1,-1
 64 302 l 1,2,-1
 52 242 l 1,3,-1
 329 242 l 1,0,-1
EndSplineSet
EndChar

StartChar: period
Encoding: 46 46 17
Width: 187
GlyphClass: 1
Flags: W
LayerCount: 2
Fore
SplineSet
43 40 m 0,0,1
 39 20 39 20 50 6 c 128,-1,2
 61 -8 61 -8 82 -8 c 0,3,4
 102 -8 102 -8 119 6 c 128,-1,5
 136 20 136 20 141 40 c 0,6,7
 145 60 145 60 134 74.5 c 128,-1,8
 123 89 123 89 102 89 c 0,9,10
 82 89 82 89 65 74.5 c 128,-1,11
 48 60 48 60 43 40 c 0,0,1
EndSplineSet
EndChar

StartChar: slash
Encoding: 47 47 18
Width: 596
GlyphClass: 1
Flags: W
LayerCount: 2
Fore
SplineSet
574 710 m 1,0,-1
 -26 0 l 1,1,-1
 48 0 l 1,2,-1
 648 710 l 1,3,-1
 574 710 l 1,0,-1
EndSplineSet
Substitution2: "'frac' Diagonal Fractions lookup 23 subtable" fraction
Substitution2: "'aalt' Access All Alternates lookup 0 subtable" fraction
EndChar

StartChar: zero
Encoding: 48 48 19
Width: 657
GlyphClass: 1
Flags: W
LayerCount: 2
Fore
SplineSet
263 -10 m 0,0,1
 338 -10 338 -10 404 29.5 c 128,-1,2
 470 69 470 69 520 132 c 128,-1,3
 570 195 570 195 598.5 272 c 128,-1,4
 627 349 627 349 627 424 c 0,5,6
 627 474 627 474 615 525 c 128,-1,7
 603 576 603 576 577.5 617 c 128,-1,8
 552 658 552 658 512 684 c 128,-1,9
 472 710 472 710 415 710 c 0,10,11
 341 710 341 710 274.5 670 c 128,-1,12
 208 630 208 630 158.5 566.5 c 128,-1,13
 109 503 109 503 79.5 426 c 128,-1,14
 50 349 50 349 50 275 c 0,15,16
 50 224 50 224 62.5 173 c 128,-1,17
 75 122 75 122 100.5 81.5 c 128,-1,18
 126 41 126 41 166.5 15.5 c 128,-1,19
 207 -10 207 -10 263 -10 c 0,0,1
275 51 m 0,20,21
 233 51 233 51 203.5 69 c 128,-1,22
 174 87 174 87 155.5 117 c 128,-1,23
 137 147 137 147 128 186 c 128,-1,24
 119 225 119 225 119 268 c 0,25,26
 119 325 119 325 139.5 392 c 128,-1,27
 160 459 160 459 197.5 516 c 128,-1,28
 235 573 235 573 287 611 c 128,-1,29
 339 649 339 649 403 649 c 0,30,31
 443 649 443 649 472 629 c 128,-1,32
 501 609 501 609 520.5 576.5 c 128,-1,33
 540 544 540 544 549.5 503 c 128,-1,34
 559 462 559 462 559 419 c 0,35,36
 559 363 559 363 538 298.5 c 128,-1,37
 517 234 517 234 479.5 179 c 128,-1,38
 442 124 442 124 390 87.5 c 128,-1,39
 338 51 338 51 275 51 c 0,20,21
EndSplineSet
Substitution2: "'frac' Diagonal Fractions lookup 24 subtable" zero.numr
Substitution2: "'dnom' Denominators lookup 22 subtable" zero.dnom
Substitution2: "'numr' Numerators lookup 21 subtable" zero.numr
Substitution2: "'sups' Superscript lookup 20 subtable" uni2070
Substitution2: "'sinf' Scientific Inferiors lookup 19 subtable" zero.subs
Substitution2: "'subs' Subscript lookup 18 subtable" uni2080
AlternateSubs2: "'aalt' Access All Alternates lookup 1 subtable" uni2080 zero.subs uni2070 zero.numr zero.dnom
EndChar

StartChar: one
Encoding: 49 49 20
Width: 366
GlyphClass: 1
Flags: W
LayerCount: 2
Fore
SplineSet
128 0 m 1,0,-1
 194 0 l 1,1,-1
 347 719 l 1,2,-1
 280 719 l 2,3,4
 279 718 279 718 262 702 c 128,-1,5
 245 686 245 686 219.5 668 c 128,-1,6
 194 650 194 650 164.5 635.5 c 128,-1,7
 135 621 135 621 110 621 c 1,8,-1
 97 560 l 1,9,10
 116 560 116 560 141 569 c 128,-1,11
 166 578 166 578 190 591.5 c 128,-1,12
 214 605 214 605 234.5 619.5 c 128,-1,13
 255 634 255 634 265 646 c 1,14,-1
 128 0 l 1,0,-1
EndSplineSet
Substitution2: "'frac' Diagonal Fractions lookup 24 subtable" one.numr
Substitution2: "'dnom' Denominators lookup 22 subtable" one.dnom
Substitution2: "'numr' Numerators lookup 21 subtable" one.numr
Substitution2: "'sups' Superscript lookup 20 subtable" onesuperior
Substitution2: "'sinf' Scientific Inferiors lookup 19 subtable" one.subs
Substitution2: "'subs' Subscript lookup 18 subtable" uni2081
AlternateSubs2: "'aalt' Access All Alternates lookup 1 subtable" uni2081 one.subs onesuperior one.numr one.dnom
EndChar

StartChar: two
Encoding: 50 50 21
Width: 554
GlyphClass: 1
Flags: W
LayerCount: 2
Fore
SplineSet
-16 0 m 1,0,-1
 440 0 l 1,1,-1
 452 60 l 1,2,-1
 71 60 l 1,3,4
 77 92 77 92 91.5 122.5 c 128,-1,5
 106 153 106 153 132 182 c 128,-1,6
 158 211 158 211 198.5 237.5 c 128,-1,7
 239 264 239 264 297 289 c 0,8,9
 341 308 341 308 386 328.5 c 128,-1,10
 431 349 431 349 468.5 378.5 c 128,-1,11
 506 408 506 408 529.5 450 c 128,-1,12
 553 492 553 492 553 555 c 0,13,14
 553 589 553 589 542.5 618.5 c 128,-1,15
 532 648 532 648 511 670.5 c 128,-1,16
 490 693 490 693 457.5 706 c 128,-1,17
 425 719 425 719 381 719 c 0,18,19
 327 719 327 719 281.5 702.5 c 128,-1,20
 236 686 236 686 201.5 664.5 c 128,-1,21
 167 643 167 643 145.5 623 c 128,-1,22
 124 603 124 603 117 596 c 1,23,-1
 151 555 l 1,24,25
 165 570 165 570 186 587.5 c 128,-1,26
 207 605 207 605 233.5 621 c 128,-1,27
 260 637 260 637 292 647.5 c 128,-1,28
 324 658 324 658 361 658 c 0,29,30
 392 658 392 658 414.5 649 c 128,-1,31
 437 640 437 640 451.5 624.5 c 128,-1,32
 466 609 466 609 473 588 c 128,-1,33
 480 567 480 567 480 544 c 0,34,35
 480 490 480 490 457 455.5 c 128,-1,36
 434 421 434 421 398.5 398 c 128,-1,37
 363 375 363 375 320 358.5 c 128,-1,38
 277 342 277 342 236 324 c 0,39,40
 187 303 187 303 146.5 275.5 c 128,-1,41
 106 248 106 248 74.5 210 c 128,-1,42
 43 172 43 172 20 121 c 128,-1,43
 -3 70 -3 70 -16 0 c 1,0,-1
EndSplineSet
Substitution2: "'frac' Diagonal Fractions lookup 24 subtable" two.numr
Substitution2: "'dnom' Denominators lookup 22 subtable" two.dnom
Substitution2: "'numr' Numerators lookup 21 subtable" two.numr
Substitution2: "'sups' Superscript lookup 20 subtable" twosuperior
Substitution2: "'sinf' Scientific Inferiors lookup 19 subtable" two.subs
Substitution2: "'subs' Subscript lookup 18 subtable" uni2082
AlternateSubs2: "'aalt' Access All Alternates lookup 1 subtable" uni2082 two.subs twosuperior two.numr two.dnom
EndChar

StartChar: three
Encoding: 51 51 22
Width: 509
GlyphClass: 1
Flags: W
LayerCount: 2
Fore
SplineSet
176 -9 m 0,0,1
 233 -9 233 -9 281.5 9 c 128,-1,2
 330 27 330 27 366.5 59 c 128,-1,3
 403 91 403 91 423.5 135 c 128,-1,4
 444 179 444 179 444 232 c 0,5,6
 444 288 444 288 416.5 326.5 c 128,-1,7
 389 365 389 365 339 374 c 1,8,9
 377 380 377 380 407.5 397.5 c 128,-1,10
 438 415 438 415 459 441 c 128,-1,11
 480 467 480 467 491.5 499.5 c 128,-1,12
 503 532 503 532 503 567 c 0,13,14
 503 600 503 600 491.5 627 c 128,-1,15
 480 654 480 654 458.5 673.5 c 128,-1,16
 437 693 437 693 406.5 703.5 c 128,-1,17
 376 714 376 714 337 714 c 0,18,19
 302 714 302 714 268.5 705.5 c 128,-1,20
 235 697 235 697 204.5 681.5 c 128,-1,21
 174 666 174 666 149 645 c 128,-1,22
 124 624 124 624 107 597 c 1,23,-1
 140 558 l 1,24,25
 172 603 172 603 218 629 c 128,-1,26
 264 655 264 655 318 655 c 0,27,28
 370 655 370 655 401.5 629 c 128,-1,29
 433 603 433 603 433 555 c 0,30,31
 433 521 433 521 420 493 c 128,-1,32
 407 465 407 465 384 444.5 c 128,-1,33
 361 424 361 424 327 412 c 128,-1,34
 293 400 293 400 251 400 c 2,35,-1
 178 400 l 1,36,-1
 166 344 l 1,37,-1
 237 344 l 2,38,39
 306 344 306 344 341 312 c 128,-1,40
 376 280 376 280 376 225 c 0,41,42
 376 185 376 185 362 153 c 128,-1,43
 348 121 348 121 323.5 98.5 c 128,-1,44
 299 76 299 76 265 63.5 c 128,-1,45
 231 51 231 51 189 51 c 0,46,47
 127 51 127 51 92 77 c 128,-1,48
 57 103 57 103 46 148 c 1,49,-1
 -8 106 l 1,50,51
 8 52 8 52 56 21.5 c 128,-1,52
 104 -9 104 -9 176 -9 c 0,0,1
EndSplineSet
Substitution2: "'frac' Diagonal Fractions lookup 24 subtable" three.numr
Substitution2: "'dnom' Denominators lookup 22 subtable" three.dnom
Substitution2: "'numr' Numerators lookup 21 subtable" three.numr
Substitution2: "'sups' Superscript lookup 20 subtable" threesuperior
Substitution2: "'sinf' Scientific Inferiors lookup 19 subtable" three.subs
Substitution2: "'subs' Subscript lookup 18 subtable" uni2083
AlternateSubs2: "'aalt' Access All Alternates lookup 1 subtable" uni2083 three.subs threesuperior three.numr three.dnom
EndChar

StartChar: four
Encoding: 52 52 23
Width: 545
GlyphClass: 1
Flags: W
LayerCount: 2
Fore
SplineSet
360 0 m 1,0,-1
 400 191 l 1,1,-1
 484 191 l 1,2,-1
 497 251 l 1,3,-1
 413 251 l 1,4,-1
 510 710 l 1,5,-1
 465 710 l 1,6,-1
 16 249 l 1,7,-1
 4 191 l 1,8,-1
 335 191 l 1,9,-1
 294 0 l 1,10,-1
 360 0 l 1,0,-1
87 251 m 1,11,-1
 429 608 l 1,12,-1
 353 251 l 1,13,-1
 87 251 l 1,11,-1
EndSplineSet
Substitution2: "'frac' Diagonal Fractions lookup 24 subtable" four.numr
Substitution2: "'dnom' Denominators lookup 22 subtable" four.dnom
Substitution2: "'numr' Numerators lookup 21 subtable" four.numr
Substitution2: "'sups' Superscript lookup 20 subtable" uni2074
Substitution2: "'sinf' Scientific Inferiors lookup 19 subtable" four.subs
Substitution2: "'subs' Subscript lookup 18 subtable" uni2084
AlternateSubs2: "'aalt' Access All Alternates lookup 1 subtable" uni2084 four.subs uni2074 four.numr four.dnom
EndChar

StartChar: five
Encoding: 53 53 24
Width: 537
GlyphClass: 1
Flags: W
LayerCount: 2
Fore
SplineSet
192 -10 m 0,0,1
 248 -10 248 -10 300 11 c 128,-1,2
 352 32 352 32 392 69 c 128,-1,3
 432 106 432 106 456.5 157 c 128,-1,4
 481 208 481 208 481 268 c 0,5,6
 481 309 481 309 468 342.5 c 128,-1,7
 455 376 455 376 432 400 c 128,-1,8
 409 424 409 424 376.5 437 c 128,-1,9
 344 450 344 450 304 450 c 0,10,11
 262 450 262 450 223 434.5 c 128,-1,12
 184 419 184 419 152 390 c 1,13,-1
 254 649 l 1,14,-1
 531 649 l 1,15,-1
 544 710 l 1,16,-1
 218 710 l 1,17,18
 218 710 218 710 207 683 c 128,-1,19
 196 656 196 656 180 614.5 c 128,-1,20
 164 573 164 573 144 524 c 128,-1,21
 124 475 124 475 106.5 430.5 c 128,-1,22
 89 386 89 386 75.5 353 c 128,-1,23
 62 320 62 320 58 312 c 1,24,-1
 119 312 l 1,25,26
 152 351 152 351 196 372 c 128,-1,27
 240 393 240 393 284 393 c 0,28,29
 314 393 314 393 337.5 383 c 128,-1,30
 361 373 361 373 378 355 c 128,-1,31
 395 337 395 337 404 312 c 128,-1,32
 413 287 413 287 413 257 c 0,33,34
 413 213 413 213 395.5 175 c 128,-1,35
 378 137 378 137 349.5 109 c 128,-1,36
 321 81 321 81 283 65 c 128,-1,37
 245 49 245 49 205 49 c 0,38,39
 150 49 150 49 110.5 79 c 128,-1,40
 71 109 71 109 55 159 c 1,41,-1
 5 126 l 1,42,43
 21 63 21 63 70.5 26.5 c 128,-1,44
 120 -10 120 -10 192 -10 c 0,0,1
EndSplineSet
Substitution2: "'frac' Diagonal Fractions lookup 24 subtable" five.numr
Substitution2: "'dnom' Denominators lookup 22 subtable" five.dnom
Substitution2: "'numr' Numerators lookup 21 subtable" five.numr
Substitution2: "'sups' Superscript lookup 20 subtable" uni2075
Substitution2: "'sinf' Scientific Inferiors lookup 19 subtable" five.subs
Substitution2: "'subs' Subscript lookup 18 subtable" uni2085
AlternateSubs2: "'aalt' Access All Alternates lookup 1 subtable" uni2085 five.subs uni2075 five.numr five.dnom
EndChar

StartChar: six
Encoding: 54 54 25
Width: 588
GlyphClass: 1
Flags: W
LayerCount: 2
Fore
SplineSet
238 -10 m 0,0,1
 194 -10 194 -10 159 5 c 128,-1,2
 124 20 124 20 99.5 49 c 128,-1,3
 75 78 75 78 61.5 119 c 128,-1,4
 48 160 48 160 48 211 c 0,5,6
 48 310 48 310 74 401.5 c 128,-1,7
 100 493 100 493 146 562.5 c 128,-1,8
 192 632 192 632 256.5 673.5 c 128,-1,9
 321 715 321 715 399 715 c 0,10,11
 466 715 466 715 511.5 680 c 128,-1,12
 557 645 557 645 572 582 c 1,13,-1
 522 544 l 1,14,15
 513 596 513 596 476.5 626.5 c 128,-1,16
 440 657 440 657 386 657 c 0,17,18
 342 657 342 657 301 635 c 128,-1,19
 260 613 260 613 225 572 c 128,-1,20
 190 531 190 531 162 473 c 128,-1,21
 134 415 134 415 116 343 c 1,22,23
 133 373 133 373 159 397.5 c 128,-1,24
 185 422 185 422 216 439 c 128,-1,25
 247 456 247 456 281 465 c 128,-1,26
 315 474 315 474 348 474 c 0,27,28
 390 474 390 474 424.5 459 c 128,-1,29
 459 444 459 444 483.5 417.5 c 128,-1,30
 508 391 508 391 521.5 355 c 128,-1,31
 535 319 535 319 535 277 c 0,32,33
 535 219 535 219 510 167 c 128,-1,34
 485 115 485 115 443.5 75.5 c 128,-1,35
 402 36 402 36 349 13 c 128,-1,36
 296 -10 296 -10 238 -10 c 0,0,1
252 47 m 0,37,38
 292 47 292 47 331.5 65 c 128,-1,39
 371 83 371 83 402 113 c 128,-1,40
 433 143 433 143 451.5 183 c 128,-1,41
 470 223 470 223 470 267 c 0,42,43
 470 299 470 299 460 327 c 128,-1,44
 450 355 450 355 431.5 376 c 128,-1,45
 413 397 413 397 387 408.5 c 128,-1,46
 361 420 361 420 330 420 c 0,47,48
 289 420 289 420 249.5 402.5 c 128,-1,49
 210 385 210 385 179.5 354.5 c 128,-1,50
 149 324 149 324 130 284 c 128,-1,51
 111 244 111 244 111 201 c 0,52,53
 111 169 111 169 121 141 c 128,-1,54
 131 113 131 113 150 92.5 c 128,-1,55
 169 72 169 72 194.5 59.5 c 128,-1,56
 220 47 220 47 252 47 c 0,37,38
EndSplineSet
Substitution2: "'frac' Diagonal Fractions lookup 24 subtable" six.numr
Substitution2: "'dnom' Denominators lookup 22 subtable" six.dnom
Substitution2: "'numr' Numerators lookup 21 subtable" six.numr
Substitution2: "'sups' Superscript lookup 20 subtable" uni2076
Substitution2: "'sinf' Scientific Inferiors lookup 19 subtable" six.subs
Substitution2: "'subs' Subscript lookup 18 subtable" uni2086
AlternateSubs2: "'aalt' Access All Alternates lookup 1 subtable" uni2086 six.subs uni2076 six.numr six.dnom
EndChar

StartChar: seven
Encoding: 55 55 26
Width: 497
GlyphClass: 1
Flags: W
LayerCount: 2
Fore
SplineSet
12 0 m 1,0,-1
 86 0 l 1,1,-1
 579 710 l 1,2,-1
 112 710 l 1,3,-1
 99 649 l 1,4,-1
 462 649 l 1,5,-1
 12 0 l 1,0,-1
EndSplineSet
Substitution2: "'frac' Diagonal Fractions lookup 24 subtable" seven.numr
Substitution2: "'dnom' Denominators lookup 22 subtable" seven.dnom
Substitution2: "'numr' Numerators lookup 21 subtable" seven.numr
Substitution2: "'sups' Superscript lookup 20 subtable" uni2077
Substitution2: "'sinf' Scientific Inferiors lookup 19 subtable" seven.subs
Substitution2: "'subs' Subscript lookup 18 subtable" uni2087
AlternateSubs2: "'aalt' Access All Alternates lookup 1 subtable" uni2087 seven.subs uni2077 seven.numr seven.dnom
EndChar

StartChar: eight
Encoding: 56 56 27
Width: 570
GlyphClass: 1
Flags: W
LayerCount: 2
Fore
SplineSet
501 229 m 0,0,1
 501 283 501 283 472 323 c 128,-1,2
 443 363 443 363 400 380 c 1,3,4
 428 391 428 391 454.5 408.5 c 128,-1,5
 481 426 481 426 502 448.5 c 128,-1,6
 523 471 523 471 536 499 c 128,-1,7
 549 527 549 527 549 560 c 0,8,9
 549 596 549 596 534 624 c 128,-1,10
 519 652 519 652 494 671 c 128,-1,11
 469 690 469 690 437 700 c 128,-1,12
 405 710 405 710 371 710 c 0,13,14
 329 710 329 710 284.5 696.5 c 128,-1,15
 240 683 240 683 203 656.5 c 128,-1,16
 166 630 166 630 142.5 592 c 128,-1,17
 119 554 119 554 119 505 c 0,18,19
 119 461 119 461 142.5 429 c 128,-1,20
 166 397 166 397 202 380 c 1,21,22
 172 370 172 370 140 350.5 c 128,-1,23
 108 331 108 331 82.5 304.5 c 128,-1,24
 57 278 57 278 40.5 243 c 128,-1,25
 24 208 24 208 24 166 c 0,26,27
 24 130 24 130 37.5 98 c 128,-1,28
 51 66 51 66 76 42.5 c 128,-1,29
 101 19 101 19 136.5 5.5 c 128,-1,30
 172 -8 172 -8 217 -8 c 0,31,32
 270 -8 270 -8 321.5 9.5 c 128,-1,33
 373 27 373 27 412.5 58 c 128,-1,34
 452 89 452 89 476.5 132.5 c 128,-1,35
 501 176 501 176 501 229 c 0,0,1
435 226 m 0,36,37
 435 187 435 187 416 154.5 c 128,-1,38
 397 122 397 122 367.5 99 c 128,-1,39
 338 76 338 76 302 63.5 c 128,-1,40
 266 51 266 51 232 51 c 0,41,42
 205 51 205 51 180 59.5 c 128,-1,43
 155 68 155 68 135.5 84 c 128,-1,44
 116 100 116 100 104 123.5 c 128,-1,45
 92 147 92 147 92 176 c 0,46,47
 92 215 92 215 111 247.5 c 128,-1,48
 130 280 130 280 159 303.5 c 128,-1,49
 188 327 188 327 224 339.5 c 128,-1,50
 260 352 260 352 294 352 c 0,51,52
 321 352 321 352 346 344 c 128,-1,53
 371 336 371 336 391 319.5 c 128,-1,54
 411 303 411 303 423 279.5 c 128,-1,55
 435 256 435 256 435 226 c 0,36,37
185 508 m 0,56,57
 185 540 185 540 200.5 567 c 128,-1,58
 216 594 216 594 240.5 612.5 c 128,-1,59
 265 631 265 631 295.5 641 c 128,-1,60
 326 651 326 651 358 651 c 0,61,62
 383 651 383 651 405.5 644 c 128,-1,63
 428 637 428 637 444.5 623.5 c 128,-1,64
 461 610 461 610 471 591.5 c 128,-1,65
 481 573 481 573 481 549 c 0,66,67
 481 515 481 515 464 487.5 c 128,-1,68
 447 460 447 460 421 441.5 c 128,-1,69
 395 423 395 423 364.5 413.5 c 128,-1,70
 334 404 334 404 306 404 c 0,71,72
 284 404 284 404 262.5 411 c 128,-1,73
 241 418 241 418 224 431.5 c 128,-1,74
 207 445 207 445 196 464 c 128,-1,75
 185 483 185 483 185 508 c 0,56,57
EndSplineSet
Substitution2: "'frac' Diagonal Fractions lookup 24 subtable" eight.numr
Substitution2: "'dnom' Denominators lookup 22 subtable" eight.dnom
Substitution2: "'numr' Numerators lookup 21 subtable" eight.numr
Substitution2: "'sups' Superscript lookup 20 subtable" uni2078
Substitution2: "'sinf' Scientific Inferiors lookup 19 subtable" eight.subs
Substitution2: "'subs' Subscript lookup 18 subtable" uni2088
AlternateSubs2: "'aalt' Access All Alternates lookup 1 subtable" uni2088 eight.subs uni2078 eight.numr eight.dnom
EndChar

StartChar: nine
Encoding: 57 57 28
Width: 571
GlyphClass: 1
Flags: W
LayerCount: 2
Fore
SplineSet
214 -7 m 0,0,1
 147 -7 147 -7 101.5 28 c 128,-1,2
 56 63 56 63 41 126 c 1,3,-1
 91 164 l 1,4,5
 100 112 100 112 136.5 81.5 c 128,-1,6
 173 51 173 51 227 51 c 0,7,8
 271 51 271 51 314 73 c 128,-1,9
 357 95 357 95 393 136 c 128,-1,10
 429 177 429 177 456.5 235 c 128,-1,11
 484 293 484 293 496 365 c 1,12,13
 479 335 479 335 453.5 310.5 c 128,-1,14
 428 286 428 286 396.5 269 c 128,-1,15
 365 252 365 252 331 243 c 128,-1,16
 297 234 297 234 264 234 c 0,17,18
 222 234 222 234 188 249 c 128,-1,19
 154 264 154 264 129.5 290.5 c 128,-1,20
 105 317 105 317 91.5 353 c 128,-1,21
 78 389 78 389 78 431 c 0,22,23
 78 489 78 489 103 541 c 128,-1,24
 128 593 128 593 169 632.5 c 128,-1,25
 210 672 210 672 263.5 695 c 128,-1,26
 317 718 317 718 374 718 c 0,27,28
 418 718 418 718 453 703 c 128,-1,29
 488 688 488 688 513 659 c 128,-1,30
 538 630 538 630 551 589 c 128,-1,31
 564 548 564 548 564 497 c 0,32,33
 564 398 564 398 538.5 306.5 c 128,-1,34
 513 215 513 215 467 145.5 c 128,-1,35
 421 76 421 76 356.5 34.5 c 128,-1,36
 292 -7 292 -7 214 -7 c 0,0,1
282 288 m 0,37,38
 323 288 323 288 362.5 305.5 c 128,-1,39
 402 323 402 323 433 353.5 c 128,-1,40
 464 384 464 384 483 424 c 128,-1,41
 502 464 502 464 502 507 c 0,42,43
 502 539 502 539 491.5 567 c 128,-1,44
 481 595 481 595 462.5 615.5 c 128,-1,45
 444 636 444 636 418 648.5 c 128,-1,46
 392 661 392 661 361 661 c 0,47,48
 321 661 321 661 281.5 643 c 128,-1,49
 242 625 242 625 210.5 595 c 128,-1,50
 179 565 179 565 160.5 525 c 128,-1,51
 142 485 142 485 142 441 c 0,52,53
 142 409 142 409 152.5 381 c 128,-1,54
 163 353 163 353 181.5 332 c 128,-1,55
 200 311 200 311 226 299.5 c 128,-1,56
 252 288 252 288 282 288 c 0,37,38
EndSplineSet
Substitution2: "'frac' Diagonal Fractions lookup 24 subtable" nine.numr
Substitution2: "'dnom' Denominators lookup 22 subtable" nine.dnom
Substitution2: "'numr' Numerators lookup 21 subtable" nine.numr
Substitution2: "'sups' Superscript lookup 20 subtable" uni2079
Substitution2: "'sinf' Scientific Inferiors lookup 19 subtable" nine.subs
Substitution2: "'subs' Subscript lookup 18 subtable" uni2089
AlternateSubs2: "'aalt' Access All Alternates lookup 1 subtable" uni2089 nine.subs uni2079 nine.numr nine.dnom
EndChar

StartChar: less
Encoding: 60 60 31
Width: 545
GlyphClass: 1
Flags: W
LayerCount: 2
Fore
SplineSet
30 239 m 1,0,-1
 449 -11 l 1,1,-1
 449 62 l 1,2,-1
 125 259 l 1,3,-1
 449 458 l 1,4,-1
 449 528 l 1,5,-1
 30 276 l 1,6,-1
 30 239 l 1,0,-1
EndSplineSet
EndChar

StartChar: equal
Encoding: 61 61 32
Width: 470
GlyphClass: 1
Flags: W
LayerCount: 2
Fore
SplineSet
380 196 m 1,0,-1
 380 243 l 1,1,-1
 79 243 l 1,2,-1
 79 196 l 1,3,-1
 380 196 l 1,0,-1
380 309 m 1,4,-1
 380 356 l 1,5,-1
 79 356 l 1,6,-1
 79 309 l 1,7,-1
 380 309 l 1,4,-1
EndSplineSet
EndChar

StartChar: greater
Encoding: 62 62 33
Width: 544
GlyphClass: 1
Flags: W
LayerCount: 2
Fore
SplineSet
496 276 m 1,0,-1
 77 528 l 1,1,-1
 77 458 l 1,2,-1
 401 259 l 1,3,-1
 77 62 l 1,4,-1
 77 -11 l 1,5,-1
 496 239 l 1,6,-1
 496 276 l 1,0,-1
EndSplineSet
EndChar

StartChar: question
Encoding: 63 63 34
Width: 458
GlyphClass: 1
Flags: W
LayerCount: 2
Fore
SplineSet
179 200 m 1,0,1
 187 237 187 237 199.5 261 c 128,-1,2
 212 285 212 285 227.5 301.5 c 128,-1,3
 243 318 243 318 260.5 329 c 128,-1,4
 278 340 278 340 297 350 c 0,5,6
 325 364 325 364 352 378.5 c 128,-1,7
 379 393 379 393 401.5 413 c 128,-1,8
 424 433 424 433 441.5 460.5 c 128,-1,9
 459 488 459 488 467 529 c 0,10,11
 478 577 478 577 469.5 612.5 c 128,-1,12
 461 648 461 648 439.5 672 c 128,-1,13
 418 696 418 696 387 707.5 c 128,-1,14
 356 719 356 719 320 719 c 0,15,16
 289 719 289 719 257 710.5 c 128,-1,17
 225 702 225 702 195 685.5 c 128,-1,18
 165 669 165 669 138.5 645 c 128,-1,19
 112 621 112 621 92 590 c 1,20,-1
 130 561 l 1,21,22
 145 583 145 583 165 602 c 128,-1,23
 185 621 185 621 208 634.5 c 128,-1,24
 231 648 231 648 256.5 656 c 128,-1,25
 282 664 282 664 307 664 c 0,26,27
 333 664 333 664 355 655.5 c 128,-1,28
 377 647 377 647 391.5 631 c 128,-1,29
 406 615 406 615 412 590 c 128,-1,30
 418 565 418 565 411 532 c 0,31,32
 403 495 403 495 384 470 c 128,-1,33
 365 445 365 445 341 427 c 128,-1,34
 317 409 317 409 291 396.5 c 128,-1,35
 265 384 265 384 244 372 c 0,36,37
 220 359 220 359 201.5 343.5 c 128,-1,38
 183 328 183 328 168.5 307.5 c 128,-1,39
 154 287 154 287 143.5 260.5 c 128,-1,40
 133 234 133 234 125 200 c 1,41,-1
 179 200 l 1,0,1
72 40 m 0,42,43
 68 20 68 20 78.5 6 c 128,-1,44
 89 -8 89 -8 109 -8 c 0,45,46
 119 -8 119 -8 128.5 -4.5 c 128,-1,47
 138 -1 138 -1 145.5 5.5 c 128,-1,48
 153 12 153 12 158.5 21 c 128,-1,49
 164 30 164 30 166 40 c 0,50,51
 170 60 170 60 159.5 74.5 c 128,-1,52
 149 89 149 89 130 89 c 0,53,54
 120 89 120 89 110.5 85 c 128,-1,55
 101 81 101 81 93 74.5 c 128,-1,56
 85 68 85 68 79.5 59.5 c 128,-1,57
 74 51 74 51 72 40 c 0,42,43
EndSplineSet
EndChar

StartChar: at
Encoding: 64 64 35
Width: 802
GlyphClass: 1
Flags: W
LayerCount: 2
Fore
SplineSet
559 20 m 0,0,1
 541 20 541 20 533 29.5 c 128,-1,2
 525 39 525 39 525 60 c 0,3,4
 525 66 525 66 526 75.5 c 128,-1,5
 527 85 527 85 530 99 c 2,6,-1
 605 450 l 1,7,-1
 561 450 l 1,8,-1
 543 362 l 1,9,10
 528 403 528 403 494.5 429 c 128,-1,11
 461 455 461 455 409 455 c 0,12,13
 362 455 362 455 318.5 432.5 c 128,-1,14
 275 410 275 410 242 372.5 c 128,-1,15
 209 335 209 335 189 285.5 c 128,-1,16
 169 236 169 236 169 183 c 0,17,18
 169 146 169 146 179.5 113 c 128,-1,19
 190 80 190 80 209.5 55.5 c 128,-1,20
 229 31 229 31 257.5 17 c 128,-1,21
 286 3 286 3 321 3 c 0,22,23
 365 3 365 3 409.5 23.5 c 128,-1,24
 454 44 454 44 487 77 c 1,25,26
 485 69 485 69 484.5 61.5 c 128,-1,27
 484 54 484 54 484 48 c 0,28,29
 484 13 484 13 501.5 -1.5 c 128,-1,30
 519 -16 519 -16 547 -16 c 0,31,32
 581 -16 581 -16 608 0 c 128,-1,33
 635 16 635 16 656.5 42.5 c 128,-1,34
 678 69 678 69 693.5 103.5 c 128,-1,35
 709 138 709 138 719.5 174 c 128,-1,36
 730 210 730 210 735 245.5 c 128,-1,37
 740 281 740 281 740 310 c 0,38,39
 740 370 740 370 720.5 423 c 128,-1,40
 701 476 701 476 664.5 516 c 128,-1,41
 628 556 628 556 575.5 579.5 c 128,-1,42
 523 603 523 603 458 603 c 0,43,44
 381 603 381 603 303.5 569 c 128,-1,45
 226 535 226 535 164 475.5 c 128,-1,46
 102 416 102 416 63.5 335 c 128,-1,47
 25 254 25 254 25 159 c 0,48,49
 25 92 25 92 45 36 c 128,-1,50
 65 -20 65 -20 101.5 -60.5 c 128,-1,51
 138 -101 138 -101 188.5 -123.5 c 128,-1,52
 239 -146 239 -146 299 -146 c 0,53,54
 338 -146 338 -146 380.5 -136 c 128,-1,55
 423 -126 423 -126 466 -106 c 1,56,-1
 461 -75 l 1,57,58
 422 -93 422 -93 385.5 -103 c 128,-1,59
 349 -113 349 -113 309 -113 c 0,60,61
 252 -113 252 -113 205.5 -92 c 128,-1,62
 159 -71 159 -71 126.5 -34 c 128,-1,63
 94 3 94 3 76.5 53.5 c 128,-1,64
 59 104 59 104 59 162 c 0,65,66
 59 245 59 245 93 319.5 c 128,-1,67
 127 394 127 394 182 449.5 c 128,-1,68
 237 505 237 505 307 537.5 c 128,-1,69
 377 570 377 570 451 570 c 0,70,71
 512 570 512 570 559 548 c 128,-1,72
 606 526 606 526 638.5 489.5 c 128,-1,73
 671 453 671 453 688.5 404 c 128,-1,74
 706 355 706 355 706 301 c 0,75,76
 706 258 706 258 695 209 c 128,-1,77
 684 160 684 160 664.5 118 c 128,-1,78
 645 76 645 76 618 48 c 128,-1,79
 591 20 591 20 559 20 c 0,0,1
340 43 m 0,80,81
 313 43 313 43 290 54.5 c 128,-1,82
 267 66 267 66 250.5 86 c 128,-1,83
 234 106 234 106 224.5 134 c 128,-1,84
 215 162 215 162 215 195 c 0,85,86
 215 239 215 239 231.5 279 c 128,-1,87
 248 319 248 319 275.5 349 c 128,-1,88
 303 379 303 379 337.5 396.5 c 128,-1,89
 372 414 372 414 408 414 c 0,90,91
 449 414 449 414 481.5 389 c 128,-1,92
 514 364 514 364 529 311 c 1,93,-1
 500 155 l 1,94,95
 491 133 491 133 474 112.5 c 128,-1,96
 457 92 457 92 435.5 77 c 128,-1,97
 414 62 414 62 389 52.5 c 128,-1,98
 364 43 364 43 340 43 c 0,80,81
EndSplineSet
EndChar

StartChar: A
Encoding: 65 65 36
Width: 650
GlyphClass: 1
Flags: W
LayerCount: 2
Fore
SplineSet
-44 0 m 1,0,-1
 27 0 l 1,1,-1
 161 223 l 1,2,-1
 463 223 l 1,3,-1
 503 0 l 1,4,-1
 574 0 l 1,5,-1
 445 710 l 1,6,-1
 387 710 l 1,7,-1
 -44 0 l 1,0,-1
186 277 m 1,8,-1
 400 631 l 1,9,-1
 459 277 l 1,10,-1
 186 277 l 1,8,-1
EndSplineSet
Substitution2: "Single Substitution lookup 46 subtable" ordfeminine
Substitution2: "'aalt' Access All Alternates lookup 0 subtable" ordfeminine
EndChar

StartChar: B
Encoding: 66 66 37
Width: 641
GlyphClass: 1
Flags: W
LayerCount: 2
Fore
SplineSet
24 0 m 1,0,-1
 343 0 l 2,1,2
 387 0 387 0 428.5 16.5 c 128,-1,3
 470 33 470 33 503 62.5 c 128,-1,4
 536 92 536 92 555.5 132.5 c 128,-1,5
 575 173 575 173 575 220 c 0,6,7
 575 271 575 271 551.5 310 c 128,-1,8
 528 349 528 349 483 364 c 1,9,10
 514 377 514 377 539 398 c 128,-1,11
 564 419 564 419 582 445.5 c 128,-1,12
 600 472 600 472 610 502.5 c 128,-1,13
 620 533 620 533 620 565 c 0,14,15
 620 593 620 593 612.5 619 c 128,-1,16
 605 645 605 645 590 665.5 c 128,-1,17
 575 686 575 686 552.5 698 c 128,-1,18
 530 710 530 710 500 710 c 2,19,-1
 175 710 l 1,20,-1
 24 0 l 1,0,-1
104 59 m 1,21,-1
 161 331 l 1,22,-1
 419 331 l 2,23,24
 440 331 440 331 457 322 c 128,-1,25
 474 313 474 313 485.5 298 c 128,-1,26
 497 283 497 283 503 263 c 128,-1,27
 509 243 509 243 509 221 c 0,28,29
 509 190 509 190 496 161 c 128,-1,30
 483 132 483 132 461.5 109 c 128,-1,31
 440 86 440 86 412 72.5 c 128,-1,32
 384 59 384 59 355 59 c 2,33,-1
 104 59 l 1,21,-1
173 386 m 1,34,-1
 229 651 l 1,35,-1
 467 651 l 2,36,37
 486 651 486 651 502 643 c 128,-1,38
 518 635 518 635 529 621 c 128,-1,39
 540 607 540 607 545.5 588 c 128,-1,40
 551 569 551 569 551 547 c 0,41,42
 551 516 551 516 538.5 487 c 128,-1,43
 526 458 526 458 506 435.5 c 128,-1,44
 486 413 486 413 459.5 399.5 c 128,-1,45
 433 386 433 386 405 386 c 2,46,-1
 173 386 l 1,34,-1
EndSplineSet
EndChar

StartChar: C
Encoding: 67 67 38
Width: 656
GlyphClass: 1
Flags: W
LayerCount: 2
Fore
SplineSet
304 -6 m 0,0,1
 342 -6 342 -6 382.5 4 c 128,-1,2
 423 14 423 14 462 34.5 c 128,-1,3
 501 55 501 55 536 86.5 c 128,-1,4
 571 118 571 118 597 159 c 1,5,-1
 547 188 l 1,6,7
 524 153 524 153 495.5 128 c 128,-1,8
 467 103 467 103 437 86.5 c 128,-1,9
 407 70 407 70 375.5 62.5 c 128,-1,10
 344 55 344 55 315 55 c 0,11,12
 267 55 267 55 230 74 c 128,-1,13
 193 93 193 93 167 126 c 128,-1,14
 141 159 141 159 128 202.5 c 128,-1,15
 115 246 115 246 115 295 c 0,16,17
 115 356 115 356 136.5 420 c 128,-1,18
 158 484 158 484 199.5 535.5 c 128,-1,19
 241 587 241 587 300.5 620 c 128,-1,20
 360 653 360 653 437 653 c 0,21,22
 466 653 466 653 493 647.5 c 128,-1,23
 520 642 520 642 543 627.5 c 128,-1,24
 566 613 566 613 584 589 c 128,-1,25
 602 565 602 565 612 528 c 1,26,-1
 669 559 l 1,27,28
 660 592 660 592 642 620.5 c 128,-1,29
 624 649 624 649 596.5 669.5 c 128,-1,30
 569 690 569 690 531 702 c 128,-1,31
 493 714 493 714 445 714 c 0,32,33
 357 714 357 714 283.5 675.5 c 128,-1,34
 210 637 210 637 157.5 576 c 128,-1,35
 105 515 105 515 76 439.5 c 128,-1,36
 47 364 47 364 47 289 c 0,37,38
 47 234 47 234 63.5 180.5 c 128,-1,39
 80 127 80 127 112.5 86 c 128,-1,40
 145 45 145 45 193 19.5 c 128,-1,41
 241 -6 241 -6 304 -6 c 0,0,1
EndSplineSet
EndChar

StartChar: D
Encoding: 68 68 39
Width: 689
GlyphClass: 1
Flags: W
LayerCount: 2
Fore
SplineSet
24 0 m 1,0,-1
 253 0 l 2,1,2
 342 0 342 0 417 33 c 128,-1,3
 492 66 492 66 547 124.5 c 128,-1,4
 602 183 602 183 632.5 263.5 c 128,-1,5
 663 344 663 344 663 438 c 0,6,7
 663 495 663 495 647.5 544.5 c 128,-1,8
 632 594 632 594 600 631 c 128,-1,9
 568 668 568 668 519.5 689 c 128,-1,10
 471 710 471 710 404 710 c 2,11,-1
 175 710 l 1,12,-1
 24 0 l 1,0,-1
104 60 m 1,13,-1
 229 650 l 1,14,-1
 392 650 l 2,15,16
 442 650 442 650 480 633.5 c 128,-1,17
 518 617 518 617 543 587.5 c 128,-1,18
 568 558 568 558 581 517 c 128,-1,19
 594 476 594 476 594 427 c 0,20,21
 594 354 594 354 571.5 288 c 128,-1,22
 549 222 549 222 506.5 171 c 128,-1,23
 464 120 464 120 403 90 c 128,-1,24
 342 60 342 60 266 60 c 2,25,-1
 104 60 l 1,13,-1
EndSplineSet
EndChar

StartChar: E
Encoding: 69 69 40
Width: 583
GlyphClass: 1
Flags: W
LayerCount: 2
Fore
SplineSet
24 0 m 1,0,-1
 478 0 l 1,1,-1
 491 60 l 1,2,-1
 104 60 l 1,3,-1
 162 334 l 1,4,-1
 492 334 l 1,5,-1
 504 391 l 1,6,-1
 174 391 l 1,7,-1
 229 650 l 1,8,-1
 607 650 l 1,9,-1
 620 710 l 1,10,-1
 175 710 l 1,11,-1
 24 0 l 1,0,-1
EndSplineSet
EndChar

StartChar: F
Encoding: 70 70 41
Width: 573
GlyphClass: 1
Flags: W
LayerCount: 2
Fore
SplineSet
24 0 m 1,0,-1
 91 0 l 1,1,-1
 161 330 l 1,2,-1
 479 330 l 1,3,-1
 491 387 l 1,4,-1
 174 387 l 1,5,-1
 229 650 l 1,6,-1
 605 650 l 1,7,-1
 617 710 l 1,8,-1
 175 710 l 1,9,-1
 24 0 l 1,0,-1
EndSplineSet
EndChar

StartChar: G
Encoding: 71 71 42
Width: 719
GlyphClass: 1
Flags: W
LayerCount: 2
Fore
SplineSet
302 -5 m 0,0,1
 342 -5 342 -5 381.5 3 c 128,-1,2
 421 11 421 11 459.5 27 c 128,-1,3
 498 43 498 43 535 66 c 128,-1,4
 572 89 572 89 604 118 c 1,5,-1
 652 348 l 1,6,-1
 381 348 l 1,7,-1
 369 288 l 1,8,-1
 575 288 l 1,9,-1
 543 141 l 1,10,11
 520 121 520 121 494.5 105 c 128,-1,12
 469 89 469 89 440.5 78 c 128,-1,13
 412 67 412 67 380 61.5 c 128,-1,14
 348 56 348 56 311 56 c 0,15,16
 254 56 254 56 212.5 81.5 c 128,-1,17
 171 107 171 107 146 149 c 128,-1,18
 121 191 121 191 114.5 244.5 c 128,-1,19
 108 298 108 298 120 354 c 256,20,21
 132 410 132 410 161 464 c 128,-1,22
 190 518 190 518 232 560.5 c 128,-1,23
 274 603 274 603 327 628.5 c 128,-1,24
 380 654 380 654 438 654 c 0,25,26
 475 654 475 654 505 643 c 128,-1,27
 535 632 535 632 558 613 c 128,-1,28
 581 594 581 594 597 569 c 128,-1,29
 613 544 613 544 623 519 c 1,30,-1
 682 561 l 1,31,32
 655 630 655 630 598 672.5 c 128,-1,33
 541 715 541 715 454 715 c 0,34,35
 384 715 384 715 318.5 685 c 128,-1,36
 253 655 253 655 199.5 605.5 c 128,-1,37
 146 556 146 556 108.5 491.5 c 128,-1,38
 71 427 71 427 56 357 c 0,39,40
 41 288 41 288 51 222.5 c 128,-1,41
 61 157 61 157 93 106.5 c 128,-1,42
 125 56 125 56 178 25.5 c 128,-1,43
 231 -5 231 -5 302 -5 c 0,0,1
EndSplineSet
Substitution2: "'ss11' Style Set 11 lookup 42 subtable" G.ss11
Substitution2: "'aalt' Access All Alternates lookup 0 subtable" G.ss11
EndChar

StartChar: H
Encoding: 72 72 43
Width: 709
GlyphClass: 1
Flags: W
LayerCount: 2
Fore
SplineSet
24 0 m 1,0,-1
 91 0 l 1,1,-1
 162 333 l 1,2,-1
 561 333 l 1,3,-1
 490 0 l 1,4,-1
 557 0 l 1,5,-1
 708 710 l 1,6,-1
 641 710 l 1,7,-1
 574 393 l 1,8,-1
 175 393 l 1,9,-1
 242 710 l 1,10,-1
 175 710 l 1,11,-1
 24 0 l 1,0,-1
EndSplineSet
EndChar

StartChar: I
Encoding: 73 73 44
Width: 243
GlyphClass: 1
Flags: W
LayerCount: 2
Fore
SplineSet
24 0 m 1,0,-1
 91 0 l 1,1,-1
 242 709 l 1,2,-1
 175 709 l 1,3,-1
 24 0 l 1,0,-1
EndSplineSet
EndChar

StartChar: J
Encoding: 74 74 45
Width: 518
GlyphClass: 2
Flags: W
LayerCount: 2
Fore
SplineSet
55 145 m 1,0,1
 62 127 62 127 72.5 110 c 128,-1,2
 83 93 83 93 96.5 80.5 c 128,-1,3
 110 68 110 68 127.5 60.5 c 128,-1,4
 145 53 145 53 166 53 c 0,5,6
 206 53 206 53 238 68 c 128,-1,7
 270 83 270 83 293.5 108.5 c 128,-1,8
 317 134 317 134 332.5 167.5 c 128,-1,9
 348 201 348 201 355 237 c 2,10,-1
 446 710 l 1,11,-1
 510 710 l 1,12,-1
 411 212 l 2,13,14
 402 165 402 165 380 124.5 c 128,-1,15
 358 84 358 84 325 54.5 c 128,-1,16
 292 25 292 25 249.5 8.5 c 128,-1,17
 207 -8 207 -8 158 -8 c 0,18,19
 128 -8 128 -8 102 1.5 c 128,-1,20
 76 11 76 11 55 27.5 c 128,-1,21
 34 44 34 44 19 67 c 128,-1,22
 4 90 4 90 -5 118 c 1,23,-1
 55 145 l 1,0,1
EndSplineSet
EndChar

StartChar: K
Encoding: 75 75 46
Width: 614
GlyphClass: 1
Flags: W
LayerCount: 2
Fore
SplineSet
24 0 m 1,0,-1
 91 0 l 1,1,-1
 137 218 l 1,2,-1
 295 359 l 1,3,-1
 476 0 l 1,4,-1
 550 0 l 1,5,-1
 345 398 l 1,6,-1
 687 710 l 1,7,-1
 612 710 l 1,8,-1
 153 294 l 1,9,-1
 242 709 l 1,10,-1
 175 709 l 1,11,-1
 24 0 l 1,0,-1
EndSplineSet
EndChar

StartChar: L
Encoding: 76 76 47
Width: 557
GlyphClass: 1
Flags: W
LayerCount: 2
Fore
SplineSet
24 0 m 1,0,-1
 481 0 l 1,1,-1
 493 60 l 1,2,-1
 104 60 l 1,3,-1
 242 710 l 1,4,-1
 175 710 l 1,5,-1
 24 0 l 1,0,-1
EndSplineSet
EndChar

StartChar: M
Encoding: 77 77 48
Width: 841
GlyphClass: 1
Flags: W
LayerCount: 2
Fore
SplineSet
24 0 m 1,0,-1
 91 0 l 1,1,-1
 216 588 l 1,2,-1
 365 132 l 1,3,-1
 404 132 l 1,4,-1
 747 588 l 1,5,-1
 622 0 l 1,6,-1
 688 0 l 1,7,-1
 839 710 l 1,8,-1
 771 710 l 1,9,-1
 403 221 l 1,10,-1
 244 710 l 1,11,-1
 175 710 l 1,12,-1
 24 0 l 1,0,-1
EndSplineSet
EndChar

StartChar: N
Encoding: 78 78 49
Width: 740
GlyphClass: 1
Flags: W
LayerCount: 2
Fore
SplineSet
24 0 m 1,0,-1
 91 0 l 1,1,-1
 215 585 l 1,2,-1
 531 0 l 1,3,-1
 588 0 l 1,4,-1
 739 709 l 1,5,-1
 672 709 l 1,6,-1
 546 114 l 1,7,-1
 227 710 l 1,8,-1
 175 710 l 1,9,-1
 24 0 l 1,0,-1
EndSplineSet
EndChar

StartChar: O
Encoding: 79 79 50
Width: 723
GlyphClass: 1
Flags: W
LayerCount: 2
Fore
SplineSet
298 -5 m 0,0,1
 377 -5 377 -5 449.5 30.5 c 128,-1,2
 522 66 522 66 577.5 125.5 c 128,-1,3
 633 185 633 185 665.5 262 c 128,-1,4
 698 339 698 339 698 421 c 0,5,6
 698 478 698 478 682.5 530.5 c 128,-1,7
 667 583 667 583 635.5 624 c 128,-1,8
 604 665 604 665 557 690 c 128,-1,9
 510 715 510 715 448 715 c 0,10,11
 369 715 369 715 296.5 679.5 c 128,-1,12
 224 644 224 644 168.5 584 c 128,-1,13
 113 524 113 524 80 447 c 128,-1,14
 47 370 47 370 47 287 c 0,15,16
 47 230 47 230 62.5 177.5 c 128,-1,17
 78 125 78 125 110 84.5 c 128,-1,18
 142 44 142 44 189 19.5 c 128,-1,19
 236 -5 236 -5 298 -5 c 0,0,1
311 56 m 0,20,21
 262 56 262 56 225 75 c 128,-1,22
 188 94 188 94 163.5 126.5 c 128,-1,23
 139 159 139 159 127 202 c 128,-1,24
 115 245 115 245 115 292 c 0,25,26
 115 358 115 358 139.5 423 c 128,-1,27
 164 488 164 488 207.5 539.5 c 128,-1,28
 251 591 251 591 309.5 622.5 c 128,-1,29
 368 654 368 654 434 654 c 0,30,31
 483 654 483 654 520 634.5 c 128,-1,32
 557 615 557 615 581.5 582.5 c 128,-1,33
 606 550 606 550 618 507 c 128,-1,34
 630 464 630 464 630 417 c 0,35,36
 630 351 630 351 605.5 286.5 c 128,-1,37
 581 222 581 222 538 171 c 128,-1,38
 495 120 495 120 437 88 c 128,-1,39
 379 56 379 56 311 56 c 0,20,21
EndSplineSet
Substitution2: "Single Substitution lookup 46 subtable" ordmasculine
Substitution2: "'aalt' Access All Alternates lookup 0 subtable" ordmasculine
EndChar

StartChar: P
Encoding: 80 80 51
Width: 599
GlyphClass: 1
Flags: W
LayerCount: 2
Fore
SplineSet
24 0 m 1,0,-1
 91 0 l 1,1,-1
 147 263 l 1,2,-1
 365 263 l 2,3,4
 416 263 416 263 460.5 286 c 128,-1,5
 505 309 505 309 539 346.5 c 128,-1,6
 573 384 573 384 593 431.5 c 128,-1,7
 613 479 613 479 613 526 c 0,8,9
 613 561 613 561 602 594.5 c 128,-1,10
 591 628 591 628 570.5 653.5 c 128,-1,11
 550 679 550 679 520.5 694.5 c 128,-1,12
 491 710 491 710 453 710 c 2,13,-1
 175 710 l 1,14,-1
 24 0 l 1,0,-1
160 323 m 1,15,-1
 229 650 l 1,16,-1
 438 650 l 2,17,18
 461 650 461 650 481 640 c 128,-1,19
 501 630 501 630 515 613 c 128,-1,20
 529 596 529 596 537 572 c 128,-1,21
 545 548 545 548 545 521 c 0,22,23
 545 485 545 485 531.5 449.5 c 128,-1,24
 518 414 518 414 495 385.5 c 128,-1,25
 472 357 472 357 440.5 340 c 128,-1,26
 409 323 409 323 375 323 c 2,27,-1
 160 323 l 1,15,-1
EndSplineSet
EndChar

StartChar: Q
Encoding: 81 81 52
Width: 723
GlyphClass: 1
Flags: W
LayerCount: 2
Fore
SplineSet
298 -5 m 0,0,1
 377 -5 377 -5 449.5 30.5 c 128,-1,2
 522 66 522 66 577.5 125.5 c 128,-1,3
 633 185 633 185 665.5 262 c 128,-1,4
 698 339 698 339 698 421 c 0,5,6
 698 478 698 478 682.5 530.5 c 128,-1,7
 667 583 667 583 635.5 624 c 128,-1,8
 604 665 604 665 557 690 c 128,-1,9
 510 715 510 715 448 715 c 0,10,11
 369 715 369 715 296.5 679.5 c 128,-1,12
 224 644 224 644 168.5 584 c 128,-1,13
 113 524 113 524 80 447 c 128,-1,14
 47 370 47 370 47 287 c 0,15,16
 47 230 47 230 62.5 177.5 c 128,-1,17
 78 125 78 125 110 84.5 c 128,-1,18
 142 44 142 44 189 19.5 c 128,-1,19
 236 -5 236 -5 298 -5 c 0,0,1
311 56 m 0,20,21
 262 56 262 56 225 75 c 128,-1,22
 188 94 188 94 163.5 126.5 c 128,-1,23
 139 159 139 159 127 202 c 128,-1,24
 115 245 115 245 115 292 c 0,25,26
 115 358 115 358 139.5 423 c 128,-1,27
 164 488 164 488 207.5 539.5 c 128,-1,28
 251 591 251 591 309.5 622.5 c 128,-1,29
 368 654 368 654 434 654 c 0,30,31
 483 654 483 654 520 634.5 c 128,-1,32
 557 615 557 615 581.5 582.5 c 128,-1,33
 606 550 606 550 618 507 c 128,-1,34
 630 464 630 464 630 417 c 0,35,36
 630 351 630 351 605.5 286.5 c 128,-1,37
 581 222 581 222 538 171 c 128,-1,38
 495 120 495 120 437 88 c 128,-1,39
 379 56 379 56 311 56 c 0,20,21
604 -9 m 1,40,-1
 652 32 l 1,41,-1
 420 308 l 1,42,-1
 372 267 l 1,43,-1
 604 -9 l 1,40,-1
EndSplineSet
EndChar

StartChar: R
Encoding: 82 82 53
Width: 627
GlyphClass: 1
Flags: W
LayerCount: 2
Fore
SplineSet
91 0 m 1,0,-1
 147 263 l 1,1,-1
 346 263 l 1,2,-1
 448 0 l 1,3,-1
 524 0 l 1,4,-1
 417 274 l 1,5,6
 459 282 459 282 495.5 306.5 c 128,-1,7
 532 331 532 331 559 365 c 128,-1,8
 586 399 586 399 602 440.5 c 128,-1,9
 618 482 618 482 618 526 c 0,10,11
 618 561 618 561 607.5 594.5 c 128,-1,12
 597 628 597 628 576.5 653.5 c 128,-1,13
 556 679 556 679 526.5 694.5 c 128,-1,14
 497 710 497 710 460 710 c 2,15,-1
 175 710 l 1,16,-1
 24 0 l 1,17,-1
 91 0 l 1,0,-1
160 323 m 1,18,-1
 229 650 l 1,19,-1
 444 650 l 2,20,21
 467 650 467 650 486.5 639.5 c 128,-1,22
 506 629 506 629 520 611 c 128,-1,23
 534 593 534 593 541.5 569 c 128,-1,24
 549 545 549 545 549 518 c 0,25,26
 549 483 549 483 535.5 448 c 128,-1,27
 522 413 522 413 499.5 385.5 c 128,-1,28
 477 358 477 358 446 340.5 c 128,-1,29
 415 323 415 323 381 323 c 2,30,-1
 160 323 l 1,18,-1
EndSplineSet
EndChar

StartChar: S
Encoding: 83 83 54
Width: 585
GlyphClass: 1
Flags: W
LayerCount: 2
Fore
SplineSet
243 -6 m 0,0,1
 302 -6 302 -6 354 7.5 c 128,-1,2
 406 21 406 21 445 49 c 128,-1,3
 484 77 484 77 506.5 119.5 c 128,-1,4
 529 162 529 162 529 220 c 0,5,6
 529 258 529 258 516 283.5 c 128,-1,7
 503 309 503 309 478 327.5 c 128,-1,8
 453 346 453 346 416.5 359.5 c 128,-1,9
 380 373 380 373 334 384 c 0,10,11
 293 394 293 394 262.5 404 c 128,-1,12
 232 414 232 414 212 426 c 128,-1,13
 192 438 192 438 182 455.5 c 128,-1,14
 172 473 172 473 172 498 c 0,15,16
 172 531 172 531 184.5 560 c 128,-1,17
 197 589 197 589 222 610 c 128,-1,18
 247 631 247 631 285 643 c 128,-1,19
 323 655 323 655 373 655 c 0,20,21
 403 655 403 655 429.5 649.5 c 128,-1,22
 456 644 456 644 477.5 634 c 128,-1,23
 499 624 499 624 515.5 610 c 128,-1,24
 532 596 532 596 543 579 c 1,25,-1
 586 633 l 1,26,27
 569 652 569 652 548.5 667.5 c 128,-1,28
 528 683 528 683 502.5 693.5 c 128,-1,29
 477 704 477 704 448 709.5 c 128,-1,30
 419 715 419 715 385 715 c 0,31,32
 325 715 325 715 272.5 698.5 c 128,-1,33
 220 682 220 682 181.5 651 c 128,-1,34
 143 620 143 620 121 576.5 c 128,-1,35
 99 533 99 533 99 478 c 0,36,37
 99 444 99 444 111 420 c 128,-1,38
 123 396 123 396 146.5 379.5 c 128,-1,39
 170 363 170 363 203.5 351 c 128,-1,40
 237 339 237 339 280 327 c 0,41,42
 322 317 322 317 355 306 c 128,-1,43
 388 295 388 295 410 281 c 128,-1,44
 432 267 432 267 444 247.5 c 128,-1,45
 456 228 456 228 456 200 c 0,46,47
 456 166 456 166 442 138.5 c 128,-1,48
 428 111 428 111 402 92 c 128,-1,49
 376 73 376 73 339.5 63.5 c 128,-1,50
 303 54 303 54 257 54 c 0,51,52
 217 54 217 54 183 62 c 128,-1,53
 149 70 149 70 121.5 83.5 c 128,-1,54
 94 97 94 97 72.5 114.5 c 128,-1,55
 51 132 51 132 36 152 c 1,56,-1
 -8 97 l 1,57,58
 15 72 15 72 42 52 c 128,-1,59
 69 32 69 32 100.5 19.5 c 128,-1,60
 132 7 132 7 167.5 0.5 c 128,-1,61
 203 -6 203 -6 243 -6 c 0,0,1
EndSplineSet
EndChar

StartChar: T
Encoding: 84 84 55
Width: 582
GlyphClass: 1
Flags: W
LayerCount: 2
Fore
SplineSet
192 0 m 1,0,-1
 258 0 l 1,1,-1
 397 650 l 1,2,-1
 637 650 l 1,3,-1
 649 710 l 1,4,-1
 103 710 l 1,5,-1
 90 650 l 1,6,-1
 330 650 l 1,7,-1
 192 0 l 1,0,-1
EndSplineSet
EndChar

StartChar: U
Encoding: 85 85 56
Width: 724
GlyphClass: 1
Flags: W
LayerCount: 2
Fore
SplineSet
298 -5 m 0,0,1
 376 -5 376 -5 436 24 c 128,-1,2
 496 53 496 53 540 102 c 128,-1,3
 584 151 584 151 613 215.5 c 128,-1,4
 642 280 642 280 657 352 c 2,5,-1
 733 710 l 1,6,-1
 666 710 l 1,7,-1
 591 352 l 2,8,9
 579 298 579 298 557.5 244.5 c 128,-1,10
 536 191 536 191 502 149.5 c 128,-1,11
 468 108 468 108 420.5 82 c 128,-1,12
 373 56 373 56 309 56 c 0,13,14
 262 56 262 56 230 70 c 128,-1,15
 198 84 198 84 178.5 109.5 c 128,-1,16
 159 135 159 135 151 168.5 c 128,-1,17
 143 202 143 202 143 241 c 0,18,19
 143 268 143 268 146.5 296 c 128,-1,20
 150 324 150 324 156 352 c 2,21,-1
 232 710 l 1,22,-1
 165 710 l 1,23,-1
 89 352 l 2,24,25
 82 321 82 321 78.5 290.5 c 128,-1,26
 75 260 75 260 75 230 c 0,27,28
 75 181 75 181 86.5 138 c 128,-1,29
 98 95 98 95 124.5 63.5 c 128,-1,30
 151 32 151 32 193.5 13.5 c 128,-1,31
 236 -5 236 -5 298 -5 c 0,0,1
EndSplineSet
EndChar

StartChar: V
Encoding: 86 86 57
Width: 648
GlyphClass: 1
Flags: W
LayerCount: 2
Fore
SplineSet
227 0 m 1,0,-1
 286 0 l 1,1,-1
 718 710 l 1,2,-1
 647 710 l 1,3,-1
 275 84 l 1,4,-1
 167 710 l 1,5,-1
 97 710 l 1,6,-1
 227 0 l 1,0,-1
EndSplineSet
EndChar

StartChar: W
Encoding: 87 87 58
Width: 1007
GlyphClass: 1
Flags: W
LayerCount: 2
Fore
SplineSet
165 0 m 1,0,-1
 235 0 l 1,1,-1
 559 601 l 1,2,-1
 634 0 l 1,3,-1
 704 0 l 1,4,-1
 1070 710 l 1,5,-1
 995 710 l 1,6,-1
 684 97 l 1,7,-1
 618 710 l 1,8,-1
 545 710 l 1,9,-1
 225 97 l 1,10,-1
 175 710 l 1,11,-1
 100 710 l 1,12,-1
 165 0 l 1,0,-1
EndSplineSet
Substitution2: "'ss09' Style Set 9 lookup 40 subtable" W.ss09
Substitution2: "'aalt' Access All Alternates lookup 0 subtable" W.ss09
EndChar

StartChar: X
Encoding: 88 88 59
Width: 603
GlyphClass: 1
Flags: W
LayerCount: 2
Fore
SplineSet
-50 0 m 1,0,-1
 25 0 l 1,1,-1
 302 302 l 1,2,-1
 451 0 l 1,3,-1
 525 0 l 1,4,-1
 348 350 l 1,5,-1
 684 710 l 1,6,-1
 610 710 l 1,7,-1
 323 398 l 1,8,-1
 168 710 l 1,9,-1
 93 710 l 1,10,-1
 275 350 l 1,11,-1
 -50 0 l 1,0,-1
EndSplineSet
EndChar

StartChar: Y
Encoding: 89 89 60
Width: 606
GlyphClass: 1
Flags: W
LayerCount: 2
Fore
SplineSet
201 0 m 1,0,-1
 267 0 l 1,1,-1
 324 264 l 1,2,-1
 680 710 l 1,3,-1
 607 710 l 1,4,-1
 304 326 l 1,5,-1
 165 710 l 1,6,-1
 92 710 l 1,7,-1
 258 266 l 1,8,-1
 201 0 l 1,0,-1
EndSplineSet
EndChar

StartChar: Z
Encoding: 90 90 61
Width: 596
GlyphClass: 1
Flags: W
LayerCount: 2
Fore
SplineSet
-36 0 m 1,0,-1
 499 0 l 1,1,-1
 512 60 l 1,2,-1
 60 60 l 1,3,-1
 640 657 l 1,4,-1
 651 710 l 1,5,-1
 123 710 l 1,6,-1
 110 650 l 1,7,-1
 560 650 l 1,8,-1
 -25 53 l 1,9,-1
 -36 0 l 1,0,-1
EndSplineSet
EndChar

StartChar: bracketleft
Encoding: 91 91 62
Width: 249
GlyphClass: 1
Flags: W
LayerCount: 2
Fore
SplineSet
129 -40 m 1,0,-1
 140 15 l 1,1,-1
 87 15 l 1,2,-1
 229 685 l 1,3,-1
 283 685 l 1,4,-1
 294 740 l 1,5,-1
 180 740 l 1,6,-1
 14 -40 l 1,7,-1
 129 -40 l 1,0,-1
EndSplineSet
EndChar

StartChar: backslash
Encoding: 92 92 63
Width: 531
GlyphClass: 1
Flags: W
LayerCount: 2
Fore
SplineSet
107 710 m 1,0,-1
 370 0 l 1,1,-1
 443 0 l 1,2,-1
 181 710 l 1,3,-1
 107 710 l 1,0,-1
EndSplineSet
EndChar

StartChar: bracketright
Encoding: 93 93 64
Width: 248
GlyphClass: 1
Flags: W
LayerCount: 2
Fore
SplineSet
90 -40 m 1,0,-1
 255 740 l 1,1,-1
 141 740 l 1,2,-1
 129 685 l 1,3,-1
 182 685 l 1,4,-1
 40 15 l 1,5,-1
 -13 15 l 1,6,-1
 -25 -40 l 1,7,-1
 90 -40 l 1,0,-1
EndSplineSet
EndChar

StartChar: asciicircum
Encoding: 94 94 65
Width: 539
GlyphClass: 1
Flags: W
LayerCount: 2
Fore
SplineSet
108 303 m 1,0,-1
 278 648 l 1,1,-1
 445 303 l 1,2,-1
 503 303 l 1,3,-1
 306 710 l 1,4,-1
 250 710 l 1,5,-1
 52 303 l 1,6,-1
 108 303 l 1,0,-1
EndSplineSet
EndChar

StartChar: underscore
Encoding: 95 95 66
Width: 493
GlyphClass: 1
Flags: W
LayerCount: 2
Fore
SplineSet
349 -60 m 1,0,-1
 362 0 l 1,1,-1
 0 0 l 1,2,-1
 -13 -60 l 1,3,-1
 349 -60 l 1,0,-1
EndSplineSet
EndChar

StartChar: a
Encoding: 97 97 68
Width: 595
GlyphClass: 1
Flags: W
LayerCount: 2
Fore
SplineSet
209 -10 m 0,0,1
 270 -10 270 -10 323 21.5 c 128,-1,2
 376 53 376 53 415 106 c 1,3,-1
 392 0 l 1,4,-1
 458 0 l 1,5,-1
 568 517 l 1,6,-1
 502 517 l 1,7,-1
 479 410 l 1,8,9
 463 463 463 463 422 496.5 c 128,-1,10
 381 530 381 530 319 530 c 0,11,12
 264 530 264 530 210.5 503.5 c 128,-1,13
 157 477 157 477 116 432 c 128,-1,14
 75 387 75 387 50 329 c 128,-1,15
 25 271 25 271 25 207 c 0,16,17
 25 163 25 163 37.5 123.5 c 128,-1,18
 50 84 50 84 73.5 54.5 c 128,-1,19
 97 25 97 25 131 7.5 c 128,-1,20
 165 -10 165 -10 209 -10 c 0,0,1
236 47 m 0,21,22
 202 47 202 47 176 60.5 c 128,-1,23
 150 74 150 74 131.5 97 c 128,-1,24
 113 120 113 120 103 151 c 128,-1,25
 93 182 93 182 93 217 c 0,26,27
 93 262 93 262 112 307 c 128,-1,28
 131 352 131 352 162.5 389 c 128,-1,29
 194 426 194 426 236 449 c 128,-1,30
 278 472 278 472 323 472 c 0,31,32
 352 472 352 472 376 462 c 128,-1,33
 400 452 400 452 418 434 c 128,-1,34
 436 416 436 416 448 391 c 128,-1,35
 460 366 460 366 464 337 c 1,36,-1
 430 177 l 1,37,38
 414 150 414 150 392.5 126.5 c 128,-1,39
 371 103 371 103 346 85.5 c 128,-1,40
 321 68 321 68 293 57.5 c 128,-1,41
 265 47 265 47 236 47 c 0,21,22
EndSplineSet
Substitution2: "Single Substitution lookup 46 subtable" ordfeminine
Substitution2: "'ss02' Style Set 2 lookup 33 subtable" a.ss02
Substitution2: "'ss01' Style Set 1 lookup 32 subtable" a.ss01
Substitution2: "'salt' Stylistic Alternatives lookup 31 subtable" a.ss01
AlternateSubs2: "'aalt' Access All Alternates lookup 1 subtable" ordfeminine a.ss01 a.ss02
EndChar

StartChar: b
Encoding: 98 98 69
Width: 591
GlyphClass: 1
Flags: W
LayerCount: 2
Fore
SplineSet
252 -10 m 0,0,1
 308 -10 308 -10 361.5 16.5 c 128,-1,2
 415 43 415 43 457 88 c 128,-1,3
 499 133 499 133 524.5 192 c 128,-1,4
 550 251 550 251 550 316 c 0,5,6
 550 357 550 357 539 395.5 c 128,-1,7
 528 434 528 434 505.5 464 c 128,-1,8
 483 494 483 494 450.5 512 c 128,-1,9
 418 530 418 530 374 530 c 0,10,11
 314 530 314 530 260.5 497 c 128,-1,12
 207 464 207 464 162 411 c 1,13,-1
 229 730 l 1,14,-1
 164 730 l 1,15,-1
 9 0 l 1,16,-1
 68 0 l 1,17,-1
 89 101 l 1,18,19
 98 78 98 78 112.5 57.5 c 128,-1,20
 127 37 127 37 147.5 22 c 128,-1,21
 168 7 168 7 194.5 -1.5 c 128,-1,22
 221 -10 221 -10 252 -10 c 0,0,1
251 47 m 0,23,24
 223 47 223 47 198.5 56 c 128,-1,25
 174 65 174 65 155 81.5 c 128,-1,26
 136 98 136 98 124 120 c 128,-1,27
 112 142 112 142 111 168 c 1,28,-1
 147 344 l 1,29,30
 166 370 166 370 188.5 393 c 128,-1,31
 211 416 211 416 236 433.5 c 128,-1,32
 261 451 261 451 288 461.5 c 128,-1,33
 315 472 315 472 343 472 c 0,34,35
 377 472 377 472 402 458.5 c 128,-1,36
 427 445 427 445 445 421.5 c 128,-1,37
 463 398 463 398 472 368 c 128,-1,38
 481 338 481 338 481 305 c 0,39,40
 481 256 481 256 461.5 210 c 128,-1,41
 442 164 442 164 410 127.5 c 128,-1,42
 378 91 378 91 336.5 69 c 128,-1,43
 295 47 295 47 251 47 c 0,23,24
EndSplineSet
EndChar

StartChar: c
Encoding: 99 99 70
Width: 525
GlyphClass: 1
Flags: W
LayerCount: 2
Fore
SplineSet
224 -10 m 0,0,1
 260 -10 260 -10 294.5 0 c 128,-1,2
 329 10 329 10 359.5 26.5 c 128,-1,3
 390 43 390 43 415 67 c 128,-1,4
 440 91 440 91 456 118 c 1,5,-1
 396 138 l 1,6,7
 386 120 386 120 368.5 103.5 c 128,-1,8
 351 87 351 87 329 74.5 c 128,-1,9
 307 62 307 62 281.5 54.5 c 128,-1,10
 256 47 256 47 233 47 c 0,11,12
 202 47 202 47 175.5 60 c 128,-1,13
 149 73 149 73 131 96.5 c 128,-1,14
 113 120 113 120 102.5 151.5 c 128,-1,15
 92 183 92 183 92 219 c 0,16,17
 92 271 92 271 112 317 c 128,-1,18
 132 363 132 363 165 397.5 c 128,-1,19
 198 432 198 432 240 452 c 128,-1,20
 282 472 282 472 326 472 c 0,21,22
 371 472 371 472 401.5 449.5 c 128,-1,23
 432 427 432 427 444 386 c 1,24,-1
 512 406 l 1,25,26
 498 463 498 463 453 496.5 c 128,-1,27
 408 530 408 530 335 530 c 0,28,29
 271 530 271 530 214.5 503.5 c 128,-1,30
 158 477 158 477 116 433 c 128,-1,31
 74 389 74 389 49.5 331.5 c 128,-1,32
 25 274 25 274 25 211 c 0,33,34
 25 165 25 165 38.5 125 c 128,-1,35
 52 85 52 85 77.5 55 c 128,-1,36
 103 25 103 25 140.5 7.5 c 128,-1,37
 178 -10 178 -10 224 -10 c 0,0,1
EndSplineSet
EndChar

StartChar: d
Encoding: 100 100 71
Width: 592
GlyphClass: 1
Flags: W
LayerCount: 2
Fore
SplineSet
211 -10 m 0,0,1
 239 -10 239 -10 266 -2.5 c 128,-1,2
 293 5 293 5 319 19.5 c 128,-1,3
 345 34 345 34 368 53.5 c 128,-1,4
 391 73 391 73 410 97 c 1,5,-1
 390 0 l 1,6,-1
 455 0 l 1,7,-1
 610 730 l 1,8,-1
 545 730 l 1,9,-1
 477 411 l 1,10,11
 467 436 467 436 452 457.5 c 128,-1,12
 437 479 437 479 417 495 c 128,-1,13
 397 511 397 511 371.5 520.5 c 128,-1,14
 346 530 346 530 314 530 c 0,15,16
 258 530 258 530 206 503 c 128,-1,17
 154 476 154 476 113.5 431 c 128,-1,18
 73 386 73 386 49 328 c 128,-1,19
 25 270 25 270 25 208 c 0,20,21
 25 165 25 165 37.5 125.5 c 128,-1,22
 50 86 50 86 74 56 c 128,-1,23
 98 26 98 26 132.5 8 c 128,-1,24
 167 -10 167 -10 211 -10 c 0,0,1
237 47 m 0,25,26
 204 47 204 47 177.5 60.5 c 128,-1,27
 151 74 151 74 132.5 97.5 c 128,-1,28
 114 121 114 121 104 152 c 128,-1,29
 94 183 94 183 94 218 c 0,30,31
 94 264 94 264 112 309.5 c 128,-1,32
 130 355 130 355 160.5 391 c 128,-1,33
 191 427 191 427 232.5 449.5 c 128,-1,34
 274 472 274 472 320 472 c 0,35,36
 345 472 345 472 369.5 462 c 128,-1,37
 394 452 394 452 413.5 434 c 128,-1,38
 433 416 433 416 446 392 c 128,-1,39
 459 368 459 368 462 341 c 1,40,-1
 428 178 l 2,41,42
 420 152 420 152 398 128 c 128,-1,43
 376 104 376 104 348.5 86 c 128,-1,44
 321 68 321 68 291.5 57.5 c 128,-1,45
 262 47 262 47 237 47 c 0,25,26
EndSplineSet
Substitution2: "'ss03' Style Set 3 lookup 34 subtable" d.ss03
Substitution2: "'aalt' Access All Alternates lookup 0 subtable" d.ss03
EndChar

StartChar: e
Encoding: 101 101 72
Width: 533
GlyphClass: 1
Flags: W
LayerCount: 2
Fore
SplineSet
225 -10 m 0,0,1
 261 -10 261 -10 296 0 c 128,-1,2
 331 10 331 10 362 27 c 128,-1,3
 393 44 393 44 419 68.5 c 128,-1,4
 445 93 445 93 463 122 c 1,5,-1
 409 138 l 1,6,7
 396 116 396 116 376.5 98 c 128,-1,8
 357 80 357 80 334 67 c 128,-1,9
 311 54 311 54 286 47.5 c 128,-1,10
 261 41 261 41 237 41 c 0,11,12
 201 41 201 41 173.5 54.5 c 128,-1,13
 146 68 146 68 128 91.5 c 128,-1,14
 110 115 110 115 101 146 c 128,-1,15
 92 177 92 177 92 211 c 0,16,17
 92 256 92 256 108 303.5 c 128,-1,18
 124 351 124 351 154.5 390 c 128,-1,19
 185 429 185 429 229.5 454 c 128,-1,20
 274 479 274 479 331 479 c 0,21,22
 354 479 354 479 374.5 474 c 128,-1,23
 395 469 395 469 410.5 458 c 128,-1,24
 426 447 426 447 435 430.5 c 128,-1,25
 444 414 444 414 444 391 c 0,26,27
 444 367 444 367 433 347.5 c 128,-1,28
 422 328 422 328 396.5 313.5 c 128,-1,29
 371 299 371 299 330.5 291 c 128,-1,30
 290 283 290 283 230 283 c 0,31,32
 200 283 200 283 167.5 284.5 c 128,-1,33
 135 286 135 286 96 289 c 1,34,-1
 74 242 l 1,35,36
 119 238 119 238 156.5 236.5 c 128,-1,37
 194 235 194 235 227 235 c 0,38,39
 368 235 368 235 436 274 c 128,-1,40
 504 313 504 313 504 390 c 0,41,42
 504 425 504 425 490.5 451 c 128,-1,43
 477 477 477 477 454.5 494.5 c 128,-1,44
 432 512 432 512 401.5 521 c 128,-1,45
 371 530 371 530 337 530 c 0,46,47
 270 530 270 530 213 503 c 128,-1,48
 156 476 156 476 114.5 431.5 c 128,-1,49
 73 387 73 387 49.5 329.5 c 128,-1,50
 26 272 26 272 26 211 c 0,51,52
 26 165 26 165 39 124.5 c 128,-1,53
 52 84 52 84 78 54 c 128,-1,54
 104 24 104 24 141 7 c 128,-1,55
 178 -10 178 -10 225 -10 c 0,0,1
EndSplineSet
EndChar

StartChar: f
Encoding: 102 102 73
Width: 320
GlyphClass: 1
Flags: W
LayerCount: 2
Fore
SplineSet
-14 -212 m 1,0,-1
 51 -212 l 1,1,-1
 196 468 l 1,2,-1
 332 468 l 1,3,-1
 343 521 l 1,4,-1
 207 521 l 1,5,-1
 211 537 l 2,6,7
 226 609 226 609 257.5 646.5 c 128,-1,8
 289 684 289 684 335 684 c 0,9,10
 354 684 354 684 372.5 677.5 c 128,-1,11
 391 671 391 671 401 660 c 1,12,-1
 431 707 l 1,13,14
 414 722 414 722 388.5 731 c 128,-1,15
 363 740 363 740 334 740 c 0,16,17
 301 740 301 740 270.5 726 c 128,-1,18
 240 712 240 712 215 685.5 c 128,-1,19
 190 659 190 659 172 621 c 128,-1,20
 154 583 154 583 145 535 c 2,21,-1
 142 521 l 1,22,-1
 73 521 l 1,23,-1
 62 468 l 1,24,-1
 130 468 l 1,25,-1
 -14 -212 l 1,0,-1
EndSplineSet
EndChar

StartChar: g
Encoding: 103 103 74
Width: 591
GlyphClass: 1
Flags: W
LayerCount: 2
Fore
SplineSet
165 -223 m 0,0,1
 214 -223 214 -223 261.5 -209 c 128,-1,2
 309 -195 309 -195 347.5 -167.5 c 128,-1,3
 386 -140 386 -140 414 -99 c 128,-1,4
 442 -58 442 -58 453 -3 c 2,5,-1
 565 521 l 1,6,-1
 507 521 l 1,7,-1
 483 411 l 1,8,9
 473 436 473 436 457.5 458 c 128,-1,10
 442 480 442 480 422 496 c 128,-1,11
 402 512 402 512 376 521 c 128,-1,12
 350 530 350 530 319 530 c 0,13,14
 260 530 260 530 206.5 502.5 c 128,-1,15
 153 475 153 475 113 430 c 128,-1,16
 73 385 73 385 49 327.5 c 128,-1,17
 25 270 25 270 25 208 c 0,18,19
 25 165 25 165 37 126.5 c 128,-1,20
 49 88 49 88 72.5 58 c 128,-1,21
 96 28 96 28 129.5 10.5 c 128,-1,22
 163 -7 163 -7 206 -7 c 0,23,24
 233 -7 233 -7 261 0.5 c 128,-1,25
 289 8 289 8 315.5 22.5 c 128,-1,26
 342 37 342 37 366.5 57 c 128,-1,27
 391 77 391 77 410 101 c 1,28,-1
 388 -3 l 2,29,30
 379 -46 379 -46 358 -77 c 128,-1,31
 337 -108 337 -108 308.5 -129 c 128,-1,32
 280 -150 280 -150 246 -160.5 c 128,-1,33
 212 -171 212 -171 175 -171 c 0,34,35
 119 -171 119 -171 76 -147 c 128,-1,36
 33 -123 33 -123 14 -73 c 1,37,-1
 -33 -105 l 1,38,39
 -22 -132 -22 -132 -5.5 -153.5 c 128,-1,40
 11 -175 11 -175 34 -190.5 c 128,-1,41
 57 -206 57 -206 89.5 -214.5 c 128,-1,42
 122 -223 122 -223 165 -223 c 0,0,1
236 47 m 0,43,44
 203 47 203 47 176.5 61 c 128,-1,45
 150 75 150 75 131.5 98 c 128,-1,46
 113 121 113 121 102.5 152 c 128,-1,47
 92 183 92 183 92 218 c 0,48,49
 92 262 92 262 109.5 307 c 128,-1,50
 127 352 127 352 157.5 388.5 c 128,-1,51
 188 425 188 425 229.5 448.5 c 128,-1,52
 271 472 271 472 319 472 c 0,53,54
 345 472 345 472 369.5 462.5 c 128,-1,55
 394 453 394 453 412.5 435 c 128,-1,56
 431 417 431 417 444 393.5 c 128,-1,57
 457 370 457 370 462 341 c 1,58,-1
 427 178 l 2,59,60
 418 154 418 154 397.5 131 c 128,-1,61
 377 108 377 108 351 89 c 128,-1,62
 325 70 325 70 295 58.5 c 128,-1,63
 265 47 265 47 236 47 c 0,43,44
EndSplineSet
EndChar

StartChar: h
Encoding: 104 104 75
Width: 558
GlyphClass: 1
Flags: W
LayerCount: 2
Fore
SplineSet
9 0 m 1,0,-1
 74 0 l 1,1,-1
 142 319 l 1,2,3
 158 352 158 352 181.5 379.5 c 128,-1,4
 205 407 205 407 233 427 c 128,-1,5
 261 447 261 447 290 458.5 c 128,-1,6
 319 470 319 470 347 470 c 0,7,8
 389 470 389 470 410.5 444.5 c 128,-1,9
 432 419 432 419 432 368 c 0,10,11
 432 351 432 351 429.5 332 c 128,-1,12
 427 313 427 313 423 291 c 2,13,-1
 361 0 l 1,14,-1
 426 0 l 1,15,-1
 491 304 l 2,16,17
 496 330 496 330 498.5 353 c 128,-1,18
 501 376 501 376 501 397 c 0,19,20
 501 428 501 428 494.5 452.5 c 128,-1,21
 488 477 488 477 473.5 494 c 128,-1,22
 459 511 459 511 436.5 520.5 c 128,-1,23
 414 530 414 530 382 530 c 0,24,25
 351 530 351 530 320.5 521 c 128,-1,26
 290 512 290 512 261.5 495.5 c 128,-1,27
 233 479 233 479 207 455 c 128,-1,28
 181 431 181 431 160 402 c 1,29,-1
 229 730 l 1,30,-1
 164 730 l 1,31,-1
 9 0 l 1,0,-1
EndSplineSet
EndChar

StartChar: k
Encoding: 107 107 78
Width: 535
GlyphClass: 1
Flags: W
LayerCount: 2
Fore
SplineSet
370 0 m 1,0,-1
 442 0 l 1,1,-1
 325 227 l 1,2,3
 415 256 415 256 463.5 308.5 c 128,-1,4
 512 361 512 361 512 426 c 0,5,6
 512 475 512 475 484.5 503 c 128,-1,7
 457 531 457 531 401 531 c 0,8,9
 364 531 364 531 328.5 517.5 c 128,-1,10
 293 504 293 504 260 480.5 c 128,-1,11
 227 457 227 457 197 424 c 128,-1,12
 167 391 167 391 140 352 c 1,13,-1
 120 245 l 1,14,15
 146 297 146 297 177.5 340 c 128,-1,16
 209 383 209 383 243.5 413.5 c 128,-1,17
 278 444 278 444 314 460.5 c 128,-1,18
 350 477 350 477 385 477 c 0,19,20
 416 477 416 477 434 462.5 c 128,-1,21
 452 448 452 448 452 417 c 0,22,23
 452 365 452 365 399.5 320.5 c 128,-1,24
 347 276 347 276 246 255 c 1,25,-1
 370 0 l 1,0,-1
9 0 m 1,26,-1
 74 0 l 1,27,-1
 229 730 l 1,28,-1
 164 730 l 1,29,-1
 9 0 l 1,26,-1
EndSplineSet
EndChar

StartChar: l
Encoding: 108 108 79
Width: 261
GlyphClass: 1
Flags: W
LayerCount: 2
Fore
SplineSet
107 -6 m 0,0,1
 127 -6 127 -6 153.5 -1 c 128,-1,2
 180 4 180 4 200 12 c 1,3,-1
 201 64 l 1,4,5
 188 60 188 60 173 56.5 c 128,-1,6
 158 53 158 53 147 53 c 0,7,8
 124 53 124 53 111.5 65 c 128,-1,9
 99 77 99 77 99 98 c 0,10,11
 99 102 99 102 99.5 106.5 c 128,-1,12
 100 111 100 111 101 116 c 2,13,-1
 232 730 l 1,14,-1
 167 730 l 1,15,-1
 32 94 l 2,16,17
 30 87 30 87 29.5 80 c 128,-1,18
 29 73 29 73 29 66 c 0,19,20
 29 32 29 32 49 13 c 128,-1,21
 69 -6 69 -6 107 -6 c 0,0,1
EndSplineSet
Substitution2: "'ss05' Style Set 5 lookup 36 subtable" l.ss05
Substitution2: "'aalt' Access All Alternates lookup 0 subtable" l.ss05
EndChar

StartChar: m
Encoding: 109 109 80
Width: 877
GlyphClass: 1
Flags: W
LayerCount: 2
Fore
SplineSet
9 0 m 1,0,-1
 74 0 l 1,1,-1
 142 319 l 1,2,3
 159 353 159 353 181 381 c 128,-1,4
 203 409 203 409 228 428.5 c 128,-1,5
 253 448 253 448 281 459 c 128,-1,6
 309 470 309 470 337 470 c 0,7,8
 377 470 377 470 397 447 c 128,-1,9
 417 424 417 424 417 375 c 0,10,11
 417 357 417 357 414.5 336.5 c 128,-1,12
 412 316 412 316 406 291 c 2,13,-1
 345 0 l 1,14,-1
 410 0 l 1,15,-1
 477 318 l 1,16,17
 493 352 493 352 515 380 c 128,-1,18
 537 408 537 408 562.5 428 c 128,-1,19
 588 448 588 448 615.5 459 c 128,-1,20
 643 470 643 470 671 470 c 0,21,22
 711 470 711 470 731.5 446.5 c 128,-1,23
 752 423 752 423 752 373 c 0,24,25
 752 356 752 356 749.5 335.5 c 128,-1,26
 747 315 747 315 742 291 c 2,27,-1
 680 0 l 1,28,-1
 746 0 l 1,29,-1
 811 304 l 2,30,31
 816 331 816 331 819 355.5 c 128,-1,32
 822 380 822 380 822 401 c 0,33,34
 822 432 822 432 816 455.5 c 128,-1,35
 810 479 810 479 796 495.5 c 128,-1,36
 782 512 782 512 760 521 c 128,-1,37
 738 530 738 530 707 530 c 0,38,39
 677 530 677 530 647 521 c 128,-1,40
 617 512 617 512 588.5 495 c 128,-1,41
 560 478 560 478 534.5 452 c 128,-1,42
 509 426 509 426 488 393 c 1,43,44
 488 425 488 425 480.5 450.5 c 128,-1,45
 473 476 473 476 457.5 493.5 c 128,-1,46
 442 511 442 511 419.5 520.5 c 128,-1,47
 397 530 397 530 368 530 c 0,48,49
 310 530 310 530 253.5 496 c 128,-1,50
 197 462 197 462 154 402 c 1,51,-1
 180 521 l 1,52,-1
 120 521 l 1,53,-1
 9 0 l 1,0,-1
EndSplineSet
EndChar

StartChar: n
Encoding: 110 110 81
Width: 558
GlyphClass: 1
Flags: W
LayerCount: 2
Fore
SplineSet
9 0 m 1,0,-1
 74 0 l 1,1,-1
 142 319 l 1,2,3
 158 352 158 352 182.5 379.5 c 128,-1,4
 207 407 207 407 236 427 c 128,-1,5
 265 447 265 447 295.5 458.5 c 128,-1,6
 326 470 326 470 355 470 c 0,7,8
 394 470 394 470 413.5 447.5 c 128,-1,9
 433 425 433 425 433 377 c 0,10,11
 433 359 433 359 430.5 337.5 c 128,-1,12
 428 316 428 316 423 291 c 2,13,-1
 361 0 l 1,14,-1
 426 0 l 1,15,-1
 491 304 l 2,16,17
 496 332 496 332 499.5 357.5 c 128,-1,18
 503 383 503 383 503 406 c 0,19,20
 503 435 503 435 497 458 c 128,-1,21
 491 481 491 481 477.5 497 c 128,-1,22
 464 513 464 513 442.5 521.5 c 128,-1,23
 421 530 421 530 391 530 c 0,24,25
 358 530 358 530 324.5 520.5 c 128,-1,26
 291 511 291 511 260.5 494.5 c 128,-1,27
 230 478 230 478 202.5 454 c 128,-1,28
 175 430 175 430 154 402 c 1,29,-1
 180 521 l 1,30,-1
 120 521 l 1,31,-1
 9 0 l 1,0,-1
EndSplineSet
EndChar

StartChar: o
Encoding: 111 111 82
Width: 572
GlyphClass: 1
Flags: W
LayerCount: 2
Fore
SplineSet
226 -10 m 0,0,1
 287 -10 287 -10 342.5 15.5 c 128,-1,2
 398 41 398 41 439.5 84.5 c 128,-1,3
 481 128 481 128 505.5 186 c 128,-1,4
 530 244 530 244 530 310 c 0,5,6
 530 356 530 356 517.5 395.5 c 128,-1,7
 505 435 505 435 480 465 c 128,-1,8
 455 495 455 495 417 512.5 c 128,-1,9
 379 530 379 530 328 530 c 0,10,11
 268 530 268 530 213 504.5 c 128,-1,12
 158 479 158 479 116 435 c 128,-1,13
 74 391 74 391 49.5 333 c 128,-1,14
 25 275 25 275 25 208 c 0,15,16
 25 164 25 164 37 124 c 128,-1,17
 49 84 49 84 74 54.5 c 128,-1,18
 99 25 99 25 137 7.5 c 128,-1,19
 175 -10 175 -10 226 -10 c 0,0,1
237 47 m 0,20,21
 201 47 201 47 174 60 c 128,-1,22
 147 73 147 73 128.5 96 c 128,-1,23
 110 119 110 119 101 150 c 128,-1,24
 92 181 92 181 92 217 c 0,25,26
 92 272 92 272 111 318.5 c 128,-1,27
 130 365 130 365 161.5 399.5 c 128,-1,28
 193 434 193 434 233.5 453 c 128,-1,29
 274 472 274 472 318 472 c 0,30,31
 353 472 353 472 380.5 459 c 128,-1,32
 408 446 408 446 426 422.5 c 128,-1,33
 444 399 444 399 453 367.5 c 128,-1,34
 462 336 462 336 462 300 c 0,35,36
 462 246 462 246 443 199.5 c 128,-1,37
 424 153 424 153 392.5 119.5 c 128,-1,38
 361 86 361 86 320.5 66.5 c 128,-1,39
 280 47 280 47 237 47 c 0,20,21
EndSplineSet
Substitution2: "Single Substitution lookup 46 subtable" ordmasculine
Substitution2: "'aalt' Access All Alternates lookup 0 subtable" ordmasculine
EndChar

StartChar: p
Encoding: 112 112 83
Width: 592
GlyphClass: 1
Flags: W
LayerCount: 2
Fore
SplineSet
-36 -213 m 1,0,-1
 29 -213 l 1,1,-1
 98 108 l 1,2,3
 107 84 107 84 121.5 62 c 128,-1,4
 136 40 136 40 157 24 c 128,-1,5
 178 8 178 8 204 -1 c 128,-1,6
 230 -10 230 -10 261 -10 c 0,7,8
 319 -10 319 -10 371.5 17 c 128,-1,9
 424 44 424 44 463.5 89 c 128,-1,10
 503 134 503 134 526 192 c 128,-1,11
 549 250 549 250 549 311 c 0,12,13
 549 354 549 354 536.5 393.5 c 128,-1,14
 524 433 524 433 500 463.5 c 128,-1,15
 476 494 476 494 442 512 c 128,-1,16
 408 530 408 530 365 530 c 0,17,18
 337 530 337 530 308 522 c 128,-1,19
 279 514 279 514 252.5 499 c 128,-1,20
 226 484 226 484 201.5 464 c 128,-1,21
 177 444 177 444 157 419 c 1,22,-1
 178 521 l 1,23,-1
 120 521 l 1,24,-1
 -36 -213 l 1,0,-1
255 47 m 0,25,26
 227 47 227 47 203.5 57.5 c 128,-1,27
 180 68 180 68 161.5 85.5 c 128,-1,28
 143 103 143 103 130.5 127.5 c 128,-1,29
 118 152 118 152 112 180 c 1,30,-1
 147 341 l 1,31,32
 157 368 157 368 178.5 392 c 128,-1,33
 200 416 200 416 227 433.5 c 128,-1,34
 254 451 254 451 283.5 461.5 c 128,-1,35
 313 472 313 472 337 472 c 0,36,37
 370 472 370 472 396.5 458.5 c 128,-1,38
 423 445 423 445 442 421.5 c 128,-1,39
 461 398 461 398 471 367 c 128,-1,40
 481 336 481 336 481 301 c 0,41,42
 481 255 481 255 463 210 c 128,-1,43
 445 165 445 165 414 128.5 c 128,-1,44
 383 92 383 92 342 69.5 c 128,-1,45
 301 47 301 47 255 47 c 0,25,26
EndSplineSet
EndChar

StartChar: q
Encoding: 113 113 84
Width: 591
GlyphClass: 1
Flags: W
LayerCount: 2
Fore
SplineSet
344 -213 m 1,0,-1
 409 -213 l 1,1,-1
 565 521 l 1,2,-1
 506 521 l 1,3,-1
 485 418 l 1,4,5
 476 443 476 443 460.5 463 c 128,-1,6
 445 483 445 483 424.5 498 c 128,-1,7
 404 513 404 513 378.5 521.5 c 128,-1,8
 353 530 353 530 324 530 c 0,9,10
 267 530 267 530 213.5 503 c 128,-1,11
 160 476 160 476 118 431 c 128,-1,12
 76 386 76 386 50 327 c 128,-1,13
 24 268 24 268 24 204 c 0,14,15
 24 161 24 161 35.5 122 c 128,-1,16
 47 83 47 83 69.5 54 c 128,-1,17
 92 25 92 25 124.5 7.5 c 128,-1,18
 157 -10 157 -10 199 -10 c 0,19,20
 256 -10 256 -10 310 20 c 128,-1,21
 364 50 364 50 412 108 c 1,22,-1
 344 -213 l 1,0,-1
231 47 m 0,23,24
 198 47 198 47 172.5 60.5 c 128,-1,25
 147 74 147 74 129 96.5 c 128,-1,26
 111 119 111 119 101.5 150 c 128,-1,27
 92 181 92 181 92 215 c 0,28,29
 92 262 92 262 111.5 308 c 128,-1,30
 131 354 131 354 163.5 390.5 c 128,-1,31
 196 427 196 427 238 449.5 c 128,-1,32
 280 472 280 472 326 472 c 0,33,34
 354 472 354 472 378 461 c 128,-1,35
 402 450 402 450 420.5 432 c 128,-1,36
 439 414 439 414 450 390.5 c 128,-1,37
 461 367 461 367 462 340 c 1,38,-1
 426 172 l 1,39,40
 408 147 408 147 386 124.5 c 128,-1,41
 364 102 364 102 339.5 85 c 128,-1,42
 315 68 315 68 287.5 57.5 c 128,-1,43
 260 47 260 47 231 47 c 0,23,24
EndSplineSet
Substitution2: "'ss06' Style Set 6 lookup 37 subtable" q.ss06
Substitution2: "'aalt' Access All Alternates lookup 0 subtable" q.ss06
EndChar

StartChar: r
Encoding: 114 114 85
Width: 342
GlyphClass: 1
Flags: W
LayerCount: 2
Fore
SplineSet
9 0 m 1,0,-1
 74 0 l 1,1,-1
 143 324 l 1,2,3
 176 388 176 388 232.5 424.5 c 128,-1,4
 289 461 289 461 355 463 c 1,5,-1
 367 520 l 1,6,7
 362 521 362 521 356.5 521.5 c 128,-1,8
 351 522 351 522 343 521 c 0,9,10
 293 520 293 520 243 486 c 128,-1,11
 193 452 193 452 154 396 c 1,12,-1
 181 521 l 1,13,-1
 120 521 l 1,14,-1
 9 0 l 1,0,-1
EndSplineSet
EndChar

StartChar: s
Encoding: 115 115 86
Width: 467
GlyphClass: 1
Flags: W
LayerCount: 2
Fore
SplineSet
174 -10 m 0,0,1
 225 -10 225 -10 267 2.5 c 128,-1,2
 309 15 309 15 338.5 38 c 128,-1,3
 368 61 368 61 384.5 93 c 128,-1,4
 401 125 401 125 401 163 c 0,5,6
 401 191 401 191 390 210.5 c 128,-1,7
 379 230 379 230 357.5 245 c 128,-1,8
 336 260 336 260 305.5 270.5 c 128,-1,9
 275 281 275 281 235 292 c 0,10,11
 207 300 207 300 187 306 c 128,-1,12
 167 312 167 312 154 320 c 128,-1,13
 141 328 141 328 135 339 c 128,-1,14
 129 350 129 350 129 367 c 0,15,16
 129 396 129 396 141.5 416.5 c 128,-1,17
 154 437 154 437 174.5 451 c 128,-1,18
 195 465 195 465 222 471.5 c 128,-1,19
 249 478 249 478 279 478 c 0,20,21
 322 478 322 478 355 464 c 128,-1,22
 388 450 388 450 409 421 c 1,23,-1
 449 459 l 1,24,25
 427 490 427 490 385.5 510 c 128,-1,26
 344 530 344 530 284 530 c 0,27,28
 238 530 238 530 198 517.5 c 128,-1,29
 158 505 158 505 128.5 482 c 128,-1,30
 99 459 99 459 81.5 426 c 128,-1,31
 64 393 64 393 64 352 c 0,32,33
 64 326 64 326 72.5 309 c 128,-1,34
 81 292 81 292 99 280 c 128,-1,35
 117 268 117 268 143.5 259 c 128,-1,36
 170 250 170 250 206 240 c 0,37,38
 238 231 238 231 261.5 224 c 128,-1,39
 285 217 285 217 301.5 207.5 c 128,-1,40
 318 198 318 198 326.5 185 c 128,-1,41
 335 172 335 172 335 153 c 0,42,43
 335 128 335 128 323 107.5 c 128,-1,44
 311 87 311 87 291 72.5 c 128,-1,45
 271 58 271 58 242.5 50 c 128,-1,46
 214 42 214 42 180 42 c 0,47,48
 132 42 132 42 92.5 59 c 128,-1,49
 53 76 53 76 19 112 c 1,50,-1
 -20 69 l 1,51,52
 12 30 12 30 62.5 10 c 128,-1,53
 113 -10 113 -10 174 -10 c 0,0,1
EndSplineSet
EndChar

StartChar: t
Encoding: 116 116 87
Width: 319
GlyphClass: 1
Flags: W
LayerCount: 2
Fore
SplineSet
48 68 m 0,0,1
 48 31 48 31 72.5 12.5 c 128,-1,2
 97 -6 97 -6 134 -6 c 0,3,4
 154 -6 154 -6 172.5 -2.5 c 128,-1,5
 191 1 191 1 207 5.5 c 128,-1,6
 223 10 223 10 235 15.5 c 128,-1,7
 247 21 247 21 253 25 c 1,8,-1
 247 77 l 1,9,10
 244 76 244 76 236 72 c 128,-1,11
 228 68 228 68 217 64 c 128,-1,12
 206 60 206 60 193 57 c 128,-1,13
 180 54 180 54 167 54 c 0,14,15
 146 54 146 54 132 65 c 128,-1,16
 118 76 118 76 118 98 c 0,17,18
 118 103 118 103 119.5 109.5 c 128,-1,19
 121 116 121 116 123 128 c 2,20,-1
 196 468 l 1,21,-1
 309 468 l 1,22,-1
 320 521 l 1,23,-1
 207 521 l 1,24,-1
 244 697 l 1,25,-1
 179 697 l 1,26,-1
 142 521 l 1,27,-1
 73 521 l 1,28,-1
 62 468 l 1,29,-1
 131 468 l 1,30,-1
 51 93 l 2,31,32
 49 86 49 86 48.5 80 c 128,-1,33
 48 74 48 74 48 68 c 0,0,1
EndSplineSet
Substitution2: "'ss07' Style Set 7 lookup 38 subtable" t.ss07
Substitution2: "'aalt' Access All Alternates lookup 0 subtable" t.ss07
EndChar

StartChar: u
Encoding: 117 117 88
Width: 564
GlyphClass: 1
Flags: W
LayerCount: 2
Fore
SplineSet
164 -10 m 0,0,1
 194 -10 194 -10 225 -1 c 128,-1,2
 256 8 256 8 285.5 24 c 128,-1,3
 315 40 315 40 341 63 c 128,-1,4
 367 86 367 86 388 115 c 1,5,-1
 363 0 l 1,6,-1
 427 0 l 1,7,-1
 538 521 l 1,8,-1
 472 521 l 1,9,-1
 403 193 l 1,10,11
 387 164 387 164 364 137 c 128,-1,12
 341 110 341 110 314 90.5 c 128,-1,13
 287 71 287 71 257 59 c 128,-1,14
 227 47 227 47 197 47 c 0,15,16
 146 47 146 47 126 75 c 128,-1,17
 106 103 106 103 106 147 c 0,18,19
 106 165 106 165 109 185 c 128,-1,20
 112 205 112 205 117 227 c 2,21,-1
 179 521 l 1,22,-1
 115 521 l 1,23,-1
 49 215 l 2,24,25
 44 191 44 191 41 167.5 c 128,-1,26
 38 144 38 144 38 123 c 0,27,28
 38 94 38 94 44 69.5 c 128,-1,29
 50 45 50 45 65 27.5 c 128,-1,30
 80 10 80 10 104 0 c 128,-1,31
 128 -10 128 -10 164 -10 c 0,0,1
EndSplineSet
Substitution2: "'ss08' Style Set 8 lookup 39 subtable" u.ss08
Substitution2: "'aalt' Access All Alternates lookup 0 subtable" u.ss08
EndChar

StartChar: v
Encoding: 118 118 89
Width: 489
GlyphClass: 1
Flags: W
LayerCount: 2
Fore
SplineSet
142 0 m 1,0,-1
 220 0 l 1,1,-1
 504 521 l 1,2,-1
 432 521 l 1,3,-1
 192 61 l 1,4,-1
 126 521 l 1,5,-1
 59 521 l 1,6,-1
 142 0 l 1,0,-1
EndSplineSet
EndChar

StartChar: w
Encoding: 119 119 90
Width: 788
GlyphClass: 1
Flags: W
LayerCount: 2
Fore
SplineSet
65 521 m 1,0,-1
 129 0 l 1,1,-1
 197 0 l 1,2,-1
 417 422 l 1,3,-1
 458 0 l 1,4,-1
 526 0 l 1,5,-1
 811 521 l 1,6,-1
 743 521 l 1,7,-1
 507 82 l 1,8,-1
 470 521 l 1,9,-1
 407 521 l 1,10,-1
 183 82 l 1,11,-1
 133 521 l 1,12,-1
 65 521 l 1,0,-1
EndSplineSet
Substitution2: "'ss09' Style Set 9 lookup 40 subtable" w.ss09
Substitution2: "'aalt' Access All Alternates lookup 0 subtable" w.ss09
EndChar

StartChar: x
Encoding: 120 120 91
Width: 480
GlyphClass: 1
Flags: W
LayerCount: 2
Fore
SplineSet
-49 0 m 1,0,-1
 21 0 l 1,1,-1
 211 205 l 1,2,-1
 222 219 l 1,3,-1
 228 205 l 1,4,-1
 331 0 l 1,5,-1
 402 0 l 1,6,-1
 268 259 l 1,7,-1
 512 521 l 1,8,-1
 442 521 l 1,9,-1
 250 314 l 1,10,-1
 239 300 l 1,11,-1
 235 315 l 1,12,-1
 131 521 l 1,13,-1
 61 521 l 1,14,-1
 195 259 l 1,15,-1
 -49 0 l 1,0,-1
EndSplineSet
EndChar

StartChar: y
Encoding: 121 121 92
Width: 507
GlyphClass: 1
Flags: W
LayerCount: 2
Fore
SplineSet
160 0 m 1,0,1
 147 -22 147 -22 131.5 -47.5 c 128,-1,2
 116 -73 116 -73 99.5 -100.5 c 128,-1,3
 83 -128 83 -128 66 -156.5 c 128,-1,4
 49 -185 49 -185 32 -213 c 1,5,-1
 105 -213 l 1,6,-1
 538 521 l 1,7,-1
 475 521 l 1,8,-1
 208 61 l 1,9,-1
 124 521 l 1,10,-1
 55 521 l 1,11,-1
 160 0 l 1,0,1
EndSplineSet
Substitution2: "'ss10' Style Set 10 lookup 41 subtable" y.ss10
Substitution2: "'aalt' Access All Alternates lookup 0 subtable" y.ss10
EndChar

StartChar: z
Encoding: 122 122 93
Width: 466
GlyphClass: 1
Flags: W
LayerCount: 2
Fore
SplineSet
-35 0 m 1,0,-1
 369 0 l 1,1,-1
 380 49 l 1,2,-1
 51 49 l 1,3,-1
 471 476 l 1,4,-1
 480 521 l 1,5,-1
 83 521 l 1,6,-1
 72 472 l 1,7,-1
 396 472 l 1,8,-1
 -26 45 l 1,9,-1
 -35 0 l 1,0,-1
EndSplineSet
EndChar

StartChar: braceleft
Encoding: 123 123 94
Width: 249
GlyphClass: 1
Flags: W
LayerCount: 2
Fore
SplineSet
283 685 m 1,0,-1
 295 740 l 1,1,-1
 205 740 l 2,2,3
 200 740 200 740 190.5 734.5 c 128,-1,4
 181 729 181 729 177 710 c 2,5,-1
 119 439 l 2,6,7
 118 433 118 433 114 424 c 128,-1,8
 110 415 110 415 104 406.5 c 128,-1,9
 98 398 98 398 89.5 392 c 128,-1,10
 81 386 81 386 71 386 c 1,11,-1
 60 336 l 1,12,13
 74 334 74 334 80.5 323 c 128,-1,14
 87 312 87 312 87 297 c 0,15,16
 87 293 87 293 86.5 289 c 128,-1,17
 86 285 86 285 85 281 c 2,18,-1
 26 -1 l 2,19,20
 25 -4 25 -4 25 -7 c 128,-1,21
 25 -10 25 -10 25 -12 c 0,22,23
 25 -23 25 -23 30 -27 c 128,-1,24
 35 -31 35 -31 41 -31 c 2,25,-1
 131 -31 l 1,26,-1
 143 24 l 1,27,-1
 91 24 l 1,28,-1
 149 299 l 2,29,30
 150 302 150 302 150 306.5 c 128,-1,31
 150 311 150 311 150 316 c 0,32,33
 150 328 150 328 147 339.5 c 128,-1,34
 144 351 144 351 136 360 c 1,35,36
 154 374 154 374 163.5 392 c 128,-1,37
 173 410 173 410 175 421 c 2,38,-1
 231 685 l 1,39,-1
 283 685 l 1,0,-1
EndSplineSet
EndChar

StartChar: bar
Encoding: 124 124 95
Width: 286
GlyphClass: 1
Flags: W
LayerCount: 2
Fore
SplineSet
177 -130 m 1,0,-1
 177 775 l 1,1,-1
 119 775 l 1,2,-1
 119 -130 l 1,3,-1
 177 -130 l 1,0,-1
EndSplineSet
EndChar

StartChar: braceright
Encoding: 125 125 96
Width: 249
GlyphClass: 1
Flags: W
LayerCount: 2
Fore
SplineSet
181 685 m 1,0,-1
 125 421 l 2,1,2
 124 418 124 418 123.5 413.5 c 128,-1,3
 123 409 123 409 123 403 c 0,4,5
 123 393 123 393 126.5 381.5 c 128,-1,6
 130 370 130 370 137 360 c 1,7,8
 120 346 120 346 110.5 328 c 128,-1,9
 101 310 101 310 99 299 c 2,10,-1
 41 24 l 1,11,-1
 -12 24 l 1,12,-1
 -23 -31 l 1,13,-1
 67 -31 l 2,14,15
 74 -31 74 -31 83 -24.5 c 128,-1,16
 92 -18 92 -18 96 -1 c 2,17,-1
 155 281 l 2,18,19
 159 301 159 301 172 317.5 c 128,-1,20
 185 334 185 334 203 336 c 1,21,-1
 214 386 l 1,22,23
 198 386 198 386 192.5 399 c 128,-1,24
 187 412 187 412 187 425 c 0,25,26
 187 429 187 429 187 432.5 c 128,-1,27
 187 436 187 436 188 439 c 2,28,-1
 247 710 l 2,29,30
 248 712 248 712 248 714.5 c 128,-1,31
 248 717 248 717 248 719 c 0,32,33
 248 732 248 732 241 736 c 128,-1,34
 234 740 234 740 231 740 c 2,35,-1
 141 740 l 1,36,-1
 129 685 l 1,37,-1
 181 685 l 1,0,-1
EndSplineSet
EndChar

StartChar: asciitilde
Encoding: 126 126 97
Width: 489
GlyphClass: 1
Flags: W
LayerCount: 2
Fore
SplineSet
51 242 m 1,0,-1
 93 242 l 1,1,2
 93 243 93 243 97 251.5 c 128,-1,3
 101 260 101 260 110.5 271 c 128,-1,4
 120 282 120 282 133 290.5 c 128,-1,5
 146 299 146 299 163 299 c 256,6,7
 180 299 180 299 196 290.5 c 128,-1,8
 212 282 212 282 229 271 c 128,-1,9
 246 260 246 260 265.5 251 c 128,-1,10
 285 242 285 242 309 242 c 0,11,12
 340 242 340 242 363 256 c 128,-1,13
 386 270 386 270 401.5 287.5 c 128,-1,14
 417 305 417 305 424.5 320 c 128,-1,15
 432 335 432 335 433 337 c 1,16,-1
 392 338 l 1,17,18
 392 336 392 336 387.5 327.5 c 128,-1,19
 383 319 383 319 373.5 309.5 c 128,-1,20
 364 300 364 300 350 292.5 c 128,-1,21
 336 285 336 285 318 285 c 0,22,23
 298 285 298 285 281 294 c 128,-1,24
 264 303 264 303 247 314 c 128,-1,25
 230 325 230 325 211.5 334 c 128,-1,26
 193 343 193 343 171 343 c 0,27,28
 143 343 143 343 121 329 c 128,-1,29
 99 315 99 315 83.5 297 c 128,-1,30
 68 279 68 279 60.5 262.5 c 128,-1,31
 53 246 53 246 51 242 c 1,0,-1
EndSplineSet
EndChar

StartChar: exclamdown
Encoding: 161 161 99
Width: 247
GlyphClass: 1
Flags: W
LayerCount: 2
Fore
SplineSet
240 475 m 0,0,1
 243 486 243 486 240.5 495.5 c 128,-1,2
 238 505 238 505 232 512 c 128,-1,3
 226 519 226 519 217.5 523 c 128,-1,4
 209 527 209 527 198 527 c 256,5,6
 187 527 187 527 177 523 c 128,-1,7
 167 519 167 519 158 512 c 128,-1,8
 149 505 149 505 143 495.5 c 128,-1,9
 137 486 137 486 135 475 c 0,10,11
 132 464 132 464 134 454.5 c 128,-1,12
 136 445 136 445 142 438 c 128,-1,13
 148 431 148 431 156.5 427 c 128,-1,14
 165 423 165 423 176 423 c 256,15,16
 187 423 187 423 197.5 427 c 128,-1,17
 208 431 208 431 216.5 438 c 128,-1,18
 225 445 225 445 231.5 454.5 c 128,-1,19
 238 464 238 464 240 475 c 0,0,1
124 292 m 1,20,-1
 65 52 l 1,21,-1
 12 -198 l 1,22,-1
 78 -198 l 1,23,-1
 131 52 l 1,24,-1
 176 292 l 1,25,-1
 124 292 l 1,20,-1
EndSplineSet
EndChar

StartChar: cent
Encoding: 162 162 100
Width: 539
GlyphClass: 1
Flags: W
LayerCount: 2
Fore
SplineSet
211 -120 m 1,0,-1
 235 -10 l 1,1,2
 260 -10 260 -10 292 -2 c 128,-1,3
 324 6 324 6 355.5 22 c 128,-1,4
 387 38 387 38 415 62 c 128,-1,5
 443 86 443 86 461 118 c 1,6,-1
 400 138 l 1,7,8
 391 118 391 118 373 102 c 128,-1,9
 355 86 355 86 333.5 74.5 c 128,-1,10
 312 63 312 63 289 56.5 c 128,-1,11
 266 50 266 50 247 49 c 1,12,-1
 337 470 l 1,13,14
 377 468 377 468 406.5 447.5 c 128,-1,15
 436 427 436 427 449 386 c 1,16,-1
 517 406 l 1,17,18
 502 462 502 462 460.5 494.5 c 128,-1,19
 419 527 419 527 349 529 c 1,20,-1
 374 645 l 1,21,-1
 339 645 l 1,22,-1
 314 529 l 1,23,24
 253 523 253 523 201 493.5 c 128,-1,25
 149 464 149 464 110.5 420 c 128,-1,26
 72 376 72 376 50.5 321.5 c 128,-1,27
 29 267 29 267 29 211 c 0,28,29
 29 171 29 171 40.5 133 c 128,-1,30
 52 95 52 95 73.5 64.5 c 128,-1,31
 95 34 95 34 127 14 c 128,-1,32
 159 -6 159 -6 200 -9 c 1,33,-1
 176 -120 l 1,34,-1
 211 -120 l 1,0,-1
96 218 m 0,35,36
 96 259 96 259 111.5 301.5 c 128,-1,37
 127 344 127 344 154.5 380 c 128,-1,38
 182 416 182 416 219.5 440 c 128,-1,39
 257 464 257 464 301 468 c 1,40,-1
 212 52 l 1,41,42
 185 56 185 56 164 71 c 128,-1,43
 143 86 143 86 127.5 108.5 c 128,-1,44
 112 131 112 131 104 159 c 128,-1,45
 96 187 96 187 96 218 c 0,35,36
EndSplineSet
EndChar

StartChar: sterling
Encoding: 163 163 101
Width: 476
GlyphClass: 1
Flags: W
LayerCount: 2
Fore
SplineSet
57 320 m 1,0,-1
 376 320 l 1,1,-1
 388 372 l 1,2,-1
 67 372 l 1,3,-1
 57 320 l 1,0,-1
7 -8 m 1,4,5
 32 -1 32 -1 61.5 3.5 c 128,-1,6
 91 8 91 8 113 8 c 256,7,8
 135 8 135 8 153.5 4.5 c 128,-1,9
 172 1 172 1 190 -3.5 c 128,-1,10
 208 -8 208 -8 227 -11.5 c 128,-1,11
 246 -15 246 -15 267 -15 c 0,12,13
 292 -15 292 -15 320.5 -8.5 c 128,-1,14
 349 -2 349 -2 376 10 c 1,15,-1
 370 61 l 1,16,17
 342 52 342 52 321 47 c 128,-1,18
 300 42 300 42 282 42 c 256,19,20
 264 42 264 42 249 45 c 128,-1,21
 234 48 234 48 219 51.5 c 128,-1,22
 204 55 204 55 187 58 c 128,-1,23
 170 61 170 61 150 61 c 0,24,25
 133 61 133 61 115.5 58.5 c 128,-1,26
 98 56 98 56 79 52 c 1,27,28
 127 96 127 96 156 129.5 c 128,-1,29
 185 163 185 163 201 190.5 c 128,-1,30
 217 218 217 218 222 244 c 128,-1,31
 227 270 227 270 227 300 c 0,32,33
 227 332 227 332 220.5 360.5 c 128,-1,34
 214 389 214 389 206.5 415.5 c 128,-1,35
 199 442 199 442 192.5 467 c 128,-1,36
 186 492 186 492 186 516 c 0,37,38
 186 546 186 546 197.5 572 c 128,-1,39
 209 598 209 598 228.5 617.5 c 128,-1,40
 248 637 248 637 273 648.5 c 128,-1,41
 298 660 298 660 324 660 c 0,42,43
 364 660 364 660 395.5 635.5 c 128,-1,44
 427 611 427 611 441 570 c 1,45,-1
 488 610 l 1,46,47
 469 659 469 659 429.5 687 c 128,-1,48
 390 715 390 715 338 715 c 0,49,50
 298 715 298 715 259.5 699 c 128,-1,51
 221 683 221 683 191.5 655.5 c 128,-1,52
 162 628 162 628 143.5 592 c 128,-1,53
 125 556 125 556 125 515 c 0,54,55
 125 488 125 488 131.5 461.5 c 128,-1,56
 138 435 138 435 146 408 c 128,-1,57
 154 381 154 381 160.5 352.5 c 128,-1,58
 167 324 167 324 167 293 c 256,59,60
 167 262 167 262 160 235.5 c 128,-1,61
 153 209 153 209 134.5 180.5 c 128,-1,62
 116 152 116 152 83.5 118.5 c 128,-1,63
 51 85 51 85 -1 41 c 1,64,-1
 7 -8 l 1,4,5
EndSplineSet
EndChar

StartChar: currency
Encoding: 164 164 102
Width: 562
GlyphClass: 1
Flags: W
LayerCount: 2
Fore
SplineSet
104 550 m 1,0,-1
 72 518 l 1,1,-1
 142 447 l 1,2,3
 125 424 125 424 116 395.5 c 128,-1,4
 107 367 107 367 107 336 c 256,5,6
 107 305 107 305 116.5 276.5 c 128,-1,7
 126 248 126 248 143 225 c 1,8,-1
 72 154 l 1,9,-1
 101 125 l 1,10,-1
 173 194 l 1,11,12
 196 176 196 176 224.5 165.5 c 128,-1,13
 253 155 253 155 286 155 c 0,14,15
 320 155 320 155 349 165.5 c 128,-1,16
 378 176 378 176 400 195 c 1,17,-1
 474 125 l 1,18,-1
 503 154 l 1,19,-1
 430 226 l 1,20,21
 448 249 448 249 457.5 277.5 c 128,-1,22
 467 306 467 306 467 336 c 0,23,24
 467 367 467 367 457.5 395 c 128,-1,25
 448 423 448 423 431 447 c 1,26,-1
 503 518 l 1,27,-1
 470 550 l 1,28,-1
 400 479 l 1,29,30
 377 498 377 498 348.5 508.5 c 128,-1,31
 320 519 320 519 286 519 c 0,32,33
 253 519 253 519 224.5 509 c 128,-1,34
 196 499 196 499 174 480 c 1,35,-1
 104 550 l 1,0,-1
162 335 m 0,36,37
 162 364 162 364 171.5 389 c 128,-1,38
 181 414 181 414 198 432 c 128,-1,39
 215 450 215 450 238 460.5 c 128,-1,40
 261 471 261 471 286 471 c 0,41,42
 312 471 312 471 335 461 c 128,-1,43
 358 451 358 451 375 433 c 128,-1,44
 392 415 392 415 402 390.5 c 128,-1,45
 412 366 412 366 412 337 c 0,46,47
 412 309 412 309 402 284.5 c 128,-1,48
 392 260 392 260 375 241.5 c 128,-1,49
 358 223 358 223 335 212.5 c 128,-1,50
 312 202 312 202 286 202 c 0,51,52
 261 202 261 202 238 212.5 c 128,-1,53
 215 223 215 223 198 240.5 c 128,-1,54
 181 258 181 258 171.5 283 c 128,-1,55
 162 308 162 308 162 335 c 0,36,37
EndSplineSet
EndChar

StartChar: yen
Encoding: 165 165 103
Width: 649
GlyphClass: 1
Flags: W
LayerCount: 2
Fore
SplineSet
701 710 m 1,0,-1
 627 710 l 1,1,-1
 324 326 l 1,2,-1
 186 710 l 1,3,-1
 113 710 l 1,4,-1
 244 365 l 1,5,-1
 162 365 l 1,6,-1
 152 318 l 1,7,-1
 259 318 l 1,8,-1
 278 266 l 1,9,-1
 272 238 l 1,10,-1
 135 238 l 1,11,-1
 125 191 l 1,12,-1
 262 191 l 1,13,-1
 221 0 l 1,14,-1
 288 0 l 1,15,-1
 328 191 l 1,16,-1
 467 191 l 1,17,-1
 476 238 l 1,18,-1
 338 238 l 1,19,-1
 344 264 l 1,20,-1
 387 318 l 1,21,-1
 493 318 l 1,22,-1
 503 365 l 1,23,-1
 423 365 l 1,24,-1
 701 710 l 1,0,-1
EndSplineSet
EndChar

StartChar: brokenbar
Encoding: 166 166 104
Width: 280
GlyphClass: 1
Flags: W
LayerCount: 2
Fore
SplineSet
116 277 m 1,0,-1
 116 -130 l 1,1,-1
 174 -130 l 1,2,-1
 174 277 l 1,3,-1
 116 277 l 1,0,-1
116 775 m 1,4,-1
 116 368 l 1,5,-1
 174 368 l 1,6,-1
 174 775 l 1,7,-1
 116 775 l 1,4,-1
EndSplineSet
EndChar

StartChar: section
Encoding: 167 167 105
Width: 488
GlyphClass: 1
Flags: W
LayerCount: 2
Fore
SplineSet
377 194 m 1,0,1
 387 203 387 203 396 216 c 128,-1,2
 405 229 405 229 412.5 245 c 128,-1,3
 420 261 420 261 424.5 278.5 c 128,-1,4
 429 296 429 296 429 315 c 0,5,6
 429 350 429 350 415 373.5 c 128,-1,7
 401 397 401 397 378.5 412.5 c 128,-1,8
 356 428 356 428 327 434.5 c 128,-1,9
 298 441 298 441 267 441 c 0,10,11
 221 442 221 442 191.5 459.5 c 128,-1,12
 162 477 162 477 162 522 c 0,13,14
 162 553 162 553 175.5 577.5 c 128,-1,15
 189 602 189 602 211 619.5 c 128,-1,16
 233 637 233 637 259 646.5 c 128,-1,17
 285 656 285 656 312 656 c 0,18,19
 329 656 329 656 346.5 653 c 128,-1,20
 364 650 364 650 379 643 c 128,-1,21
 394 636 394 636 405 624.5 c 128,-1,22
 416 613 416 613 420 597 c 1,23,-1
 477 621 l 1,24,25
 469 639 469 639 457 656 c 128,-1,26
 445 673 445 673 426.5 686 c 128,-1,27
 408 699 408 699 382.5 707 c 128,-1,28
 357 715 357 715 321 715 c 0,29,30
 282 715 282 715 242 700 c 128,-1,31
 202 685 202 685 169.5 659 c 128,-1,32
 137 633 137 633 116 595.5 c 128,-1,33
 95 558 95 558 95 512 c 0,34,35
 95 485 95 485 102 461.5 c 128,-1,36
 109 438 109 438 122 427 c 1,37,38
 114 418 114 418 105.5 406 c 128,-1,39
 97 394 97 394 90 379.5 c 128,-1,40
 83 365 83 365 79 347.5 c 128,-1,41
 75 330 75 330 75 311 c 0,42,43
 75 280 75 280 86 256 c 128,-1,44
 97 232 97 232 117.5 215.5 c 128,-1,45
 138 199 138 199 166.5 190 c 128,-1,46
 195 181 195 181 230 179 c 0,47,48
 249 178 249 178 267.5 175.5 c 128,-1,49
 286 173 286 173 300.5 165 c 128,-1,50
 315 157 315 157 324 143.5 c 128,-1,51
 333 130 333 130 333 107 c 0,52,53
 333 76 333 76 318.5 51.5 c 128,-1,54
 304 27 304 27 282 10 c 128,-1,55
 260 -7 260 -7 232.5 -16 c 128,-1,56
 205 -25 205 -25 180 -25 c 0,57,58
 139 -25 139 -25 108 -8.5 c 128,-1,59
 77 8 77 8 50 43 c 1,60,-1
 -1 3 l 1,61,62
 9 -13 9 -13 24.5 -29.5 c 128,-1,63
 40 -46 40 -46 61 -59 c 128,-1,64
 82 -72 82 -72 108.5 -80 c 128,-1,65
 135 -88 135 -88 169 -88 c 0,66,67
 204 -88 204 -88 245 -75 c 128,-1,68
 286 -62 286 -62 321 -36 c 128,-1,69
 356 -10 356 -10 379.5 30 c 128,-1,70
 403 70 403 70 403 123 c 0,71,72
 403 147 403 147 396.5 165.5 c 128,-1,73
 390 184 390 184 377 194 c 1,0,1
138 311 m 0,74,75
 138 339 138 339 150.5 363.5 c 128,-1,76
 163 388 163 388 179 402 c 1,77,78
 194 394 194 394 214.5 390.5 c 128,-1,79
 235 387 235 387 258 387 c 0,80,81
 277 387 277 387 295.5 383 c 128,-1,82
 314 379 314 379 329.5 369 c 128,-1,83
 345 359 345 359 355 343 c 128,-1,84
 365 327 365 327 365 304 c 0,85,86
 365 278 365 278 352 252.5 c 128,-1,87
 339 227 339 227 319 213 c 1,88,89
 300 223 300 223 269 225 c 128,-1,90
 238 227 238 227 209 233.5 c 128,-1,91
 180 240 180 240 159 256.5 c 128,-1,92
 138 273 138 273 138 311 c 0,74,75
EndSplineSet
EndChar

StartChar: copyright
Encoding: 169 169 107
Width: 845
GlyphClass: 1
Flags: W
LayerCount: 2
Fore
SplineSet
432 -7 m 0,0,1
 512 -7 512 -7 579.5 20.5 c 128,-1,2
 647 48 647 48 696.5 96.5 c 128,-1,3
 746 145 746 145 773.5 211 c 128,-1,4
 801 277 801 277 801 355 c 0,5,6
 801 432 801 432 773.5 498 c 128,-1,7
 746 564 746 564 696.5 612 c 128,-1,8
 647 660 647 660 579.5 687.5 c 128,-1,9
 512 715 512 715 432 715 c 0,10,11
 354 715 354 715 286.5 687.5 c 128,-1,12
 219 660 219 660 170.5 612 c 128,-1,13
 122 564 122 564 94 498 c 128,-1,14
 66 432 66 432 66 355 c 0,15,16
 66 277 66 277 94 211 c 128,-1,17
 122 145 122 145 170.5 96.5 c 128,-1,18
 219 48 219 48 286.5 20.5 c 128,-1,19
 354 -7 354 -7 432 -7 c 0,0,1
433 25 m 0,20,21
 361 25 361 25 300 50 c 128,-1,22
 239 75 239 75 194.5 119 c 128,-1,23
 150 163 150 163 125 223.5 c 128,-1,24
 100 284 100 284 100 354 c 0,25,26
 100 425 100 425 125 485 c 128,-1,27
 150 545 150 545 194.5 589 c 128,-1,28
 239 633 239 633 300.5 658 c 128,-1,29
 362 683 362 683 433 683 c 0,30,31
 505 683 505 683 566 658 c 128,-1,32
 627 633 627 633 672 589 c 128,-1,33
 717 545 717 545 742 484 c 128,-1,34
 767 423 767 423 767 353 c 0,35,36
 767 280 767 280 741.5 219.5 c 128,-1,37
 716 159 716 159 670.5 116 c 128,-1,38
 625 73 625 73 564 49 c 128,-1,39
 503 25 503 25 433 25 c 0,20,21
440 123 m 0,40,41
 478 123 478 123 510 134 c 128,-1,42
 542 145 542 145 567 162.5 c 128,-1,43
 592 180 592 180 608.5 200.5 c 128,-1,44
 625 221 625 221 632 238 c 1,45,-1
 569 257 l 1,46,47
 561 240 561 240 546.5 225.5 c 128,-1,48
 532 211 532 211 513.5 201 c 128,-1,49
 495 191 495 191 475 185.5 c 128,-1,50
 455 180 455 180 437 180 c 0,51,52
 409 180 409 180 380.5 192 c 128,-1,53
 352 204 352 204 328.5 226 c 128,-1,54
 305 248 305 248 289.5 280.5 c 128,-1,55
 274 313 274 313 274 355 c 0,56,57
 274 387 274 387 284 418.5 c 128,-1,58
 294 450 294 450 313.5 475 c 128,-1,59
 333 500 333 500 363.5 515.5 c 128,-1,60
 394 531 394 531 434 531 c 0,61,62
 449 531 449 531 467 528 c 128,-1,63
 485 525 485 525 502.5 517 c 128,-1,64
 520 509 520 509 536 494.5 c 128,-1,65
 552 480 552 480 562 458 c 1,66,-1
 625 478 l 1,67,68
 602 533 602 533 550.5 561 c 128,-1,69
 499 589 499 589 434 589 c 0,70,71
 376 589 376 589 333.5 568 c 128,-1,72
 291 547 291 547 263 513.5 c 128,-1,73
 235 480 235 480 221.5 438.5 c 128,-1,74
 208 397 208 397 208 355 c 0,75,76
 208 302 208 302 227 259.5 c 128,-1,77
 246 217 246 217 278.5 186.5 c 128,-1,78
 311 156 311 156 353 139.5 c 128,-1,79
 395 123 395 123 440 123 c 0,40,41
EndSplineSet
EndChar

StartChar: ordfeminine
Encoding: 170 170 108
Width: 413
GlyphClass: 1
Flags: W
LayerCount: 2
Fore
SplineSet
167 346 m 0,0,1
 207 346 207 346 245.5 363 c 128,-1,2
 284 380 284 380 314 411 c 1,3,-1
 303 353 l 1,4,-1
 352 353 l 1,5,6
 352 354 352 354 354 365 c 128,-1,7
 356 376 356 376 358.5 389 c 128,-1,8
 361 402 361 402 363 413 c 128,-1,9
 365 424 365 424 365 425 c 2,10,-1
 396 569 l 2,11,12
 398 580 398 580 399.5 589.5 c 128,-1,13
 401 599 401 599 401 609 c 0,14,15
 401 659 401 659 370 684.5 c 128,-1,16
 339 710 339 710 283 710 c 0,17,18
 250 710 250 710 215 698.5 c 128,-1,19
 180 687 180 687 142 664 c 1,20,-1
 153 628 l 1,21,22
 187 648 187 648 216 658.5 c 128,-1,23
 245 669 245 669 270 669 c 0,24,25
 306 669 306 669 325 650.5 c 128,-1,26
 344 632 344 632 344 601 c 0,27,28
 344 595 344 595 343.5 589 c 128,-1,29
 343 583 343 583 341 575 c 2,30,-1
 335 547 l 1,31,32
 317 555 317 555 293 560 c 128,-1,33
 269 565 269 565 242 565 c 0,34,35
 208 565 208 565 177.5 555 c 128,-1,36
 147 545 147 545 124 528.5 c 128,-1,37
 101 512 101 512 88 488.5 c 128,-1,38
 75 465 75 465 75 437 c 0,39,40
 75 398 75 398 100 372 c 128,-1,41
 125 346 125 346 167 346 c 0,0,1
191 390 m 0,42,43
 164 390 164 390 147 406.5 c 128,-1,44
 130 423 130 423 130 448 c 0,45,46
 130 485 130 485 162.5 506.5 c 128,-1,47
 195 528 195 528 244 528 c 0,48,49
 267 528 267 528 288 524.5 c 128,-1,50
 309 521 309 521 327 512 c 1,51,-1
 316 460 l 2,52,53
 313 446 313 446 300.5 433.5 c 128,-1,54
 288 421 288 421 270 411.5 c 128,-1,55
 252 402 252 402 231 396 c 128,-1,56
 210 390 210 390 191 390 c 0,42,43
EndSplineSet
EndChar

StartChar: guillemotleft
Encoding: 171 171 109
Width: 550
GlyphClass: 1
Flags: W
LayerCount: 2
Fore
SplineSet
28 239 m 1,0,-1
 227 67 l 1,1,-1
 239 123 l 1,2,-1
 86 259 l 1,3,-1
 297 396 l 1,4,-1
 310 453 l 1,5,-1
 36 276 l 1,6,-1
 28 239 l 1,0,-1
239 239 m 1,7,-1
 438 67 l 1,8,-1
 450 123 l 1,9,-1
 296 259 l 1,10,-1
 508 396 l 1,11,-1
 520 453 l 1,12,-1
 246 276 l 1,13,-1
 239 239 l 1,7,-1
EndSplineSet
EndChar

StartChar: logicalnot
Encoding: 172 172 110
Width: 561
GlyphClass: 1
Flags: W
LayerCount: 2
Fore
SplineSet
86 363 m 1,0,-1
 73 303 l 1,1,-1
 434 303 l 1,2,-1
 397 127 l 1,3,-1
 453 127 l 1,4,-1
 504 363 l 1,5,-1
 86 363 l 1,0,-1
EndSplineSet
EndChar

StartChar: uni00AD
Encoding: 173 173 111
Width: 546
GlyphClass: 1
Flags: W
LayerCount: 2
Fore
SplineSet
470 242 m 1,0,-1
 482 302 l 1,1,-1
 64 302 l 1,2,-1
 52 242 l 1,3,-1
 470 242 l 1,0,-1
EndSplineSet
EndChar

StartChar: registered
Encoding: 174 174 112
Width: 845
GlyphClass: 1
Flags: W
LayerCount: 2
Fore
SplineSet
433 -7 m 256,0,1
 512 -7 512 -7 579.5 20.5 c 128,-1,2
 647 48 647 48 696.5 96.5 c 128,-1,3
 746 145 746 145 773.5 211 c 128,-1,4
 801 277 801 277 801 355 c 0,5,6
 801 432 801 432 773.5 498 c 128,-1,7
 746 564 746 564 696.5 612 c 128,-1,8
 647 660 647 660 579.5 687.5 c 128,-1,9
 512 715 512 715 433 715 c 256,10,11
 354 715 354 715 287 687.5 c 128,-1,12
 220 660 220 660 171 612 c 128,-1,13
 122 564 122 564 94 498 c 128,-1,14
 66 432 66 432 66 355 c 0,15,16
 66 277 66 277 94 211 c 128,-1,17
 122 145 122 145 171 96.5 c 128,-1,18
 220 48 220 48 287 20.5 c 128,-1,19
 354 -7 354 -7 433 -7 c 256,0,1
433 24 m 0,20,21
 361 24 361 24 300 49.5 c 128,-1,22
 239 75 239 75 195 119 c 128,-1,23
 151 163 151 163 126 224 c 128,-1,24
 101 285 101 285 101 355 c 256,25,26
 101 425 101 425 126 485 c 128,-1,27
 151 545 151 545 195 589 c 128,-1,28
 239 633 239 633 300 658 c 128,-1,29
 361 683 361 683 433 683 c 256,30,31
 505 683 505 683 566 658 c 128,-1,32
 627 633 627 633 671.5 589 c 128,-1,33
 716 545 716 545 741 485 c 128,-1,34
 766 425 766 425 766 354 c 0,35,36
 766 281 766 281 740.5 220 c 128,-1,37
 715 159 715 159 670 115.5 c 128,-1,38
 625 72 625 72 564.5 48 c 128,-1,39
 504 24 504 24 433 24 c 0,20,21
281 127 m 1,40,-1
 332 127 l 1,41,-1
 332 296 l 1,42,-1
 451 296 l 1,43,-1
 558 127 l 1,44,-1
 614 127 l 1,45,-1
 503 302 l 1,46,47
 525 306 525 306 544.5 319 c 128,-1,48
 564 332 564 332 577.5 350 c 128,-1,49
 591 368 591 368 598.5 390.5 c 128,-1,50
 606 413 606 413 606 438 c 0,51,52
 606 464 606 464 596 489.5 c 128,-1,53
 586 515 586 515 568.5 535.5 c 128,-1,54
 551 556 551 556 526.5 568 c 128,-1,55
 502 580 502 580 472 580 c 2,56,-1
 281 580 l 1,57,-1
 281 127 l 1,40,-1
332 340 m 1,58,-1
 332 534 l 1,59,-1
 468 534 l 2,60,61
 487 534 487 534 503.5 527 c 128,-1,62
 520 520 520 520 531.5 507 c 128,-1,63
 543 494 543 494 550 476 c 128,-1,64
 557 458 557 458 557 438 c 0,65,66
 557 417 557 417 551.5 399.5 c 128,-1,67
 546 382 546 382 535 369 c 128,-1,68
 524 356 524 356 508 348 c 128,-1,69
 492 340 492 340 472 340 c 2,70,-1
 332 340 l 1,58,-1
EndSplineSet
EndChar

StartChar: degree
Encoding: 176 176 114
Width: 258
GlyphClass: 1
Flags: W
LayerCount: 2
Fore
SplineSet
181 559 m 0,0,1
 201 559 201 559 219 567 c 128,-1,2
 237 575 237 575 250.5 588.5 c 128,-1,3
 264 602 264 602 272 620 c 128,-1,4
 280 638 280 638 280 658 c 0,5,6
 280 686 280 686 263 705 c 128,-1,7
 246 724 246 724 217 724 c 0,8,9
 196 724 196 724 178 715 c 128,-1,10
 160 706 160 706 146.5 692 c 128,-1,11
 133 678 133 678 125.5 660 c 128,-1,12
 118 642 118 642 118 624 c 0,13,14
 118 596 118 596 135.5 577.5 c 128,-1,15
 153 559 153 559 181 559 c 0,0,1
190 597 m 0,16,17
 175 597 175 597 166 607 c 128,-1,18
 157 617 157 617 157 634 c 0,19,20
 157 655 157 655 173 670 c 128,-1,21
 189 685 189 685 208 685 c 0,22,23
 223 685 223 685 232.5 676 c 128,-1,24
 242 667 242 667 242 650 c 0,25,26
 242 629 242 629 224.5 613 c 128,-1,27
 207 597 207 597 190 597 c 0,16,17
EndSplineSet
EndChar

StartChar: plusminus
Encoding: 177 177 115
Width: 484
GlyphClass: 1
Flags: W
LayerCount: 2
Fore
SplineSet
390 62 m 1,0,-1
 390 117 l 1,1,-1
 68 117 l 1,2,-1
 68 62 l 1,3,-1
 390 62 l 1,0,-1
259 391 m 1,4,-1
 259 532 l 1,5,-1
 199 532 l 1,6,-1
 199 391 l 1,7,-1
 68 391 l 1,8,-1
 68 336 l 1,9,-1
 199 336 l 1,10,-1
 199 196 l 1,11,-1
 259 196 l 1,12,-1
 259 336 l 1,13,-1
 390 336 l 1,14,-1
 390 391 l 1,15,-1
 259 391 l 1,4,-1
EndSplineSet
EndChar

StartChar: twosuperior
Encoding: 178 178 116
Width: 373
GlyphClass: 1
Flags: W
LayerCount: 2
Fore
SplineSet
357 408 m 1,0,-1
 366 450 l 1,1,-1
 134 450 l 1,2,3
 137 464 137 464 144 479 c 128,-1,4
 151 494 151 494 165 509 c 128,-1,5
 179 524 179 524 201.5 538.5 c 128,-1,6
 224 553 224 553 258 564 c 0,7,8
 293 576 293 576 323 589 c 128,-1,9
 353 602 353 602 374.5 619.5 c 128,-1,10
 396 637 396 637 408 660.5 c 128,-1,11
 420 684 420 684 420 715 c 0,12,13
 420 757 420 757 391.5 784 c 128,-1,14
 363 811 363 811 303 811 c 0,15,16
 269 811 269 811 239.5 802.5 c 128,-1,17
 210 794 210 794 188.5 782.5 c 128,-1,18
 167 771 167 771 153 760 c 128,-1,19
 139 749 139 749 134 743 c 1,20,-1
 156 710 l 1,21,22
 165 719 165 719 179 729 c 128,-1,23
 193 739 193 739 210.5 748 c 128,-1,24
 228 757 228 757 249.5 763 c 128,-1,25
 271 769 271 769 295 769 c 0,26,27
 337 769 337 769 354 751 c 128,-1,28
 371 733 371 733 371 706 c 0,29,30
 371 680 371 680 356.5 662 c 128,-1,31
 342 644 342 644 320 631.5 c 128,-1,32
 298 619 298 619 271 609.5 c 128,-1,33
 244 600 244 600 218 591 c 0,34,35
 185 579 185 579 159 563 c 128,-1,36
 133 547 133 547 113.5 525.5 c 128,-1,37
 94 504 94 504 80 475 c 128,-1,38
 66 446 66 446 58 408 c 1,39,-1
 357 408 l 1,0,-1
EndSplineSet
EndChar

StartChar: threesuperior
Encoding: 179 179 117
Width: 374
GlyphClass: 1
Flags: W
LayerCount: 2
Fore
SplineSet
203 403 m 0,0,1
 237 403 237 403 269.5 411.5 c 128,-1,2
 302 420 302 420 327 436 c 128,-1,3
 352 452 352 452 367 476 c 128,-1,4
 382 500 382 500 382 529 c 0,5,6
 382 560 382 560 361.5 583.5 c 128,-1,7
 341 607 341 607 304 613 c 1,8,9
 356 624 356 624 384 650.5 c 128,-1,10
 412 677 412 677 412 717 c 0,11,12
 412 758 412 758 377.5 784.5 c 128,-1,13
 343 811 343 811 286 811 c 0,14,15
 263 811 263 811 240.5 807 c 128,-1,16
 218 803 218 803 198.5 794.5 c 128,-1,17
 179 786 179 786 162 774.5 c 128,-1,18
 145 763 145 763 133 748 c 1,19,-1
 155 715 l 1,20,21
 174 740 174 740 206 755.5 c 128,-1,22
 238 771 238 771 278 771 c 0,23,24
 314 771 314 771 339.5 754.5 c 128,-1,25
 365 738 365 738 365 709 c 0,26,27
 365 690 365 690 355 675.5 c 128,-1,28
 345 661 345 661 326 651.5 c 128,-1,29
 307 642 307 642 280 637 c 128,-1,30
 253 632 253 632 220 632 c 2,31,-1
 199 632 l 1,32,-1
 191 592 l 1,33,-1
 212 592 l 2,34,35
 272 592 272 592 305 575 c 128,-1,36
 338 558 338 558 338 527 c 0,37,38
 338 509 338 509 327.5 493 c 128,-1,39
 317 477 317 477 300 466 c 128,-1,40
 283 455 283 455 259.5 448 c 128,-1,41
 236 441 236 441 211 441 c 0,42,43
 185 441 185 441 165.5 447 c 128,-1,44
 146 453 146 453 132.5 463.5 c 128,-1,45
 119 474 119 474 112.5 487.5 c 128,-1,46
 106 501 106 501 106 514 c 1,47,-1
 75 492 l 1,48,49
 75 451 75 451 109.5 427 c 128,-1,50
 144 403 144 403 203 403 c 0,0,1
EndSplineSet
EndChar

StartChar: uni00B5
Encoding: 181 181 119
Width: 597
GlyphClass: 1
Flags: W
LayerCount: 2
Fore
SplineSet
-28 -212 m 1,0,-1
 38 -212 l 1,1,-1
 95 76 l 1,2,3
 100 37 100 37 124 13.5 c 128,-1,4
 148 -10 148 -10 194 -10 c 0,5,6
 223 -10 223 -10 253.5 0 c 128,-1,7
 284 10 284 10 313 27.5 c 128,-1,8
 342 45 342 45 367 68.5 c 128,-1,9
 392 92 392 92 410 119 c 1,10,-1
 400 0 l 1,11,-1
 444 0 l 1,12,-1
 553 521 l 1,13,-1
 487 521 l 1,14,-1
 417 193 l 1,15,16
 399 160 399 160 375 133 c 128,-1,17
 351 106 351 106 323.5 87 c 128,-1,18
 296 68 296 68 266.5 57.5 c 128,-1,19
 237 47 237 47 209 47 c 0,20,21
 165 47 165 47 143 72 c 128,-1,22
 121 97 121 97 121 148 c 0,23,24
 121 165 121 165 123.5 184.5 c 128,-1,25
 126 204 126 204 131 227 c 2,26,-1
 194 521 l 1,27,-1
 128 521 l 1,28,-1
 -28 -212 l 1,0,-1
EndSplineSet
EndChar

StartChar: paragraph
Encoding: 182 182 120
Width: 577
GlyphClass: 1
Flags: W
LayerCount: 2
Fore
SplineSet
64 419 m 0,0,1
 64 376 64 376 77.5 342 c 128,-1,2
 91 308 91 308 117 284 c 128,-1,3
 143 260 143 260 180.5 246.5 c 128,-1,4
 218 233 218 233 266 232 c 1,5,-1
 199 -80 l 1,6,-1
 257 -80 l 1,7,-1
 323 232 l 1,8,-1
 393 232 l 1,9,-1
 327 -80 l 1,10,-1
 384 -80 l 1,11,-1
 541 658 l 1,12,-1
 607 658 l 1,13,-1
 619 710 l 1,14,-1
 390 710 l 2,15,16
 315 710 315 710 255 689 c 128,-1,17
 195 668 195 668 152.5 630 c 128,-1,18
 110 592 110 592 87 538 c 128,-1,19
 64 484 64 484 64 419 c 0,0,1
122 431 m 0,20,21
 122 480 122 480 138 521.5 c 128,-1,22
 154 563 154 563 184 593 c 128,-1,23
 214 623 214 623 257.5 640 c 128,-1,24
 301 657 301 657 357 658 c 1,25,-1
 277 284 l 1,26,27
 244 286 244 286 216 295.5 c 128,-1,28
 188 305 188 305 167 323 c 128,-1,29
 146 341 146 341 134 368 c 128,-1,30
 122 395 122 395 122 431 c 0,20,21
404 284 m 1,31,-1
 334 284 l 1,32,-1
 414 658 l 1,33,-1
 484 658 l 1,34,-1
 404 284 l 1,31,-1
EndSplineSet
EndChar

StartChar: onesuperior
Encoding: 185 185 123
Width: 259
GlyphClass: 1
Flags: W
LayerCount: 2
Fore
SplineSet
200 450 m 1,0,-1
 277 811 l 1,1,-1
 233 811 l 1,2,3
 233 810 233 810 222.5 801 c 128,-1,4
 212 792 212 792 196.5 782 c 128,-1,5
 181 772 181 772 163.5 764 c 128,-1,6
 146 756 146 756 131 756 c 1,7,-1
 121 713 l 1,8,9
 133 713 133 713 148 718 c 128,-1,10
 163 723 163 723 177.5 730.5 c 128,-1,11
 192 738 192 738 204.5 746.5 c 128,-1,12
 217 755 217 755 223 761 c 1,13,-1
 157 450 l 1,14,-1
 80 450 l 1,15,-1
 71 407 l 1,16,-1
 262 407 l 1,17,-1
 271 450 l 1,18,-1
 200 450 l 1,0,-1
EndSplineSet
EndChar

StartChar: ordmasculine
Encoding: 186 186 124
Width: 431
GlyphClass: 1
Flags: W
LayerCount: 2
Fore
SplineSet
223 346 m 0,0,1
 267 346 267 346 306 364.5 c 128,-1,2
 345 383 345 383 374 413 c 128,-1,3
 403 443 403 443 420.5 482 c 128,-1,4
 438 521 438 521 438 563 c 0,5,6
 438 593 438 593 429 620 c 128,-1,7
 420 647 420 647 402 667 c 128,-1,8
 384 687 384 687 358 698.5 c 128,-1,9
 332 710 332 710 300 710 c 0,10,11
 257 710 257 710 218 692.5 c 128,-1,12
 179 675 179 675 150 644.5 c 128,-1,13
 121 614 121 614 103.5 575 c 128,-1,14
 86 536 86 536 86 494 c 0,15,16
 86 464 86 464 95 437 c 128,-1,17
 104 410 104 410 121.5 390 c 128,-1,18
 139 370 139 370 164.5 358 c 128,-1,19
 190 346 190 346 223 346 c 0,0,1
233 393 m 0,20,21
 213 393 213 393 196 401.5 c 128,-1,22
 179 410 179 410 167 424 c 128,-1,23
 155 438 155 438 148 457.5 c 128,-1,24
 141 477 141 477 141 500 c 0,25,26
 141 533 141 533 154 562.5 c 128,-1,27
 167 592 167 592 188 614.5 c 128,-1,28
 209 637 209 637 236 649.5 c 128,-1,29
 263 662 263 662 290 662 c 0,30,31
 311 662 311 662 328 654 c 128,-1,32
 345 646 345 646 357.5 631.5 c 128,-1,33
 370 617 370 617 376.5 597.5 c 128,-1,34
 383 578 383 578 383 555 c 0,35,36
 383 523 383 523 370 493.5 c 128,-1,37
 357 464 357 464 336 442 c 128,-1,38
 315 420 315 420 288 406.5 c 128,-1,39
 261 393 261 393 233 393 c 0,20,21
EndSplineSet
EndChar

StartChar: guillemotright
Encoding: 187 187 125
Width: 550
GlyphClass: 1
Flags: W
LayerCount: 2
Fore
SplineSet
503 276 m 1,0,-1
 304 453 l 1,1,-1
 292 396 l 1,2,-1
 445 259 l 1,3,-1
 234 123 l 1,4,-1
 223 67 l 1,5,-1
 495 239 l 1,6,-1
 503 276 l 1,0,-1
292 276 m 1,7,-1
 94 453 l 1,8,-1
 82 396 l 1,9,-1
 235 259 l 1,10,-1
 24 123 l 1,11,-1
 12 67 l 1,12,-1
 284 239 l 1,13,-1
 292 276 l 1,7,-1
EndSplineSet
EndChar

StartChar: onehalf
Encoding: 189 189 127
Width: 777
GlyphClass: 1
Flags: W
LayerCount: 2
Fore
SplineSet
183 370 m 1,0,-1
 260 731 l 1,1,-1
 216 731 l 1,2,3
 216 730 216 730 205.5 721 c 128,-1,4
 195 712 195 712 179.5 702 c 128,-1,5
 164 692 164 692 146.5 684 c 128,-1,6
 129 676 129 676 114 676 c 1,7,-1
 104 633 l 1,8,9
 116 633 116 633 131 638 c 128,-1,10
 146 643 146 643 160.5 650.5 c 128,-1,11
 175 658 175 658 187.5 666.5 c 128,-1,12
 200 675 200 675 206 681 c 1,13,-1
 140 370 l 1,14,-1
 63 370 l 1,15,-1
 54 327 l 1,16,-1
 245 327 l 1,17,-1
 254 370 l 1,18,-1
 183 370 l 1,0,-1
25 -4 m 1,19,-1
 352 337 l 1,20,-1
 696 685 l 1,21,-1
 668 714 l 1,22,-1
 330 360 l 1,23,-1
 -2 26 l 1,24,-1
 25 -4 l 1,19,-1
676 0 m 1,25,-1
 685 42 l 1,26,-1
 458 42 l 1,27,28
 461 56 461 56 468 71.5 c 128,-1,29
 475 87 475 87 488.5 102 c 128,-1,30
 502 117 502 117 524 131 c 128,-1,31
 546 145 546 145 579 156 c 0,32,33
 614 168 614 168 642.5 181 c 128,-1,34
 671 194 671 194 692.5 211.5 c 128,-1,35
 714 229 714 229 726 252.5 c 128,-1,36
 738 276 738 276 738 308 c 0,37,38
 738 349 738 349 710.5 376 c 128,-1,39
 683 403 683 403 624 403 c 0,40,41
 590 403 590 403 561.5 394.5 c 128,-1,42
 533 386 533 386 512 374.5 c 128,-1,43
 491 363 491 363 477 352 c 128,-1,44
 463 341 463 341 459 336 c 1,45,-1
 480 303 l 1,46,47
 489 311 489 311 502.5 321 c 128,-1,48
 516 331 516 331 533.5 340 c 128,-1,49
 551 349 551 349 571.5 355 c 128,-1,50
 592 361 592 361 615 361 c 0,51,52
 657 361 657 361 674 343 c 128,-1,53
 691 325 691 325 691 299 c 0,54,55
 691 272 691 272 676.5 254 c 128,-1,56
 662 236 662 236 640.5 223.5 c 128,-1,57
 619 211 619 211 592.5 202 c 128,-1,58
 566 193 566 193 540 183 c 0,59,60
 509 171 509 171 483 155 c 128,-1,61
 457 139 457 139 438.5 117.5 c 128,-1,62
 420 96 420 96 406.5 67 c 128,-1,63
 393 38 393 38 385 0 c 1,64,-1
 676 0 l 1,25,-1
EndSplineSet
EndChar

StartChar: questiondown
Encoding: 191 191 129
Width: 453
GlyphClass: 1
Flags: W
LayerCount: 2
Fore
SplineSet
255 306 m 1,0,1
 248 269 248 269 235.5 245 c 128,-1,2
 223 221 223 221 207.5 204.5 c 128,-1,3
 192 188 192 188 174 177 c 128,-1,4
 156 166 156 166 137 156 c 0,5,6
 110 142 110 142 83 127.5 c 128,-1,7
 56 113 56 113 33 93 c 128,-1,8
 10 73 10 73 -7 45.5 c 128,-1,9
 -24 18 -24 18 -32 -23 c 0,10,11
 -43 -71 -43 -71 -34.5 -106.5 c 128,-1,12
 -26 -142 -26 -142 -4.5 -166 c 128,-1,13
 17 -190 17 -190 48 -201.5 c 128,-1,14
 79 -213 79 -213 115 -213 c 0,15,16
 146 -213 146 -213 178 -204.5 c 128,-1,17
 210 -196 210 -196 240 -179.5 c 128,-1,18
 270 -163 270 -163 296.5 -139 c 128,-1,19
 323 -115 323 -115 343 -84 c 1,20,-1
 305 -55 l 1,21,22
 290 -77 290 -77 270 -96 c 128,-1,23
 250 -115 250 -115 227 -128.5 c 128,-1,24
 204 -142 204 -142 178.5 -150 c 128,-1,25
 153 -158 153 -158 127 -158 c 0,26,27
 103 -158 103 -158 80.5 -149.5 c 128,-1,28
 58 -141 58 -141 43.5 -125 c 128,-1,29
 29 -109 29 -109 23 -84 c 128,-1,30
 17 -59 17 -59 24 -26 c 0,31,32
 31 11 31 11 50.5 36 c 128,-1,33
 70 61 70 61 94 79 c 128,-1,34
 118 97 118 97 143.5 109.5 c 128,-1,35
 169 122 169 122 191 134 c 0,36,37
 214 147 214 147 232.5 162.5 c 128,-1,38
 251 178 251 178 265.5 198.5 c 128,-1,39
 280 219 280 219 291 245.5 c 128,-1,40
 302 272 302 272 309 306 c 1,41,-1
 255 306 l 1,0,1
362 466 m 0,42,43
 367 486 367 486 356.5 500 c 128,-1,44
 346 514 346 514 326 514 c 0,45,46
 316 514 316 514 306.5 510.5 c 128,-1,47
 297 507 297 507 289.5 500.5 c 128,-1,48
 282 494 282 494 276.5 485 c 128,-1,49
 271 476 271 476 269 466 c 0,50,51
 265 446 265 446 275.5 431.5 c 128,-1,52
 286 417 286 417 305 417 c 0,53,54
 315 417 315 417 324.5 421 c 128,-1,55
 334 425 334 425 341.5 431.5 c 128,-1,56
 349 438 349 438 355 446.5 c 128,-1,57
 361 455 361 455 362 466 c 0,42,43
EndSplineSet
EndChar

StartChar: AE
Encoding: 198 198 136
Width: 923
GlyphClass: 1
Flags: W
LayerCount: 2
Fore
SplineSet
-81 0 m 1,0,-1
 -8 0 l 1,1,-1
 173 223 l 1,2,-1
 418 223 l 1,3,-1
 370 0 l 1,4,-1
 818 0 l 1,5,-1
 831 60 l 1,6,-1
 449 60 l 1,7,-1
 507 332 l 1,8,-1
 829 332 l 1,9,-1
 842 392 l 1,10,-1
 520 392 l 1,11,-1
 575 650 l 1,12,-1
 948 650 l 1,13,-1
 961 710 l 1,14,-1
 504 710 l 1,15,-1
 -81 0 l 1,0,-1
216 283 m 1,16,-1
 500 629 l 1,17,-1
 427 283 l 1,18,-1
 216 283 l 1,16,-1
EndSplineSet
EndChar

StartChar: Idieresis
Encoding: 207 207 145
Width: 243
GlyphClass: 1
Flags: W
LayerCount: 2
Fore
SplineSet
24 0 m 1,0,-1
 91 0 l 1,1,-1
 242 709 l 1,2,-1
 175 709 l 1,3,-1
 24 0 l 1,0,-1
225 868 m 256,4,5
 221 848 221 848 230 833.5 c 128,-1,6
 239 819 239 819 257 819 c 256,7,8
 275 819 275 819 289.5 833.5 c 128,-1,9
 304 848 304 848 309 868 c 0,10,11
 313 888 313 888 304 902 c 128,-1,12
 295 916 295 916 277 916 c 256,13,14
 259 916 259 916 244 902 c 128,-1,15
 229 888 229 888 225 868 c 256,4,5
172 868 m 256,16,17
 168 848 168 848 176.5 833.5 c 128,-1,18
 185 819 185 819 203 819 c 256,19,20
 221 819 221 819 236 833.5 c 128,-1,21
 251 848 251 848 256 868 c 0,22,23
 260 888 260 888 251 902 c 128,-1,24
 242 916 242 916 224 916 c 256,25,26
 206 916 206 916 191 902 c 128,-1,27
 176 888 176 888 172 868 c 256,16,17
EndSplineSet
EndChar

StartChar: Eth
Encoding: 208 208 146
Width: 696
GlyphClass: 1
Flags: W
LayerCount: 2
Fore
SplineSet
44 331 m 1,0,-1
 330 331 l 1,1,-1
 341 383 l 1,2,-1
 55 383 l 1,3,-1
 44 331 l 1,0,-1
31 0 m 1,4,-1
 260 0 l 2,5,6
 349 0 349 0 424 33 c 128,-1,7
 499 66 499 66 554 124.5 c 128,-1,8
 609 183 609 183 639.5 263.5 c 128,-1,9
 670 344 670 344 670 438 c 0,10,11
 670 495 670 495 654.5 544.5 c 128,-1,12
 639 594 639 594 607 631 c 128,-1,13
 575 668 575 668 526.5 689 c 128,-1,14
 478 710 478 710 411 710 c 2,15,-1
 182 710 l 1,16,-1
 31 0 l 1,4,-1
111 60 m 1,17,-1
 236 650 l 1,18,-1
 399 650 l 2,19,20
 449 650 449 650 487 633.5 c 128,-1,21
 525 617 525 617 550 587.5 c 128,-1,22
 575 558 575 558 588 517 c 128,-1,23
 601 476 601 476 601 427 c 0,24,25
 601 354 601 354 578.5 288 c 128,-1,26
 556 222 556 222 513.5 171 c 128,-1,27
 471 120 471 120 410 90 c 128,-1,28
 349 60 349 60 273 60 c 2,29,-1
 111 60 l 1,17,-1
EndSplineSet
EndChar

StartChar: multiply
Encoding: 215 215 153
Width: 467
GlyphClass: 1
Flags: W
LayerCount: 2
Fore
SplineSet
268 272 m 1,0,-1
 389 393 l 1,1,-1
 347 436 l 1,2,-1
 226 314 l 1,3,-1
 106 435 l 1,4,-1
 63 393 l 1,5,-1
 184 272 l 1,6,-1
 62 151 l 1,7,-1
 104 108 l 1,8,-1
 226 231 l 1,9,-1
 348 108 l 1,10,-1
 391 150 l 1,11,-1
 268 272 l 1,0,-1
EndSplineSet
EndChar

StartChar: Thorn
Encoding: 222 222 160
Width: 579
GlyphClass: 1
Flags: W
LayerCount: 2
Fore
SplineSet
24 0 m 1,0,-1
 91 0 l 1,1,-1
 117 122 l 1,2,-1
 318 122 l 2,3,4
 368 122 368 122 413 145 c 128,-1,5
 458 168 458 168 491.5 205.5 c 128,-1,6
 525 243 525 243 545 289.5 c 128,-1,7
 565 336 565 336 565 384 c 0,8,9
 565 420 565 420 554.5 453 c 128,-1,10
 544 486 544 486 523.5 511.5 c 128,-1,11
 503 537 503 537 473.5 553 c 128,-1,12
 444 569 444 569 407 569 c 2,13,-1
 212 569 l 1,14,-1
 242 710 l 1,15,-1
 175 710 l 1,16,-1
 24 0 l 1,0,-1
130 182 m 1,17,-1
 199 509 l 1,18,-1
 391 509 l 2,19,20
 415 509 415 509 434.5 498.5 c 128,-1,21
 454 488 454 488 468 470 c 128,-1,22
 482 452 482 452 489.5 428 c 128,-1,23
 497 404 497 404 497 377 c 0,24,25
 497 343 497 343 484 308 c 128,-1,26
 471 273 471 273 448 244.5 c 128,-1,27
 425 216 425 216 394 199 c 128,-1,28
 363 182 363 182 328 182 c 2,29,-1
 130 182 l 1,17,-1
EndSplineSet
EndChar

StartChar: germandbls
Encoding: 223 223 161
Width: 529
GlyphClass: 1
Flags: W
LayerCount: 2
Fore
SplineSet
163 -6 m 1,0,1
 231 -4 231 -4 288.5 14 c 128,-1,2
 346 32 346 32 387 64 c 128,-1,3
 428 96 428 96 451.5 142 c 128,-1,4
 475 188 475 188 475 248 c 0,5,6
 475 305 475 305 446.5 347.5 c 128,-1,7
 418 390 418 390 362 403 c 1,8,9
 387 409 387 409 412 426.5 c 128,-1,10
 437 444 437 444 456 468 c 128,-1,11
 475 492 475 492 486.5 521.5 c 128,-1,12
 498 551 498 551 498 582 c 0,13,14
 498 641 498 641 457.5 677.5 c 128,-1,15
 417 714 417 714 351 714 c 0,16,17
 310 714 310 714 271.5 699.5 c 128,-1,18
 233 685 233 685 202 658.5 c 128,-1,19
 171 632 171 632 149.5 595.5 c 128,-1,20
 128 559 128 559 118 514 c 2,21,-1
 9 0 l 1,22,-1
 72 0 l 1,23,-1
 179 505 l 2,24,25
 186 537 186 537 199.5 564.5 c 128,-1,26
 213 592 213 592 233.5 612.5 c 128,-1,27
 254 633 254 633 279.5 645 c 128,-1,28
 305 657 305 657 336 657 c 0,29,30
 378 657 378 657 405.5 633 c 128,-1,31
 433 609 433 609 433 566 c 0,32,33
 433 537 433 537 421.5 512 c 128,-1,34
 410 487 410 487 390.5 468.5 c 128,-1,35
 371 450 371 450 345.5 439.5 c 128,-1,36
 320 429 320 429 290 429 c 2,37,-1
 273 429 l 1,38,-1
 261 369 l 1,39,-1
 279 369 l 2,40,41
 308 369 308 369 332 360 c 128,-1,42
 356 351 356 351 372.5 334.5 c 128,-1,43
 389 318 389 318 398 295 c 128,-1,44
 407 272 407 272 407 243 c 0,45,46
 407 197 407 197 390.5 162 c 128,-1,47
 374 127 374 127 343.5 103.5 c 128,-1,48
 313 80 313 80 270 67.5 c 128,-1,49
 227 55 227 55 176 54 c 1,50,-1
 163 -6 l 1,0,1
EndSplineSet
EndChar

StartChar: ae
Encoding: 230 230 168
Width: 933
GlyphClass: 1
Flags: W
LayerCount: 2
Fore
SplineSet
209 -10 m 0,0,1
 270 -10 270 -10 323 21.5 c 128,-1,2
 376 53 376 53 415 106 c 1,3,-1
 392 0 l 1,4,-1
 458 0 l 1,5,-1
 482 116 l 1,6,-1
 478 257 l 1,7,-1
 540 389 l 1,8,-1
 568 517 l 1,9,-1
 502 517 l 1,10,-1
 479 410 l 1,11,12
 463 463 463 463 422 496.5 c 128,-1,13
 381 530 381 530 319 530 c 0,14,15
 264 530 264 530 210.5 503.5 c 128,-1,16
 157 477 157 477 116 432 c 128,-1,17
 75 387 75 387 50 329 c 128,-1,18
 25 271 25 271 25 207 c 0,19,20
 25 163 25 163 37.5 123.5 c 128,-1,21
 50 84 50 84 73.5 54.5 c 128,-1,22
 97 25 97 25 131 7.5 c 128,-1,23
 165 -10 165 -10 209 -10 c 0,0,1
236 47 m 0,24,25
 202 47 202 47 176 60.5 c 128,-1,26
 150 74 150 74 131.5 97 c 128,-1,27
 113 120 113 120 103 151 c 128,-1,28
 93 182 93 182 93 217 c 0,29,30
 93 262 93 262 112 307 c 128,-1,31
 131 352 131 352 162.5 389 c 128,-1,32
 194 426 194 426 236 449 c 128,-1,33
 278 472 278 472 323 472 c 0,34,35
 352 472 352 472 376 462 c 128,-1,36
 400 452 400 452 418 434 c 128,-1,37
 436 416 436 416 448 391 c 128,-1,38
 460 366 460 366 464 337 c 1,39,-1
 430 177 l 1,40,41
 414 150 414 150 392.5 126.5 c 128,-1,42
 371 103 371 103 346 85.5 c 128,-1,43
 321 68 321 68 293 57.5 c 128,-1,44
 265 47 265 47 236 47 c 0,24,25
626 -10 m 0,45,46
 662 -10 662 -10 696.5 0 c 128,-1,47
 731 10 731 10 762 27 c 128,-1,48
 793 44 793 44 819.5 68.5 c 128,-1,49
 846 93 846 93 863 122 c 1,50,-1
 810 138 l 1,51,52
 797 116 797 116 777.5 98 c 128,-1,53
 758 80 758 80 735 67 c 128,-1,54
 712 54 712 54 687 47.5 c 128,-1,55
 662 41 662 41 637 41 c 0,56,57
 601 41 601 41 575.5 54.5 c 128,-1,58
 550 68 550 68 533.5 91.5 c 128,-1,59
 517 115 517 115 509.5 146 c 128,-1,60
 502 177 502 177 502 211 c 0,61,62
 502 256 502 256 516.5 303.5 c 128,-1,63
 531 351 531 351 559.5 390 c 128,-1,64
 588 429 588 429 631.5 454 c 128,-1,65
 675 479 675 479 732 479 c 0,66,67
 754 479 754 479 774.5 474 c 128,-1,68
 795 469 795 469 811 458 c 128,-1,69
 827 447 827 447 836 430.5 c 128,-1,70
 845 414 845 414 845 391 c 0,71,72
 845 367 845 367 833.5 347.5 c 128,-1,73
 822 328 822 328 797 313.5 c 128,-1,74
 772 299 772 299 731 291 c 128,-1,75
 690 283 690 283 630 283 c 0,76,77
 601 283 601 283 569.5 284.5 c 128,-1,78
 538 286 538 286 507 289 c 1,79,-1
 486 242 l 1,80,81
 523 238 523 238 558.5 236.5 c 128,-1,82
 594 235 594 235 627 235 c 0,83,84
 769 235 769 235 836.5 274 c 128,-1,85
 904 313 904 313 904 390 c 0,86,87
 904 425 904 425 890.5 451 c 128,-1,88
 877 477 877 477 854.5 494.5 c 128,-1,89
 832 512 832 512 801.5 521 c 128,-1,90
 771 530 771 530 737 530 c 0,91,92
 671 530 671 530 617.5 503 c 128,-1,93
 564 476 564 476 527 431.5 c 128,-1,94
 490 387 490 387 469.5 329.5 c 128,-1,95
 449 272 449 272 449 211 c 0,96,97
 449 165 449 165 459 124.5 c 128,-1,98
 469 84 469 84 490 54 c 128,-1,99
 511 24 511 24 544.5 7 c 128,-1,100
 578 -10 578 -10 626 -10 c 0,45,46
EndSplineSet
EndChar

StartChar: idieresis
Encoding: 239 239 177
Width: 216
GlyphClass: 1
Flags: W
LayerCount: 2
Fore
SplineSet
85 679 m 0,0,1
 81 659 81 659 90 644.5 c 128,-1,2
 99 630 99 630 116 630 c 0,3,4
 134 630 134 630 149 644.5 c 128,-1,5
 164 659 164 659 168 679 c 256,6,7
 172 699 172 699 163 713 c 128,-1,8
 154 727 154 727 137 727 c 256,9,10
 120 727 120 727 105 713 c 128,-1,11
 90 699 90 699 85 679 c 0,0,1
209 679 m 0,12,13
 205 659 205 659 214 644.5 c 128,-1,14
 223 630 223 630 240 630 c 0,15,16
 258 630 258 630 273 644.5 c 128,-1,17
 288 659 288 659 292 679 c 256,18,19
 296 699 296 699 287 713 c 128,-1,20
 278 727 278 727 261 727 c 256,21,22
 244 727 244 727 229 713 c 128,-1,23
 214 699 214 699 209 679 c 0,12,13
9 0 m 1,24,-1
 74 0 l 1,25,-1
 185 521 l 1,26,-1
 120 521 l 1,27,-1
 9 0 l 1,24,-1
EndSplineSet
EndChar

StartChar: eth
Encoding: 240 240 178
Width: 578
GlyphClass: 1
Flags: W
LayerCount: 2
Fore
SplineSet
541 371 m 0,0,1
 541 415 541 415 532 463 c 128,-1,2
 523 511 523 511 502.5 558 c 128,-1,3
 482 605 482 605 448 649.5 c 128,-1,4
 414 694 414 694 363 730 c 1,5,-1
 272 730 l 1,6,7
 329 692 329 692 366.5 653 c 128,-1,8
 404 614 404 614 427.5 575 c 128,-1,9
 451 536 451 536 462 497 c 128,-1,10
 473 458 473 458 476 418 c 0,11,12
 477 402 477 402 477.5 387 c 128,-1,13
 478 372 478 372 478 355 c 1,14,15
 463 409 463 409 418.5 441.5 c 128,-1,16
 374 474 374 474 310 474 c 0,17,18
 256 474 256 474 204 450.5 c 128,-1,19
 152 427 152 427 111.5 388 c 128,-1,20
 71 349 71 349 46 298 c 128,-1,21
 21 247 21 247 21 191 c 0,22,23
 21 149 21 149 35 112 c 128,-1,24
 49 75 49 75 75 48 c 128,-1,25
 101 21 101 21 137.5 5.5 c 128,-1,26
 174 -10 174 -10 217 -10 c 0,27,28
 277 -10 277 -10 334.5 16.5 c 128,-1,29
 392 43 392 43 438 92.5 c 128,-1,30
 484 142 484 142 512.5 212.5 c 128,-1,31
 541 283 541 283 541 371 c 0,0,1
88 199 m 0,32,33
 88 243 88 243 107.5 282.5 c 128,-1,34
 127 322 127 322 158.5 352.5 c 128,-1,35
 190 383 190 383 230.5 401 c 128,-1,36
 271 419 271 419 313 419 c 0,37,38
 345 419 345 419 371.5 408 c 128,-1,39
 398 397 398 397 417 377 c 128,-1,40
 436 357 436 357 446.5 330 c 128,-1,41
 457 303 457 303 457 272 c 0,42,43
 457 229 457 229 438 188.5 c 128,-1,44
 419 148 419 148 387 116.5 c 128,-1,45
 355 85 355 85 314.5 66 c 128,-1,46
 274 47 274 47 231 47 c 0,47,48
 200 47 200 47 173 59 c 128,-1,49
 146 71 146 71 127.5 91.5 c 128,-1,50
 109 112 109 112 98.5 139.5 c 128,-1,51
 88 167 88 167 88 199 c 0,32,33
538 713 m 1,52,-1
 422 646 l 1,53,-1
 402 640 l 1,54,-1
 274 566 l 1,55,-1
 289 537 l 1,56,-1
 420 613 l 1,57,-1
 442 620 l 1,58,-1
 553 684 l 1,59,-1
 538 713 l 1,52,-1
EndSplineSet
EndChar

StartChar: divide
Encoding: 247 247 185
Width: 537
GlyphClass: 1
Flags: W
LayerCount: 2
Fore
SplineSet
470 254 m 1,0,-1
 470 309 l 1,1,-1
 67 309 l 1,2,-1
 67 254 l 1,3,-1
 470 254 l 1,0,-1
219 116 m 256,4,5
 219 96 219 96 233.5 81.5 c 128,-1,6
 248 67 248 67 268 67 c 256,7,8
 288 67 288 67 302 81.5 c 128,-1,9
 316 96 316 96 316 116 c 256,10,11
 316 136 316 136 302 150 c 128,-1,12
 288 164 288 164 268 164 c 256,13,14
 248 164 248 164 233.5 150 c 128,-1,15
 219 136 219 136 219 116 c 256,4,5
220 449 m 256,16,17
 220 429 220 429 234 414 c 128,-1,18
 248 399 248 399 268 399 c 256,19,20
 288 399 288 399 302.5 414 c 128,-1,21
 317 429 317 429 317 449 c 256,22,23
 317 469 317 469 302.5 483 c 128,-1,24
 288 497 288 497 268 497 c 256,25,26
 248 497 248 497 234 483 c 128,-1,27
 220 469 220 469 220 449 c 256,16,17
EndSplineSet
EndChar

StartChar: oslash
Encoding: 248 248 186
Width: 572
GlyphClass: 1
Flags: W
LayerCount: 2
Fore
SplineSet
220 -10 m 0,0,1
 282 -10 282 -10 338.5 17 c 128,-1,2
 395 44 395 44 437.5 88.5 c 128,-1,3
 480 133 480 133 505 191 c 128,-1,4
 530 249 530 249 530 311 c 0,5,6
 530 356 530 356 516.5 396 c 128,-1,7
 503 436 503 436 478 465.5 c 128,-1,8
 453 495 453 495 417 512.5 c 128,-1,9
 381 530 381 530 335 530 c 0,10,11
 274 530 274 530 218 503 c 128,-1,12
 162 476 162 476 119 431.5 c 128,-1,13
 76 387 76 387 50.5 329 c 128,-1,14
 25 271 25 271 25 208 c 0,15,16
 25 163 25 163 38 123.5 c 128,-1,17
 51 84 51 84 76.5 54.5 c 128,-1,18
 102 25 102 25 138 7.5 c 128,-1,19
 174 -10 174 -10 220 -10 c 0,0,1
232 47 m 0,20,21
 201 47 201 47 175 60 c 128,-1,22
 149 73 149 73 130.5 95.5 c 128,-1,23
 112 118 112 118 102 149 c 128,-1,24
 92 180 92 180 92 216 c 0,25,26
 92 267 92 267 112 313.5 c 128,-1,27
 132 360 132 360 164.5 395.5 c 128,-1,28
 197 431 197 431 238.5 451.5 c 128,-1,29
 280 472 280 472 322 472 c 0,30,31
 354 472 354 472 379.5 459 c 128,-1,32
 405 446 405 446 423.5 423 c 128,-1,33
 442 400 442 400 452 369 c 128,-1,34
 462 338 462 338 462 302 c 0,35,36
 462 251 462 251 442 205 c 128,-1,37
 422 159 422 159 389.5 124 c 128,-1,38
 357 89 357 89 316 68 c 128,-1,39
 275 47 275 47 232 47 c 0,20,21
27 -1 m 1,40,-1
 71 -1 l 1,41,-1
 125 55 l 1,42,-1
 104 80 l 1,43,-1
 27 -1 l 1,40,-1
129 60 m 1,44,-1
 451 443 l 1,45,-1
 428 463 l 1,46,-1
 109 82 l 1,47,-1
 129 60 l 1,44,-1
457 447 m 1,48,-1
 528 522 l 1,49,-1
 483 522 l 1,50,-1
 431 467 l 1,51,-1
 457 447 l 1,48,-1
EndSplineSet
EndChar

StartChar: thorn
Encoding: 254 254 192
Width: 578
GlyphClass: 1
Flags: W
LayerCount: 2
Fore
SplineSet
29 -213 m 1,0,-1
 98 108 l 1,1,2
 107 84 107 84 121.5 62 c 128,-1,3
 136 40 136 40 157 24 c 128,-1,4
 178 8 178 8 204 -1 c 128,-1,5
 230 -10 230 -10 261 -10 c 0,6,7
 319 -10 319 -10 371.5 17 c 128,-1,8
 424 44 424 44 463.5 89 c 128,-1,9
 503 134 503 134 526 192 c 128,-1,10
 549 250 549 250 549 311 c 0,11,12
 549 354 549 354 536.5 393.5 c 128,-1,13
 524 433 524 433 500 463.5 c 128,-1,14
 476 494 476 494 442 512 c 128,-1,15
 408 530 408 530 365 530 c 0,16,17
 338 530 338 530 310.5 522.5 c 128,-1,18
 283 515 283 515 257.5 501.5 c 128,-1,19
 232 488 232 488 208.5 469.5 c 128,-1,20
 185 451 185 451 166 428 c 1,21,-1
 227 710 l 1,22,-1
 160 710 l 1,23,-1
 -36 -213 l 1,24,-1
 29 -213 l 1,0,-1
255 47 m 0,25,26
 227 47 227 47 203.5 57.5 c 128,-1,27
 180 68 180 68 161.5 85.5 c 128,-1,28
 143 103 143 103 130.5 127.5 c 128,-1,29
 118 152 118 152 112 180 c 1,30,-1
 147 341 l 1,31,32
 157 368 157 368 178.5 392 c 128,-1,33
 200 416 200 416 227 433.5 c 128,-1,34
 254 451 254 451 283.5 461.5 c 128,-1,35
 313 472 313 472 337 472 c 0,36,37
 370 472 370 472 396.5 458.5 c 128,-1,38
 423 445 423 445 442 421.5 c 128,-1,39
 461 398 461 398 471 367 c 128,-1,40
 481 336 481 336 481 301 c 0,41,42
 481 255 481 255 463 210 c 128,-1,43
 445 165 445 165 414 128.5 c 128,-1,44
 383 92 383 92 342 69.5 c 128,-1,45
 301 47 301 47 255 47 c 0,25,26
EndSplineSet
EndChar

StartChar: Dcroat
Encoding: 272 272 210
Width: 696
GlyphClass: 1
Flags: W
LayerCount: 2
Fore
SplineSet
44 331 m 1,0,-1
 330 331 l 1,1,-1
 341 383 l 1,2,-1
 55 383 l 1,3,-1
 44 331 l 1,0,-1
31 0 m 1,4,-1
 260 0 l 2,5,6
 349 0 349 0 424 33 c 128,-1,7
 499 66 499 66 554 124.5 c 128,-1,8
 609 183 609 183 639.5 263.5 c 128,-1,9
 670 344 670 344 670 438 c 0,10,11
 670 495 670 495 654.5 544.5 c 128,-1,12
 639 594 639 594 607 631 c 128,-1,13
 575 668 575 668 526.5 689 c 128,-1,14
 478 710 478 710 411 710 c 2,15,-1
 182 710 l 1,16,-1
 31 0 l 1,4,-1
111 60 m 1,17,-1
 236 650 l 1,18,-1
 399 650 l 2,19,20
 449 650 449 650 487 633.5 c 128,-1,21
 525 617 525 617 550 587.5 c 128,-1,22
 575 558 575 558 588 517 c 128,-1,23
 601 476 601 476 601 427 c 0,24,25
 601 354 601 354 578.5 288 c 128,-1,26
 556 222 556 222 513.5 171 c 128,-1,27
 471 120 471 120 410 90 c 128,-1,28
 349 60 349 60 273 60 c 2,29,-1
 111 60 l 1,17,-1
EndSplineSet
EndChar

StartChar: dcroat
Encoding: 273 273 211
Width: 597
GlyphClass: 1
Flags: W
LayerCount: 2
Fore
SplineSet
420 612 m 1,0,-1
 660 612 l 1,1,-1
 670 656 l 1,2,-1
 429 656 l 1,3,-1
 420 612 l 1,0,-1
211 -10 m 0,4,5
 239 -10 239 -10 266 -2.5 c 128,-1,6
 293 5 293 5 319 19.5 c 128,-1,7
 345 34 345 34 368 53.5 c 128,-1,8
 391 73 391 73 410 97 c 1,9,-1
 390 0 l 1,10,-1
 455 0 l 1,11,-1
 610 730 l 1,12,-1
 545 730 l 1,13,-1
 477 411 l 1,14,15
 467 436 467 436 452 457.5 c 128,-1,16
 437 479 437 479 417 495 c 128,-1,17
 397 511 397 511 371.5 520.5 c 128,-1,18
 346 530 346 530 314 530 c 0,19,20
 258 530 258 530 206 503 c 128,-1,21
 154 476 154 476 113.5 431 c 128,-1,22
 73 386 73 386 49 328 c 128,-1,23
 25 270 25 270 25 208 c 0,24,25
 25 165 25 165 37.5 125.5 c 128,-1,26
 50 86 50 86 74 56 c 128,-1,27
 98 26 98 26 132.5 8 c 128,-1,28
 167 -10 167 -10 211 -10 c 0,4,5
237 47 m 0,29,30
 204 47 204 47 177.5 60.5 c 128,-1,31
 151 74 151 74 132.5 97.5 c 128,-1,32
 114 121 114 121 104 152 c 128,-1,33
 94 183 94 183 94 218 c 0,34,35
 94 264 94 264 112 309.5 c 128,-1,36
 130 355 130 355 160.5 391 c 128,-1,37
 191 427 191 427 232.5 449.5 c 128,-1,38
 274 472 274 472 320 472 c 0,39,40
 345 472 345 472 369.5 462 c 128,-1,41
 394 452 394 452 413.5 434 c 128,-1,42
 433 416 433 416 446 392 c 128,-1,43
 459 368 459 368 462 341 c 1,44,-1
 428 178 l 2,45,46
 420 152 420 152 398 128 c 128,-1,47
 376 104 376 104 348.5 86 c 128,-1,48
 321 68 321 68 291.5 57.5 c 128,-1,49
 262 47 262 47 237 47 c 0,29,30
EndSplineSet
EndChar

StartChar: hcircumflex
Encoding: 293 293 231
Width: 558
GlyphClass: 1
Flags: W
LayerCount: 2
Fore
SplineSet
9 0 m 1,0,-1
 74 0 l 1,1,-1
 142 319 l 1,2,3
 158 352 158 352 181.5 379.5 c 128,-1,4
 205 407 205 407 233 427 c 128,-1,5
 261 447 261 447 290 458.5 c 128,-1,6
 319 470 319 470 347 470 c 0,7,8
 389 470 389 470 410.5 444.5 c 128,-1,9
 432 419 432 419 432 368 c 0,10,11
 432 351 432 351 429.5 332 c 128,-1,12
 427 313 427 313 423 291 c 2,13,-1
 361 0 l 1,14,-1
 426 0 l 1,15,-1
 491 304 l 2,16,17
 496 330 496 330 498.5 353 c 128,-1,18
 501 376 501 376 501 397 c 0,19,20
 501 428 501 428 494.5 452.5 c 128,-1,21
 488 477 488 477 473.5 494 c 128,-1,22
 459 511 459 511 436.5 520.5 c 128,-1,23
 414 530 414 530 382 530 c 0,24,25
 351 530 351 530 320.5 521 c 128,-1,26
 290 512 290 512 261.5 495.5 c 128,-1,27
 233 479 233 479 207 455 c 128,-1,28
 181 431 181 431 160 402 c 1,29,-1
 229 730 l 1,30,-1
 164 730 l 1,31,-1
 9 0 l 1,0,-1
435 917 m 1,32,-1
 369 917 l 1,33,-1
 258 787 l 1,34,-1
 294 787 l 1,35,-1
 435 917 l 1,32,-1
382 917 m 1,36,-1
 469 787 l 1,37,-1
 506 787 l 1,38,-1
 448 917 l 1,39,-1
 382 917 l 1,36,-1
EndSplineSet
EndChar

StartChar: Hbar
Encoding: 294 294 232
Width: 718
GlyphClass: 1
Flags: W
LayerCount: 2
Fore
SplineSet
99 550 m 1,0,-1
 726 550 l 1,1,-1
 734 588 l 1,2,-1
 107 588 l 1,3,-1
 99 550 l 1,0,-1
30 0 m 1,4,-1
 96 0 l 1,5,-1
 167 333 l 1,6,-1
 566 333 l 1,7,-1
 495 0 l 1,8,-1
 562 0 l 1,9,-1
 713 710 l 1,10,-1
 646 710 l 1,11,-1
 579 393 l 1,12,-1
 180 393 l 1,13,-1
 247 710 l 1,14,-1
 181 710 l 1,15,-1
 30 0 l 1,4,-1
EndSplineSet
EndChar

StartChar: hbar
Encoding: 295 295 233
Width: 558
GlyphClass: 1
Flags: W
LayerCount: 2
Fore
SplineSet
69 612 m 1,0,-1
 310 612 l 1,1,-1
 319 656 l 1,2,-1
 79 656 l 1,3,-1
 69 612 l 1,0,-1
9 0 m 1,4,-1
 74 0 l 1,5,-1
 142 319 l 1,6,7
 158 352 158 352 181.5 379.5 c 128,-1,8
 205 407 205 407 233 427 c 128,-1,9
 261 447 261 447 290 458.5 c 128,-1,10
 319 470 319 470 347 470 c 0,11,12
 389 470 389 470 410.5 444.5 c 128,-1,13
 432 419 432 419 432 368 c 0,14,15
 432 351 432 351 429.5 332 c 128,-1,16
 427 313 427 313 423 291 c 2,17,-1
 361 0 l 1,18,-1
 426 0 l 1,19,-1
 491 304 l 2,20,21
 496 330 496 330 498.5 353 c 128,-1,22
 501 376 501 376 501 397 c 0,23,24
 501 428 501 428 494.5 452.5 c 128,-1,25
 488 477 488 477 473.5 494 c 128,-1,26
 459 511 459 511 436.5 520.5 c 128,-1,27
 414 530 414 530 382 530 c 0,28,29
 351 530 351 530 320.5 521 c 128,-1,30
 290 512 290 512 261.5 495.5 c 128,-1,31
 233 479 233 479 207 455 c 128,-1,32
 181 431 181 431 160 402 c 1,33,-1
 229 730 l 1,34,-1
 164 730 l 1,35,-1
 9 0 l 1,4,-1
EndSplineSet
EndChar

StartChar: dotlessi
Encoding: 305 305 243
Width: 211
GlyphClass: 1
Flags: W
LayerCount: 2
Fore
SplineSet
9 0 m 1,0,-1
 74 0 l 1,1,-1
 185 521 l 1,2,-1
 120 521 l 1,3,-1
 9 0 l 1,0,-1
EndSplineSet
EndChar

StartChar: kgreenlandic
Encoding: 312 312 248
Width: 507
GlyphClass: 1
Flags: W
LayerCount: 2
Fore
SplineSet
9 0 m 1,0,-1
 74 0 l 1,1,-1
 109 164 l 1,2,-1
 238 269 l 1,3,-1
 363 0 l 1,4,-1
 434 0 l 1,5,-1
 288 307 l 1,6,-1
 536 520 l 1,7,-1
 463 520 l 1,8,-1
 124 232 l 1,9,-1
 185 521 l 1,10,-1
 120 521 l 1,11,-1
 9 0 l 1,0,-1
EndSplineSet
EndChar

StartChar: Lslash
Encoding: 321 321 257
Width: 563
GlyphClass: 1
Flags: W
LayerCount: 2
Fore
SplineSet
25 229 m 1,0,-1
 369 485 l 1,1,-1
 357 522 l 1,2,-1
 12 267 l 1,3,-1
 25 229 l 1,0,-1
24 0 m 1,4,-1
 481 0 l 1,5,-1
 493 60 l 1,6,-1
 104 60 l 1,7,-1
 242 710 l 1,8,-1
 175 710 l 1,9,-1
 24 0 l 1,4,-1
EndSplineSet
EndChar

StartChar: lslash
Encoding: 322 322 258
Width: 280
GlyphClass: 1
Flags: W
LayerCount: 2
Fore
SplineSet
31 290 m 1,0,-1
 305 483 l 1,1,-1
 290 521 l 1,2,-1
 17 327 l 1,3,-1
 31 290 l 1,0,-1
124 -6 m 0,4,5
 144 -6 144 -6 171.5 -1 c 128,-1,6
 199 4 199 4 219 12 c 1,7,-1
 220 64 l 1,8,9
 206 60 206 60 190.5 56.5 c 128,-1,10
 175 53 175 53 164 53 c 0,11,12
 141 53 141 53 129.5 65 c 128,-1,13
 118 77 118 77 118 98 c 0,14,15
 118 104 118 104 119 111.5 c 128,-1,16
 120 119 120 119 122 129 c 2,17,-1
 250 730 l 1,18,-1
 185 730 l 1,19,-1
 50 94 l 2,20,21
 48 87 48 87 47 80 c 128,-1,22
 46 73 46 73 46 66 c 0,23,24
 46 32 46 32 66.5 13 c 128,-1,25
 87 -6 87 -6 124 -6 c 0,4,5
EndSplineSet
EndChar

StartChar: Eng
Encoding: 330 330 265
Width: 736
GlyphClass: 1
Flags: W
LayerCount: 2
Fore
SplineSet
398 -181 m 0,0,1
 425 -181 425 -181 454 -169.5 c 128,-1,2
 483 -158 483 -158 508 -137.5 c 128,-1,3
 533 -117 533 -117 551.5 -88.5 c 128,-1,4
 570 -60 570 -60 578 -25 c 2,5,-1
 734 709 l 1,6,-1
 667 709 l 1,7,-1
 541 117 l 1,8,-1
 226 710 l 1,9,-1
 175 710 l 1,10,-1
 24 0 l 1,11,-1
 91 0 l 1,12,-1
 215 584 l 1,13,-1
 519 9 l 1,14,-1
 512 -27 l 2,15,16
 507 -47 507 -47 496 -65 c 128,-1,17
 485 -83 485 -83 470 -95 c 128,-1,18
 455 -107 455 -107 437.5 -114.5 c 128,-1,19
 420 -122 420 -122 403 -122 c 0,20,21
 385 -122 385 -122 368 -117 c 128,-1,22
 351 -112 351 -112 340 -98 c 1,23,-1
 298 -141 l 1,24,25
 315 -163 315 -163 341 -172 c 128,-1,26
 367 -181 367 -181 398 -181 c 0,0,1
EndSplineSet
EndChar

StartChar: eng
Encoding: 331 331 266
Width: 558
GlyphClass: 1
Flags: W
LayerCount: 2
Fore
SplineSet
241 -181 m 0,0,1
 269 -181 269 -181 298 -169 c 128,-1,2
 327 -157 327 -157 351.5 -136 c 128,-1,3
 376 -115 376 -115 395 -86.5 c 128,-1,4
 414 -58 414 -58 421 -23 c 2,5,-1
 491 304 l 2,6,7
 496 332 496 332 499.5 357.5 c 128,-1,8
 503 383 503 383 503 406 c 0,9,10
 503 435 503 435 497 458 c 128,-1,11
 491 481 491 481 477.5 497 c 128,-1,12
 464 513 464 513 442.5 521.5 c 128,-1,13
 421 530 421 530 391 530 c 0,14,15
 358 530 358 530 324.5 520.5 c 128,-1,16
 291 511 291 511 260.5 494.5 c 128,-1,17
 230 478 230 478 202.5 454 c 128,-1,18
 175 430 175 430 154 402 c 1,19,-1
 180 521 l 1,20,-1
 120 521 l 1,21,-1
 9 0 l 1,22,-1
 74 0 l 1,23,-1
 142 319 l 1,24,25
 158 352 158 352 182.5 379.5 c 128,-1,26
 207 407 207 407 236 427 c 128,-1,27
 265 447 265 447 295.5 458.5 c 128,-1,28
 326 470 326 470 355 470 c 0,29,30
 394 470 394 470 413.5 447.5 c 128,-1,31
 433 425 433 425 433 377 c 0,32,33
 433 359 433 359 430.5 337.5 c 128,-1,34
 428 316 428 316 423 291 c 2,35,-1
 355 -27 l 2,36,37
 351 -47 351 -47 339.5 -65 c 128,-1,38
 328 -83 328 -83 313 -95 c 128,-1,39
 298 -107 298 -107 281 -114.5 c 128,-1,40
 264 -122 264 -122 247 -122 c 0,41,42
 229 -122 229 -122 212 -117 c 128,-1,43
 195 -112 195 -112 183 -98 c 1,44,-1
 141 -141 l 1,45,46
 159 -163 159 -163 184.5 -172 c 128,-1,47
 210 -181 210 -181 241 -181 c 0,0,1
EndSplineSet
EndChar

StartChar: OE
Encoding: 338 338 273
Width: 1101
GlyphClass: 1
Flags: W
LayerCount: 2
Fore
SplineSet
297 -5 m 0,0,1
 339 -5 339 -5 380.5 9.5 c 128,-1,2
 422 24 422 24 459.5 49 c 128,-1,3
 497 74 497 74 529.5 108.5 c 128,-1,4
 562 143 562 143 587 183 c 1,5,-1
 548 0 l 1,6,-1
 996 0 l 1,7,-1
 1009 60 l 1,8,-1
 627 60 l 1,9,-1
 685 332 l 1,10,-1
 1007 332 l 1,11,-1
 1020 392 l 1,12,-1
 698 392 l 1,13,-1
 753 650 l 1,14,-1
 1126 650 l 1,15,-1
 1139 710 l 1,16,-1
 699 710 l 1,17,-1
 660 527 l 1,18,19
 652 566 652 566 635 600 c 128,-1,20
 618 634 618 634 591.5 660 c 128,-1,21
 565 686 565 686 529.5 700.5 c 128,-1,22
 494 715 494 715 450 715 c 0,23,24
 373 715 373 715 300 679 c 128,-1,25
 227 643 227 643 171 583 c 128,-1,26
 115 523 115 523 81 446 c 128,-1,27
 47 369 47 369 47 288 c 0,28,29
 47 231 47 231 63.5 178 c 128,-1,30
 80 125 80 125 112 84.5 c 128,-1,31
 144 44 144 44 190.5 19.5 c 128,-1,32
 237 -5 237 -5 297 -5 c 0,0,1
309 56 m 0,33,34
 262 56 262 56 226 75.5 c 128,-1,35
 190 95 190 95 165 127.5 c 128,-1,36
 140 160 140 160 127.5 203 c 128,-1,37
 115 246 115 246 115 294 c 0,38,39
 115 358 115 358 140.5 422.5 c 128,-1,40
 166 487 166 487 210 538.5 c 128,-1,41
 254 590 254 590 312.5 622 c 128,-1,42
 371 654 371 654 437 654 c 0,43,44
 482 654 482 654 518 634.5 c 128,-1,45
 554 615 554 615 579 582.5 c 128,-1,46
 604 550 604 550 617 506.5 c 128,-1,47
 630 463 630 463 630 416 c 0,48,49
 630 352 630 352 604.5 288 c 128,-1,50
 579 224 579 224 535.5 172 c 128,-1,51
 492 120 492 120 433.5 88 c 128,-1,52
 375 56 375 56 309 56 c 0,33,34
EndSplineSet
EndChar

StartChar: Tbar
Encoding: 358 358 293
Width: 617
GlyphClass: 1
Flags: W
LayerCount: 2
Fore
SplineSet
79 368 m 1,0,-1
 563 368 l 1,1,-1
 571 406 l 1,2,-1
 87 406 l 1,3,-1
 79 368 l 1,0,-1
209 0 m 1,4,-1
 276 0 l 1,5,-1
 414 650 l 1,6,-1
 654 650 l 1,7,-1
 667 710 l 1,8,-1
 120 710 l 1,9,-1
 107 650 l 1,10,-1
 347 650 l 1,11,-1
 209 0 l 1,4,-1
EndSplineSet
EndChar

StartChar: tbar
Encoding: 359 359 294
Width: 320
GlyphClass: 1
Flags: W
LayerCount: 2
Fore
SplineSet
23 302 m 1,0,-1
 271 302 l 1,1,-1
 280 346 l 1,2,-1
 33 346 l 1,3,-1
 23 302 l 1,0,-1
48 68 m 0,4,5
 48 31 48 31 72.5 12.5 c 128,-1,6
 97 -6 97 -6 134 -6 c 0,7,8
 154 -6 154 -6 172.5 -2.5 c 128,-1,9
 191 1 191 1 207 5.5 c 128,-1,10
 223 10 223 10 235 15.5 c 128,-1,11
 247 21 247 21 253 25 c 1,12,-1
 247 77 l 1,13,14
 244 76 244 76 236 72 c 128,-1,15
 228 68 228 68 217 64 c 128,-1,16
 206 60 206 60 193 57 c 128,-1,17
 180 54 180 54 167 54 c 0,18,19
 146 54 146 54 132 65 c 128,-1,20
 118 76 118 76 118 98 c 0,21,22
 118 103 118 103 119.5 109.5 c 128,-1,23
 121 116 121 116 123 128 c 2,24,-1
 196 468 l 1,25,-1
 309 468 l 1,26,-1
 320 521 l 1,27,-1
 207 521 l 1,28,-1
 244 697 l 1,29,-1
 179 697 l 1,30,-1
 142 521 l 1,31,-1
 73 521 l 1,32,-1
 62 468 l 1,33,-1
 131 468 l 1,34,-1
 51 93 l 2,35,36
 49 86 49 86 48.5 80 c 128,-1,37
 48 74 48 74 48 68 c 0,4,5
EndSplineSet
EndChar

StartChar: uni018F
Encoding: 399 399 318
Width: 706
GlyphClass: 1
Flags: W
LayerCount: 2
Fore
SplineSet
282 -7 m 0,0,1
 358 -7 358 -7 430 27.5 c 128,-1,2
 502 62 502 62 557.5 121 c 128,-1,3
 613 180 613 180 647 258 c 128,-1,4
 681 336 681 336 681 424 c 0,5,6
 681 485 681 485 663.5 538 c 128,-1,7
 646 591 646 591 614 630.5 c 128,-1,8
 582 670 582 670 536.5 692.5 c 128,-1,9
 491 715 491 715 435 715 c 0,10,11
 391 715 391 715 346.5 702 c 128,-1,12
 302 689 302 689 261 666.5 c 128,-1,13
 220 644 220 644 184.5 611.5 c 128,-1,14
 149 579 149 579 124 541 c 1,15,-1
 182 512 l 1,16,17
 199 543 199 543 225 569 c 128,-1,18
 251 595 251 595 282 613.5 c 128,-1,19
 313 632 313 632 348 642.5 c 128,-1,20
 383 653 383 653 417 653 c 0,21,22
 460 653 460 653 495 636 c 128,-1,23
 530 619 530 619 555.5 589.5 c 128,-1,24
 581 560 581 560 594.5 518.5 c 128,-1,25
 608 477 608 477 608 428 c 0,26,27
 608 416 608 416 607.5 405 c 128,-1,28
 607 394 607 394 605 382 c 1,29,-1
 47 382 l 1,30,31
 41 366 41 366 35 339 c 128,-1,32
 29 312 29 312 29 275 c 0,33,34
 29 215 29 215 47 163.5 c 128,-1,35
 65 112 65 112 98.5 74.5 c 128,-1,36
 132 37 132 37 178.5 15 c 128,-1,37
 225 -7 225 -7 282 -7 c 0,0,1
294 55 m 0,38,39
 245 55 245 55 207.5 72 c 128,-1,40
 170 89 170 89 145 117.5 c 128,-1,41
 120 146 120 146 107.5 184 c 128,-1,42
 95 222 95 222 95 264 c 0,43,44
 95 279 95 279 96.5 293.5 c 128,-1,45
 98 308 98 308 101 323 c 1,46,-1
 594 323 l 1,47,48
 580 266 580 266 550 216.5 c 128,-1,49
 520 167 520 167 480 131 c 128,-1,50
 440 95 440 95 392.5 75 c 128,-1,51
 345 55 345 55 294 55 c 0,38,39
EndSplineSet
EndChar

StartChar: florin
Encoding: 402 402 319
Width: 504
GlyphClass: 1
Flags: W
LayerCount: 2
Fore
SplineSet
37 -181 m 0,0,1
 65 -181 65 -181 93.5 -169.5 c 128,-1,2
 122 -158 122 -158 147 -137.5 c 128,-1,3
 172 -117 172 -117 190 -88.5 c 128,-1,4
 208 -60 208 -60 216 -26 c 2,5,-1
 308 407 l 1,6,-1
 444 407 l 1,7,-1
 456 460 l 1,8,-1
 320 460 l 1,9,-1
 336 537 l 2,10,11
 351 609 351 609 382.5 646.5 c 128,-1,12
 414 684 414 684 459 684 c 0,13,14
 479 684 479 684 497.5 677.5 c 128,-1,15
 516 671 516 671 527 660 c 1,16,-1
 556 707 l 1,17,18
 539 722 539 722 513 731 c 128,-1,19
 487 740 487 740 459 740 c 0,20,21
 425 740 425 740 395 726 c 128,-1,22
 365 712 365 712 340.5 685.5 c 128,-1,23
 316 659 316 659 298 621 c 128,-1,24
 280 583 280 583 270 535 c 2,25,-1
 254 460 l 1,26,-1
 185 460 l 1,27,-1
 174 407 l 1,28,-1
 243 407 l 1,29,-1
 150 -27 l 2,30,31
 146 -47 146 -47 135 -65 c 128,-1,32
 124 -83 124 -83 109 -95 c 128,-1,33
 94 -107 94 -107 76.5 -114.5 c 128,-1,34
 59 -122 59 -122 42 -122 c 0,35,36
 24 -122 24 -122 7 -117 c 128,-1,37
 -10 -112 -10 -112 -22 -98 c 1,38,-1
 -63 -141 l 1,39,40
 -46 -163 -46 -163 -20 -172 c 128,-1,41
 6 -181 6 -181 37 -181 c 0,0,1
EndSplineSet
EndChar

StartChar: Aringacute
Encoding: 506 506 328
Width: 650
GlyphClass: 1
Flags: W
LayerCount: 2
Fore
SplineSet
-44 0 m 1,0,-1
 27 0 l 1,1,-1
 161 223 l 1,2,-1
 463 223 l 1,3,-1
 503 0 l 1,4,-1
 574 0 l 1,5,-1
 445 710 l 1,6,-1
 387 710 l 1,7,-1
 -44 0 l 1,0,-1
186 277 m 1,8,-1
 400 631 l 1,9,-1
 459 277 l 1,10,-1
 186 277 l 1,8,-1
596 965 m 1,11,-1
 523 965 l 1,12,-1
 417 810 l 1,13,-1
 459 810 l 1,14,-1
 596 965 l 1,11,-1
357 759 m 0,15,16
 357 735 357 735 372.5 720.5 c 128,-1,17
 388 706 388 706 414 706 c 0,18,19
 450 706 450 706 475 728 c 128,-1,20
 500 750 500 750 500 783 c 0,21,22
 500 807 500 807 485 821.5 c 128,-1,23
 470 836 470 836 443 836 c 0,24,25
 408 836 408 836 382.5 814.5 c 128,-1,26
 357 793 357 793 357 759 c 0,15,16
437 810 m 0,27,28
 451 810 451 810 460 801.5 c 128,-1,29
 469 793 469 793 469 778 c 0,30,31
 469 758 469 758 453 745 c 128,-1,32
 437 732 437 732 420 732 c 0,33,34
 406 732 406 732 397.5 741 c 128,-1,35
 389 750 389 750 389 764 c 0,36,37
 389 784 389 784 404 797 c 128,-1,38
 419 810 419 810 437 810 c 0,27,28
EndSplineSet
EndChar

StartChar: uni0237
Encoding: 567 567 370
Width: 211
GlyphClass: 1
Flags: W
LayerCount: 2
Fore
SplineSet
-111 -181 m 0,0,1
 -83 -181 -83 -181 -54 -169 c 128,-1,2
 -25 -157 -25 -157 0 -136 c 128,-1,3
 25 -115 25 -115 43.5 -86.5 c 128,-1,4
 62 -58 62 -58 69 -23 c 2,5,-1
 185 521 l 1,6,-1
 120 521 l 1,7,-1
 3 -27 l 2,8,9
 -1 -47 -1 -47 -12 -65 c 128,-1,10
 -23 -83 -23 -83 -38.5 -95 c 128,-1,11
 -54 -107 -54 -107 -71.5 -114.5 c 128,-1,12
 -89 -122 -89 -122 -105 -122 c 0,13,14
 -123 -122 -123 -122 -140 -117 c 128,-1,15
 -157 -112 -157 -112 -169 -98 c 1,16,-1
 -211 -141 l 1,17,18
 -193 -163 -193 -163 -167.5 -172 c 128,-1,19
 -142 -181 -142 -181 -111 -181 c 0,0,1
EndSplineSet
EndChar

StartChar: uni0259
Encoding: 601 601 371
Width: 561
GlyphClass: 1
Flags: W
LayerCount: 2
Fore
SplineSet
210 -10 m 0,0,1
 272 -10 272 -10 328 16 c 128,-1,2
 384 42 384 42 426 86.5 c 128,-1,3
 468 131 468 131 493 188.5 c 128,-1,4
 518 246 518 246 518 309 c 0,5,6
 518 355 518 355 504.5 395.5 c 128,-1,7
 491 436 491 436 465.5 466 c 128,-1,8
 440 496 440 496 404 513 c 128,-1,9
 368 530 368 530 322 530 c 0,10,11
 286 530 286 530 250.5 520 c 128,-1,12
 215 510 215 510 183.5 493 c 128,-1,13
 152 476 152 476 126 452.5 c 128,-1,14
 100 429 100 429 83 400 c 1,15,-1
 136 385 l 1,16,17
 149 405 149 405 168.5 422.5 c 128,-1,18
 188 440 188 440 211 452 c 128,-1,19
 234 464 234 464 259 471 c 128,-1,20
 284 478 284 478 308 478 c 0,21,22
 339 478 339 478 365.5 466.5 c 128,-1,23
 392 455 392 455 410.5 433.5 c 128,-1,24
 429 412 429 412 439.5 383 c 128,-1,25
 450 354 450 354 450 318 c 0,26,27
 450 309 450 309 449.5 300.5 c 128,-1,28
 449 292 449 292 448 283 c 1,29,-1
 26 283 l 1,30,31
 18 263 18 263 15 240 c 128,-1,32
 12 217 12 217 12 196 c 0,33,34
 12 152 12 152 25.5 114.5 c 128,-1,35
 39 77 39 77 64.5 49.5 c 128,-1,36
 90 22 90 22 127 6 c 128,-1,37
 164 -10 164 -10 210 -10 c 0,0,1
221 41 m 0,38,39
 189 41 189 41 162 52.5 c 128,-1,40
 135 64 135 64 116 85 c 128,-1,41
 97 106 97 106 86.5 135.5 c 128,-1,42
 76 165 76 165 76 200 c 0,43,44
 76 209 76 209 76.5 218.5 c 128,-1,45
 77 228 77 228 79 238 c 1,46,-1
 440 238 l 1,47,48
 429 195 429 195 406.5 159 c 128,-1,49
 384 123 384 123 355 96.5 c 128,-1,50
 326 70 326 70 291.5 55.5 c 128,-1,51
 257 41 257 41 221 41 c 0,38,39
EndSplineSet
EndChar

StartChar: uni02BC
Encoding: 700 700 375
Width: 195
GlyphClass: 1
Flags: W
LayerCount: 2
Fore
SplineSet
265 730 m 1,0,-1
 192 730 l 1,1,-1
 85 570 l 1,2,-1
 128 570 l 1,3,-1
 265 730 l 1,0,-1
EndSplineSet
EndChar

StartChar: uni02BE
Encoding: 702 702 376
Width: 136
GlyphClass: 1
Flags: W
LayerCount: 2
Fore
SplineSet
105 588 m 1,0,1
 122 588 122 588 137.5 596 c 128,-1,2
 153 604 153 604 164.5 618 c 128,-1,3
 176 632 176 632 183 651.5 c 128,-1,4
 190 671 190 671 190 693 c 0,5,6
 190 721 190 721 179 737.5 c 128,-1,7
 168 754 168 754 147 754 c 1,8,-1
 138 720 l 1,9,10
 148 720 148 720 153.5 711.5 c 128,-1,11
 159 703 159 703 159 687 c 0,12,13
 159 657 159 657 144 639 c 128,-1,14
 129 621 129 621 114 621 c 1,15,-1
 105 588 l 1,0,1
EndSplineSet
EndChar

StartChar: uni02BF
Encoding: 703 703 377
Width: 135
GlyphClass: 1
Flags: W
LayerCount: 2
Fore
SplineSet
172 621 m 1,0,1
 162 621 162 621 157 631 c 128,-1,2
 152 641 152 641 152 656 c 0,3,4
 152 685 152 685 165.5 702.5 c 128,-1,5
 179 720 179 720 195 720 c 1,6,-1
 205 754 l 1,7,8
 189 754 189 754 173.5 746 c 128,-1,9
 158 738 158 738 146.5 723.5 c 128,-1,10
 135 709 135 709 128 689.5 c 128,-1,11
 121 670 121 670 121 648 c 0,12,13
 121 621 121 621 132 604.5 c 128,-1,14
 143 588 143 588 163 588 c 1,15,-1
 172 621 l 1,0,1
EndSplineSet
EndChar

StartChar: uni02C8
Encoding: 712 712 380
Width: 174
GlyphClass: 1
Flags: W
LayerCount: 2
Fore
SplineSet
116 775 m 1,0,-1
 116 368 l 1,1,-1
 174 368 l 1,2,-1
 174 775 l 1,3,-1
 116 775 l 1,0,-1
EndSplineSet
EndChar

StartChar: uni02C9
Encoding: 713 713 381
Width: 371
GlyphClass: 1
Flags: W
LayerCount: 2
Fore
SplineSet
402 665 m 1,0,-1
 413 710 l 1,1,-1
 151 710 l 1,2,-1
 140 665 l 1,3,-1
 402 665 l 1,0,-1
EndSplineSet
EndChar

StartChar: uni02CB
Encoding: 715 715 382
Width: 188
GlyphClass: 1
Flags: W
LayerCount: 2
Fore
SplineSet
167 524 m 1,0,-1
 216 715 l 1,1,-1
 166 715 l 1,2,-1
 133 524 l 1,3,-1
 167 524 l 1,0,-1
EndSplineSet
EndChar

StartChar: uni02CC
Encoding: 716 716 383
Width: 174
GlyphClass: 1
Flags: W
LayerCount: 2
Fore
SplineSet
11 277 m 1,0,-1
 11 -130 l 1,1,-1
 68 -130 l 1,2,-1
 68 277 l 1,3,-1
 11 277 l 1,0,-1
EndSplineSet
EndChar

StartChar: hungarumlaut
Encoding: 733 733 389
Width: 325
GlyphClass: 1
Flags: W
LayerCount: 2
Fore
SplineSet
354 730 m 1,0,-1
 284 730 l 1,1,-1
 184 598 l 1,2,-1
 223 598 l 1,3,-1
 354 730 l 1,0,-1
297 730 m 1,4,-1
 227 730 l 1,5,-1
 127 598 l 1,6,-1
 166 598 l 1,7,-1
 297 730 l 1,4,-1
EndSplineSet
EndChar

StartChar: gravecomb
Encoding: 768 768 390
Width: 221
GlyphClass: 1
Flags: W
LayerCount: 2
Fore
SplineSet
76 760 m 1,0,-1
 180 600 l 1,1,-1
 219 600 l 1,2,-1
 146 760 l 1,3,-1
 76 760 l 1,0,-1
EndSplineSet
EndChar

StartChar: acutecomb
Encoding: 769 769 391
Width: 221
GlyphClass: 1
Flags: W
LayerCount: 2
Fore
SplineSet
239 760 m 1,0,-1
 166 760 l 1,1,-1
 59 600 l 1,2,-1
 102 600 l 1,3,-1
 239 760 l 1,0,-1
EndSplineSet
EndChar

StartChar: uni0302
Encoding: 770 770 392
Width: 329
GlyphClass: 1
Flags: W
LayerCount: 2
Fore
SplineSet
69 600 m 1,0,-1
 108 600 l 1,1,-1
 229 693 l 1,2,-1
 310 600 l 1,3,-1
 349 600 l 1,4,-1
 273 733 l 1,5,-1
 202 733 l 1,6,-1
 69 600 l 1,0,-1
EndSplineSet
EndChar

StartChar: tildecomb
Encoding: 771 771 393
Width: 403
GlyphClass: 1
Flags: W
LayerCount: 2
Fore
SplineSet
340 629 m 0,0,1
 370 629 370 629 390.5 641.5 c 128,-1,2
 411 654 411 654 425 670 c 128,-1,3
 439 686 439 686 445.5 700.5 c 128,-1,4
 452 715 452 715 453 720 c 1,5,-1
 413 720 l 1,6,7
 413 719 413 719 409.5 711 c 128,-1,8
 406 703 406 703 398.5 694 c 128,-1,9
 391 685 391 685 379 678 c 128,-1,10
 367 671 367 671 348 671 c 0,11,12
 331 671 331 671 318.5 677.5 c 128,-1,13
 306 684 306 684 294.5 692 c 128,-1,14
 283 700 283 700 269 706.5 c 128,-1,15
 255 713 255 713 236 713 c 0,16,17
 209 713 209 713 189.5 700.5 c 128,-1,18
 170 688 170 688 157 672 c 128,-1,19
 144 656 144 656 137.5 641 c 128,-1,20
 131 626 131 626 129 622 c 1,21,-1
 170 622 l 2,22,23
 171 624 171 624 174 631.5 c 128,-1,24
 177 639 177 639 183.5 647.5 c 128,-1,25
 190 656 190 656 201 663 c 128,-1,26
 212 670 212 670 227 670 c 256,27,28
 242 670 242 670 254 663.5 c 128,-1,29
 266 657 266 657 278 649.5 c 128,-1,30
 290 642 290 642 304.5 635.5 c 128,-1,31
 319 629 319 629 340 629 c 0,0,1
EndSplineSet
EndChar

StartChar: uni0304
Encoding: 772 772 394
Width: 375
GlyphClass: 1
Flags: W
LayerCount: 2
Fore
SplineSet
410 663 m 1,0,-1
 420 709 l 1,1,-1
 145 709 l 1,2,-1
 136 663 l 1,3,-1
 410 663 l 1,0,-1
EndSplineSet
EndChar

StartChar: uni0306
Encoding: 774 774 395
Width: 287
GlyphClass: 1
Flags: W
LayerCount: 2
Fore
SplineSet
230 665 m 0,0,1
 212 665 212 665 200.5 679.5 c 128,-1,2
 189 694 189 694 189 715 c 0,3,4
 189 719 189 719 189 722.5 c 128,-1,5
 189 726 189 726 190 730 c 1,6,-1
 150 730 l 1,7,8
 148 724 148 724 147.5 719 c 128,-1,9
 147 714 147 714 147 708 c 0,10,11
 147 674 147 674 168 652 c 128,-1,12
 189 630 189 630 223 630 c 0,13,14
 242 630 242 630 261 638 c 128,-1,15
 280 646 280 646 295.5 659.5 c 128,-1,16
 311 673 311 673 322 691 c 128,-1,17
 333 709 333 709 337 730 c 1,18,-1
 298 730 l 1,19,20
 289 702 289 702 269.5 683.5 c 128,-1,21
 250 665 250 665 230 665 c 0,0,1
EndSplineSet
EndChar

StartChar: uni0307
Encoding: 775 775 396
Width: 160
GlyphClass: 1
Flags: W
LayerCount: 2
Fore
SplineSet
98 679 m 0,0,1
 93 659 93 659 104.5 644.5 c 128,-1,2
 116 630 116 630 136 630 c 0,3,4
 146 630 146 630 156 634 c 128,-1,5
 166 638 166 638 174 644.5 c 128,-1,6
 182 651 182 651 187.5 660 c 128,-1,7
 193 669 193 669 195 679 c 0,8,9
 199 699 199 699 188 713 c 128,-1,10
 177 727 177 727 157 727 c 0,11,12
 146 727 146 727 136.5 723.5 c 128,-1,13
 127 720 127 720 119 713.5 c 128,-1,14
 111 707 111 707 105.5 698 c 128,-1,15
 100 689 100 689 98 679 c 0,0,1
EndSplineSet
EndChar

StartChar: uni0308
Encoding: 776 776 397
Width: 324
GlyphClass: 1
Flags: W
LayerCount: 2
Fore
SplineSet
122 630 m 0,0,1
 132 630 132 630 142 634 c 128,-1,2
 152 638 152 638 160 644.5 c 128,-1,3
 168 651 168 651 173.5 660 c 128,-1,4
 179 669 179 669 181 679 c 0,5,6
 185 699 185 699 174 713 c 128,-1,7
 163 727 163 727 143 727 c 0,8,9
 132 727 132 727 122.5 723.5 c 128,-1,10
 113 720 113 720 105 713.5 c 128,-1,11
 97 707 97 707 91.5 698 c 128,-1,12
 86 689 86 689 84 679 c 0,13,14
 79 659 79 659 90.5 644.5 c 128,-1,15
 102 630 102 630 122 630 c 0,0,1
314 630 m 0,16,17
 324 630 324 630 334 634 c 128,-1,18
 344 638 344 638 352 644.5 c 128,-1,19
 360 651 360 651 365.5 660 c 128,-1,20
 371 669 371 669 373 679 c 0,21,22
 377 699 377 699 366 713 c 128,-1,23
 355 727 355 727 335 727 c 0,24,25
 324 727 324 727 314.5 723.5 c 128,-1,26
 305 720 305 720 297 713.5 c 128,-1,27
 289 707 289 707 283.5 698 c 128,-1,28
 278 689 278 689 276 679 c 0,29,30
 271 659 271 659 282.5 644.5 c 128,-1,31
 294 630 294 630 314 630 c 0,16,17
EndSplineSet
EndChar

StartChar: hookabovecomb
Encoding: 777 777 398
Width: 241
GlyphClass: 1
Flags: W
LayerCount: 2
Fore
SplineSet
163 691 m 1,0,1
 183 704 183 704 194 709 c 128,-1,2
 205 714 205 714 219 714 c 0,3,4
 234 714 234 714 238.5 705 c 128,-1,5
 243 696 243 696 238 683 c 0,6,7
 233 671 233 671 221.5 659 c 128,-1,8
 210 647 210 647 187 631 c 1,9,-1
 199 608 l 1,10,11
 233 630 233 630 253.5 649.5 c 128,-1,12
 274 669 274 669 281 689 c 0,13,14
 290 714 290 714 280.5 733 c 128,-1,15
 271 752 271 752 239 752 c 0,16,17
 215 752 215 752 193 743 c 128,-1,18
 171 734 171 734 147 718 c 1,19,-1
 163 691 l 1,0,1
EndSplineSet
EndChar

StartChar: uni030A
Encoding: 778 778 399
Width: 242
GlyphClass: 1
Flags: W
LayerCount: 2
Fore
SplineSet
135 653 m 0,0,1
 135 629 135 629 150.5 614.5 c 128,-1,2
 166 600 166 600 193 600 c 0,3,4
 229 600 229 600 254 622 c 128,-1,5
 279 644 279 644 279 677 c 0,6,7
 279 701 279 701 263.5 715.5 c 128,-1,8
 248 730 248 730 221 730 c 0,9,10
 186 730 186 730 160.5 708.5 c 128,-1,11
 135 687 135 687 135 653 c 0,0,1
215 704 m 0,12,13
 229 704 229 704 238 695.5 c 128,-1,14
 247 687 247 687 247 672 c 0,15,16
 247 652 247 652 231 639 c 128,-1,17
 215 626 215 626 199 626 c 0,18,19
 185 626 185 626 176.5 635 c 128,-1,20
 168 644 168 644 168 658 c 0,21,22
 168 678 168 678 182.5 691 c 128,-1,23
 197 704 197 704 215 704 c 0,12,13
EndSplineSet
EndChar

StartChar: uni030B
Encoding: 779 779 400
Width: 325
GlyphClass: 1
Flags: W
LayerCount: 2
Fore
SplineSet
436 760 m 1,0,-1
 362 760 l 1,1,-1
 239 600 l 1,2,-1
 281 600 l 1,3,-1
 436 760 l 1,0,-1
265 760 m 1,4,-1
 191 760 l 1,5,-1
 68 600 l 1,6,-1
 110 600 l 1,7,-1
 265 760 l 1,4,-1
EndSplineSet
EndChar

StartChar: uni030C
Encoding: 780 780 401
Width: 329
GlyphClass: 1
Flags: W
LayerCount: 2
Fore
SplineSet
97 733 m 1,0,-1
 173 600 l 1,1,-1
 244 600 l 1,2,-1
 377 733 l 1,3,-1
 338 733 l 1,4,-1
 218 640 l 1,5,-1
 136 733 l 1,6,-1
 97 733 l 1,0,-1
EndSplineSet
EndChar

StartChar: uni030F
Encoding: 783 783 402
Width: 325
GlyphClass: 1
Flags: W
LayerCount: 2
Fore
SplineSet
221 760 m 1,0,-1
 307 600 l 1,1,-1
 346 600 l 1,2,-1
 291 760 l 1,3,-1
 221 760 l 1,0,-1
50 760 m 1,4,-1
 137 600 l 1,5,-1
 176 600 l 1,6,-1
 120 760 l 1,7,-1
 50 760 l 1,4,-1
EndSplineSet
EndChar

StartChar: uni0311
Encoding: 785 785 403
Width: 287
GlyphClass: 1
Flags: W
LayerCount: 2
Fore
SplineSet
129 630 m 1,0,-1
 168 630 l 1,1,2
 175 657 175 657 191.5 676.5 c 128,-1,3
 208 696 208 696 238 696 c 0,4,5
 259 696 259 696 268.5 684.5 c 128,-1,6
 278 673 278 673 278 651 c 0,7,8
 278 646 278 646 277.5 641 c 128,-1,9
 277 636 277 636 277 630 c 1,10,-1
 315 630 l 1,11,12
 317 636 317 636 317.5 641 c 128,-1,13
 318 646 318 646 318 651 c 0,14,15
 318 683 318 683 297.5 706.5 c 128,-1,16
 277 730 277 730 242 730 c 0,17,18
 222 730 222 730 203.5 722 c 128,-1,19
 185 714 185 714 169.5 700.5 c 128,-1,20
 154 687 154 687 143.5 669 c 128,-1,21
 133 651 133 651 129 630 c 1,0,-1
EndSplineSet
EndChar

StartChar: uni0312
Encoding: 786 786 404
Width: 152
GlyphClass: 1
Flags: W
LayerCount: 2
Fore
SplineSet
77 596 m 1,0,-1
 147 596 l 1,1,-1
 247 728 l 1,2,-1
 208 728 l 1,3,-1
 77 596 l 1,0,-1
EndSplineSet
EndChar

StartChar: uni031B
Encoding: 795 795 405
Width: 250
GlyphClass: 1
Flags: W
LayerCount: 2
Fore
SplineSet
102 508 m 1,0,1
 122 508 122 508 141 510.5 c 128,-1,2
 160 513 160 513 177 518 c 128,-1,3
 194 523 194 523 208.5 530.5 c 128,-1,4
 223 538 223 538 233 548 c 0,5,6
 244 558 244 558 251.5 569 c 128,-1,7
 259 580 259 580 264 591 c 128,-1,8
 269 602 269 602 273 614.5 c 128,-1,9
 277 627 277 627 281 641 c 1,10,-1
 226 641 l 1,11,12
 221 620 221 620 215 606 c 128,-1,13
 209 592 209 592 198 580 c 256,14,15
 187 568 187 568 166 562.5 c 128,-1,16
 145 557 145 557 113 557 c 1,17,-1
 102 508 l 1,0,1
EndSplineSet
EndChar

StartChar: dotbelowcomb
Encoding: 803 803 406
Width: 160
GlyphClass: 1
Flags: W
LayerCount: 2
Fore
SplineSet
-63 -121 m 0,0,1
 -67 -141 -67 -141 -56 -155.5 c 128,-1,2
 -45 -170 -45 -170 -25 -170 c 0,3,4
 -15 -170 -15 -170 -5 -166 c 128,-1,5
 5 -162 5 -162 13 -155.5 c 128,-1,6
 21 -149 21 -149 27 -140 c 128,-1,7
 33 -131 33 -131 34 -121 c 0,8,9
 38 -101 38 -101 27 -87 c 128,-1,10
 16 -73 16 -73 -4 -73 c 0,11,12
 -14 -73 -14 -73 -24 -76.5 c 128,-1,13
 -34 -80 -34 -80 -41.5 -86.5 c 128,-1,14
 -49 -93 -49 -93 -55 -102 c 128,-1,15
 -61 -111 -61 -111 -63 -121 c 0,0,1
EndSplineSet
EndChar

StartChar: uni0324
Encoding: 804 804 407
Width: 324
GlyphClass: 1
Flags: W
LayerCount: 2
Fore
SplineSet
38 -169 m 0,0,1
 48 -169 48 -169 57.5 -165.5 c 128,-1,2
 67 -162 67 -162 75.5 -155.5 c 128,-1,3
 84 -149 84 -149 89.5 -140 c 128,-1,4
 95 -131 95 -131 97 -121 c 0,5,6
 101 -101 101 -101 89.5 -86.5 c 128,-1,7
 78 -72 78 -72 58 -72 c 0,8,9
 48 -72 48 -72 38.5 -76 c 128,-1,10
 29 -80 29 -80 21 -86.5 c 128,-1,11
 13 -93 13 -93 7.5 -101.5 c 128,-1,12
 2 -110 2 -110 -1 -121 c 0,13,14
 -5 -141 -5 -141 6.5 -155 c 128,-1,15
 18 -169 18 -169 38 -169 c 0,0,1
230 -169 m 0,16,17
 240 -169 240 -169 249.5 -165.5 c 128,-1,18
 259 -162 259 -162 267.5 -155.5 c 128,-1,19
 276 -149 276 -149 281.5 -140 c 128,-1,20
 287 -131 287 -131 289 -121 c 0,21,22
 293 -101 293 -101 281.5 -86.5 c 128,-1,23
 270 -72 270 -72 250 -72 c 0,24,25
 240 -72 240 -72 230.5 -76 c 128,-1,26
 221 -80 221 -80 213 -86.5 c 128,-1,27
 205 -93 205 -93 199.5 -101.5 c 128,-1,28
 194 -110 194 -110 191 -121 c 0,29,30
 187 -141 187 -141 198.5 -155 c 128,-1,31
 210 -169 210 -169 230 -169 c 0,16,17
EndSplineSet
EndChar

StartChar: uni0326
Encoding: 806 806 408
Width: 152
GlyphClass: 1
Flags: W
LayerCount: 2
Fore
SplineSet
50 -226 m 1,0,-1
 146 -49 l 1,1,-1
 78 -49 l 1,2,-1
 14 -226 l 1,3,-1
 50 -226 l 1,0,-1
EndSplineSet
EndChar

StartChar: uni0327
Encoding: 807 807 409
Width: 268
GlyphClass: 1
Flags: W
LayerCount: 2
Fore
SplineSet
-42 -159 m 1,0,1
 -20 -169 -20 -169 1.5 -173.5 c 128,-1,2
 23 -178 23 -178 47 -178 c 0,3,4
 67 -178 67 -178 87 -174 c 128,-1,5
 107 -170 107 -170 123.5 -160.5 c 128,-1,6
 140 -151 140 -151 150 -135.5 c 128,-1,7
 160 -120 160 -120 160 -96 c 0,8,9
 160 -68 160 -68 142.5 -58 c 128,-1,10
 125 -48 125 -48 100 -48 c 0,11,12
 91 -48 91 -48 81.5 -49 c 128,-1,13
 72 -50 72 -50 63 -53 c 1,14,-1
 108 2 l 1,15,-1
 79 15 l 1,16,-1
 3 -89 l 1,17,18
 23 -82 23 -82 42.5 -78.5 c 128,-1,19
 62 -75 62 -75 82 -75 c 0,20,21
 90 -75 90 -75 97.5 -76 c 128,-1,22
 105 -77 105 -77 110.5 -80 c 128,-1,23
 116 -83 116 -83 119.5 -88.5 c 128,-1,24
 123 -94 123 -94 123 -103 c 0,25,26
 123 -116 123 -116 117.5 -125 c 128,-1,27
 112 -134 112 -134 102.5 -138.5 c 128,-1,28
 93 -143 93 -143 82 -145 c 128,-1,29
 71 -147 71 -147 60 -147 c 0,30,31
 50 -147 50 -147 39.5 -146 c 128,-1,32
 29 -145 29 -145 19 -142.5 c 128,-1,33
 9 -140 9 -140 -1 -136.5 c 128,-1,34
 -11 -133 -11 -133 -19 -128 c 1,35,36
 -26 -136 -26 -136 -31.5 -143 c 128,-1,37
 -37 -150 -37 -150 -42 -159 c 1,0,1
EndSplineSet
EndChar

StartChar: uni0328
Encoding: 808 808 410
Width: 200
GlyphClass: 1
Flags: W
LayerCount: 2
Fore
SplineSet
-28 -120 m 0,0,1
 -28 -140 -28 -140 -15 -157.5 c 128,-1,2
 -2 -175 -2 -175 34 -181 c 1,3,-1
 61 -138 l 1,4,5
 39 -134 39 -134 27.5 -126.5 c 128,-1,6
 16 -119 16 -119 16 -104 c 0,7,8
 16 -83 16 -83 34 -60 c 128,-1,9
 52 -37 52 -37 95 0 c 1,10,-1
 88 16 l 1,11,-1
 70 16 l 1,12,13
 20 -21 20 -21 -4 -53.5 c 128,-1,14
 -28 -86 -28 -86 -28 -120 c 0,0,1
EndSplineSet
EndChar

StartChar: uni032E
Encoding: 814 814 411
Width: 255
GlyphClass: 1
Flags: W
LayerCount: 2
Fore
SplineSet
38 -150 m 0,0,1
 55 -150 55 -150 72 -142.5 c 128,-1,2
 89 -135 89 -135 104 -121.5 c 128,-1,3
 119 -108 119 -108 130 -90 c 128,-1,4
 141 -72 141 -72 146 -51 c 1,5,-1
 109 -51 l 1,6,7
 100 -78 100 -78 82 -97 c 128,-1,8
 64 -116 64 -116 46 -116 c 256,9,10
 28 -116 28 -116 18 -96 c 128,-1,11
 8 -76 8 -76 15 -51 c 1,12,-1
 -23 -51 l 1,13,14
 -33 -93 -33 -93 -15.5 -121.5 c 128,-1,15
 2 -150 2 -150 38 -150 c 0,0,1
EndSplineSet
EndChar

StartChar: uni0331
Encoding: 817 817 412
Width: 363
GlyphClass: 1
Flags: W
LayerCount: 2
Fore
SplineSet
229 -127 m 1,0,-1
 240 -82 l 1,1,-1
 -22 -82 l 1,2,-1
 -32 -127 l 1,3,-1
 229 -127 l 1,0,-1
EndSplineSet
EndChar

StartChar: uni0335
Encoding: 821 821 413
Width: 314
GlyphClass: 1
Flags: W
LayerCount: 2
Fore
SplineSet
267 281 m 1,0,-1
 277 325 l 1,1,-1
 65 325 l 1,2,-1
 54 281 l 1,3,-1
 267 281 l 1,0,-1
EndSplineSet
EndChar

StartChar: tonos
Encoding: 900 900 415
Width: 164
GlyphClass: 1
Flags: W
LayerCount: 2
Fore
SplineSet
188 792 m 1,0,-1
 114 578 l 1,1,-1
 159 571 l 1,2,-1
 241 781 l 1,3,-1
 188 792 l 1,0,-1
EndSplineSet
EndChar

StartChar: dieresistonos
Encoding: 901 901 416
Width: 394
GlyphClass: 1
Flags: W
LayerCount: 2
Fore
SplineSet
101 650 m 0,0,1
 95 626 95 626 108 607 c 128,-1,2
 121 588 121 588 147 588 c 0,3,4
 169 588 169 588 186.5 602.5 c 128,-1,5
 204 617 204 617 208 638 c 0,6,7
 215 665 215 665 202 682 c 128,-1,8
 189 699 189 699 164 699 c 0,9,10
 141 699 141 699 123.5 686 c 128,-1,11
 106 673 106 673 101 650 c 0,0,1
362 650 m 0,12,13
 356 626 356 626 369.5 607 c 128,-1,14
 383 588 383 588 408 588 c 0,15,16
 430 588 430 588 447.5 602.5 c 128,-1,17
 465 617 465 617 469 638 c 0,18,19
 475 665 475 665 462 682 c 128,-1,20
 449 699 449 699 424 699 c 0,21,22
 403 699 403 699 384.5 686 c 128,-1,23
 366 673 366 673 362 650 c 0,12,13
314 807 m 1,24,-1
 241 593 l 1,25,-1
 286 586 l 1,26,-1
 368 796 l 1,27,-1
 314 807 l 1,24,-1
EndSplineSet
EndChar

StartChar: Gamma
Encoding: 915 915 428
Width: 486
GlyphClass: 1
Flags: W
LayerCount: 2
Fore
SplineSet
167 714 m 1,0,-1
 619 714 l 1,1,-1
 603 655 l 1,2,-1
 217 655 l 1,3,-1
 45 10 l 1,4,-1
 -21 10 l 1,5,-1
 167 714 l 1,0,-1
EndSplineSet
EndChar

StartChar: uni0394
Encoding: 916 916 429
Width: 631
GlyphClass: 1
Flags: W
LayerCount: 2
Fore
SplineSet
-40 0 m 1,0,-1
 554 0 l 1,1,-1
 557 20 l 1,2,-1
 460 714 l 1,3,-1
 375 714 l 1,4,-1
 -36 20 l 1,5,-1
 -40 0 l 1,0,-1
59 61 m 1,6,-1
 274 416 l 1,7,-1
 402 642 l 1,8,-1
 406 642 l 1,9,-1
 433 416 l 1,10,-1
 482 61 l 1,11,-1
 59 61 l 1,6,-1
EndSplineSet
EndChar

StartChar: Eta
Encoding: 919 919 432
Width: 709
GlyphClass: 1
Flags: W
LayerCount: 2
Fore
SplineSet
8 0 m 1,0,-1
 74 0 l 1,1,-1
 144 330 l 1,2,-1
 540 330 l 1,3,-1
 470 0 l 1,4,-1
 535 0 l 1,5,-1
 685 704 l 1,6,-1
 619 704 l 1,7,-1
 552 390 l 1,8,-1
 157 390 l 1,9,-1
 224 704 l 1,10,-1
 158 704 l 1,11,-1
 8 0 l 1,0,-1
EndSplineSet
EndChar

StartChar: Theta
Encoding: 920 920 433
Width: 723
GlyphClass: 1
Flags: W
LayerCount: 2
Fore
SplineSet
170 325 m 1,0,-1
 563 325 l 1,1,-1
 577 391 l 1,2,-1
 184 391 l 1,3,-1
 170 325 l 1,0,-1
296 -5 m 0,4,5
 374 -5 374 -5 445.5 30.5 c 128,-1,6
 517 66 517 66 572 125 c 128,-1,7
 627 184 627 184 659.5 260 c 128,-1,8
 692 336 692 336 692 417 c 0,9,10
 692 474 692 474 676.5 526 c 128,-1,11
 661 578 661 578 630 619 c 128,-1,12
 599 660 599 660 552.5 684.5 c 128,-1,13
 506 709 506 709 444 709 c 0,14,15
 366 709 366 709 294 673.5 c 128,-1,16
 222 638 222 638 167 579 c 128,-1,17
 112 520 112 520 79.5 443.5 c 128,-1,18
 47 367 47 367 47 285 c 0,19,20
 47 228 47 228 62.5 176 c 128,-1,21
 78 124 78 124 109 83.5 c 128,-1,22
 140 43 140 43 187 19 c 128,-1,23
 234 -5 234 -5 296 -5 c 0,4,5
308 55 m 0,24,25
 260 55 260 55 223 74.5 c 128,-1,26
 186 94 186 94 162 126 c 128,-1,27
 138 158 138 158 126 200.5 c 128,-1,28
 114 243 114 243 114 290 c 0,29,30
 114 355 114 355 138.5 419.5 c 128,-1,31
 163 484 163 484 206 534.5 c 128,-1,32
 249 585 249 585 306.5 616.5 c 128,-1,33
 364 648 364 648 430 648 c 0,34,35
 479 648 479 648 515.5 629 c 128,-1,36
 552 610 552 610 576.5 577.5 c 128,-1,37
 601 545 601 545 613 502.5 c 128,-1,38
 625 460 625 460 625 413 c 0,39,40
 625 348 625 348 600.5 284 c 128,-1,41
 576 220 576 220 533.5 169.5 c 128,-1,42
 491 119 491 119 433 87 c 128,-1,43
 375 55 375 55 308 55 c 0,24,25
EndSplineSet
EndChar

StartChar: Lambda
Encoding: 923 923 436
Width: 660
GlyphClass: 1
Flags: W
LayerCount: 2
Fore
SplineSet
-35 0 m 1,0,-1
 42 0 l 1,1,-1
 280 404 l 1,2,-1
 417 643 l 1,3,-1
 421 643 l 1,4,-1
 453 404 l 1,5,-1
 504 0 l 1,6,-1
 577 0 l 1,7,-1
 481 714 l 1,8,-1
 389 714 l 1,9,-1
 -35 0 l 1,0,-1
EndSplineSet
EndChar

StartChar: Xi
Encoding: 926 926 439
Width: 628
GlyphClass: 1
Flags: W
LayerCount: 2
Fore
SplineSet
15 0 m 1,0,-1
 496 0 l 1,1,-1
 510 61 l 1,2,-1
 28 61 l 1,3,-1
 15 0 l 1,0,-1
158 331 m 1,4,-1
 501 331 l 1,5,-1
 515 392 l 1,6,-1
 172 392 l 1,7,-1
 158 331 l 1,4,-1
164 655 m 1,8,-1
 645 655 l 1,9,-1
 658 717 l 1,10,-1
 176 717 l 1,11,-1
 164 655 l 1,8,-1
EndSplineSet
EndChar

StartChar: Pi
Encoding: 928 928 441
Width: 639
GlyphClass: 1
Flags: W
LayerCount: 2
Fore
SplineSet
28 0 m 1,0,-1
 101 0 l 1,1,-1
 250 655 l 1,2,-1
 572 655 l 1,3,-1
 423 0 l 1,4,-1
 495 0 l 1,5,-1
 657 717 l 1,6,-1
 190 717 l 1,7,-1
 28 0 l 1,0,-1
EndSplineSet
EndChar

StartChar: Sigma
Encoding: 931 931 443
Width: 549
GlyphClass: 1
Flags: W
LayerCount: 2
Fore
SplineSet
-9 0 m 1,0,-1
 449 0 l 1,1,-1
 463 61 l 1,2,-1
 106 61 l 1,3,-1
 407 366 l 1,4,-1
 243 655 l 1,5,-1
 570 655 l 1,6,-1
 583 717 l 1,7,-1
 159 717 l 1,8,-1
 151 675 l 1,9,-1
 327 365 l 1,10,-1
 0 42 l 1,11,-1
 -9 0 l 1,0,-1
EndSplineSet
EndChar

StartChar: Upsilon
Encoding: 933 933 445
Width: 620
GlyphClass: 1
Flags: W
LayerCount: 2
Fore
SplineSet
216 0 m 1,0,-1
 287 0 l 1,1,-1
 342 241 l 2,2,3
 358 309 358 309 389.5 367.5 c 128,-1,4
 421 426 421 426 464 477.5 c 128,-1,5
 507 529 507 529 559 576.5 c 128,-1,6
 611 624 611 624 669 670 c 1,7,-1
 624 716 l 1,8,9
 568 670 568 670 526.5 634 c 128,-1,10
 485 598 485 598 453 563 c 128,-1,11
 421 528 421 528 395 490 c 128,-1,12
 369 452 369 452 345 403 c 1,13,-1
 338 397 l 1,14,15
 335 445 335 445 326.5 483.5 c 128,-1,16
 318 522 318 522 302 557 c 128,-1,17
 286 592 286 592 261 628.5 c 128,-1,18
 236 665 236 665 199 710 c 1,19,-1
 142 673 l 1,20,21
 175 631 175 631 206 586.5 c 128,-1,22
 237 542 237 542 257 491 c 128,-1,23
 277 440 277 440 283 380.5 c 128,-1,24
 289 321 289 321 273 249 c 2,25,-1
 216 0 l 1,0,-1
EndSplineSet
EndChar

StartChar: Phi
Encoding: 934 934 446
Width: 715
GlyphClass: 1
Flags: W
LayerCount: 2
Fore
SplineSet
314 141 m 1,0,1
 266 141 266 141 228 157 c 128,-1,2
 190 173 190 173 166.5 201.5 c 128,-1,3
 143 230 143 230 135 268.5 c 128,-1,4
 127 307 127 307 137 353 c 0,5,6
 149 401 149 401 176 442 c 128,-1,7
 203 483 203 483 240.5 513 c 128,-1,8
 278 543 278 543 324 560 c 128,-1,9
 370 577 370 577 418 577 c 1,10,-1
 427 638 l 1,11,12
 363 638 363 638 304.5 617.5 c 128,-1,13
 246 597 246 597 199 561 c 128,-1,14
 152 525 152 525 118.5 474.5 c 128,-1,15
 85 424 85 424 71 364 c 0,16,17
 58 303 58 303 68.5 251 c 128,-1,18
 79 199 79 199 110 161 c 128,-1,19
 141 123 141 123 190.5 101.5 c 128,-1,20
 240 80 240 80 304 80 c 1,21,-1
 314 141 l 1,0,1
328 -28 m 1,22,-1
 503 745 l 1,23,-1
 435 745 l 1,24,-1
 260 -28 l 1,25,-1
 328 -28 l 1,22,-1
338 80 m 1,26,27
 402 80 402 80 460.5 100.5 c 128,-1,28
 519 121 519 121 565.5 157.5 c 128,-1,29
 612 194 612 194 645 243.5 c 128,-1,30
 678 293 678 293 692 353 c 0,31,32
 705 414 705 414 695 466.5 c 128,-1,33
 685 519 685 519 654.5 557 c 128,-1,34
 624 595 624 595 574.5 616.5 c 128,-1,35
 525 638 525 638 461 638 c 1,36,-1
 451 577 l 1,37,38
 500 577 500 577 537.5 561.5 c 128,-1,39
 575 546 575 546 597.5 517.5 c 128,-1,40
 620 489 620 489 627.5 450 c 128,-1,41
 635 411 635 411 624 364 c 0,42,43
 614 317 614 317 588 276.5 c 128,-1,44
 562 236 562 236 524.5 206 c 128,-1,45
 487 176 487 176 441.5 158.5 c 128,-1,46
 396 141 396 141 347 141 c 1,47,-1
 338 80 l 1,26,27
EndSplineSet
EndChar

StartChar: Psi
Encoding: 936 936 448
Width: 731
GlyphClass: 1
Flags: W
LayerCount: 2
Fore
SplineSet
274 0 m 1,0,-1
 343 0 l 1,1,-1
 506 714 l 1,2,-1
 436 714 l 1,3,-1
 274 0 l 1,0,-1
122 437 m 2,4,5
 109 380 109 380 115 333 c 128,-1,6
 121 286 121 286 147 252.5 c 128,-1,7
 173 219 173 219 218.5 200.5 c 128,-1,8
 264 182 264 182 331 182 c 1,9,-1
 338 240 l 1,10,11
 288 240 288 240 254 253 c 128,-1,12
 220 266 220 266 201.5 290 c 128,-1,13
 183 314 183 314 179 348 c 128,-1,14
 175 382 175 382 184 425 c 0,15,16
 188 438 188 438 193 457 c 128,-1,17
 198 476 198 476 203 498 c 128,-1,18
 208 520 208 520 214 543.5 c 128,-1,19
 220 567 220 567 224 591 c 0,20,21
 233 627 233 627 238 657 c 128,-1,22
 243 687 243 687 240 710 c 1,23,-1
 175 718 l 1,24,25
 175 697 175 697 173 678.5 c 128,-1,26
 171 660 171 660 168 643.5 c 128,-1,27
 165 627 165 627 162 611.5 c 128,-1,28
 159 596 159 596 155 580 c 2,29,-1
 122 437 l 2,4,5
719 573 m 2,30,31
 723 589 723 589 727 604.5 c 128,-1,32
 731 620 731 620 736.5 636.5 c 128,-1,33
 742 653 742 653 748.5 671 c 128,-1,34
 755 689 755 689 764 710 c 1,35,-1
 696 718 l 1,36,37
 690 707 690 707 684.5 693.5 c 128,-1,38
 679 680 679 680 675 665 c 128,-1,39
 671 650 671 650 667.5 634.5 c 128,-1,40
 664 619 664 619 661 603 c 0,41,42
 656 577 656 577 650.5 552.5 c 128,-1,43
 645 528 645 528 640.5 506 c 128,-1,44
 636 484 636 484 632.5 466 c 128,-1,45
 629 448 629 448 627 437 c 0,46,47
 616 393 616 393 594.5 357 c 128,-1,48
 573 321 573 321 542.5 295 c 128,-1,49
 512 269 512 269 472.5 254.5 c 128,-1,50
 433 240 433 240 384 240 c 1,51,-1
 373 182 l 1,52,53
 439 182 439 182 491.5 199.5 c 128,-1,54
 544 217 544 217 583.5 249.5 c 128,-1,55
 623 282 623 282 649 327.5 c 128,-1,56
 675 373 675 373 688 430 c 2,57,-1
 719 573 l 2,30,31
EndSplineSet
EndChar

StartChar: uni03A9
Encoding: 937 937 449
Width: 709
GlyphClass: 1
Flags: W
LayerCount: 2
Fore
SplineSet
-1 0 m 1,0,-1
 252 0 l 1,1,-1
 287 156 l 1,2,3
 247 168 247 168 218 191 c 128,-1,4
 189 214 189 214 172 246 c 128,-1,5
 155 278 155 278 151 318.5 c 128,-1,6
 147 359 147 359 158 406 c 0,7,8
 170 459 170 459 197 505 c 128,-1,9
 224 551 224 551 261.5 584.5 c 128,-1,10
 299 618 299 618 345.5 637 c 128,-1,11
 392 656 392 656 444 656 c 0,12,13
 493 656 493 656 531.5 637 c 128,-1,14
 570 618 570 618 594.5 585.5 c 128,-1,15
 619 553 619 553 626.5 508 c 128,-1,16
 634 463 634 463 622 411 c 0,17,18
 611 363 611 363 586.5 321.5 c 128,-1,19
 562 280 562 280 528.5 246.5 c 128,-1,20
 495 213 495 213 455 189.5 c 128,-1,21
 415 166 415 166 373 156 c 1,22,-1
 337 0 l 1,23,-1
 593 0 l 1,24,-1
 607 64 l 1,25,-1
 381 64 l 1,26,-1
 410 29 l 1,27,-1
 437 146 l 1,28,-1
 401 99 l 1,29,30
 454 113 454 113 501.5 142.5 c 128,-1,31
 549 172 549 172 588 212.5 c 128,-1,32
 627 253 627 253 654 303 c 128,-1,33
 681 353 681 353 693 409 c 0,34,35
 708 475 708 475 696.5 532 c 128,-1,36
 685 589 685 589 653 631.5 c 128,-1,37
 621 674 621 674 569 698 c 128,-1,38
 517 722 517 722 451 722 c 0,39,40
 388 722 388 722 329 700 c 128,-1,41
 270 678 270 678 221 637 c 128,-1,42
 172 596 172 596 136.5 539.5 c 128,-1,43
 101 483 101 483 86 415 c 0,44,45
 73 357 73 357 79 308 c 128,-1,46
 85 259 85 259 106 219 c 128,-1,47
 127 179 127 179 162.5 149.5 c 128,-1,48
 198 120 198 120 245 103 c 1,49,-1
 222 146 l 1,50,-1
 196 29 l 1,51,-1
 244 64 l 1,52,-1
 16 64 l 1,53,-1
 -1 0 l 1,0,-1
EndSplineSet
EndChar

StartChar: Iotadieresis
Encoding: 938 938 450
Width: 311
GlyphClass: 1
Flags: W
LayerCount: 2
Fore
SplineSet
24 0 m 1,0,-1
 90 0 l 1,1,-1
 240 703 l 1,2,-1
 174 703 l 1,3,-1
 24 0 l 1,0,-1
223 861 m 0,4,5
 219 841 219 841 228 826.5 c 128,-1,6
 237 812 237 812 254 812 c 0,7,8
 272 812 272 812 287 826.5 c 128,-1,9
 302 841 302 841 306 861 c 256,10,11
 310 881 310 881 301.5 894.5 c 128,-1,12
 293 908 293 908 275 908 c 0,13,14
 258 908 258 908 243 894.5 c 128,-1,15
 228 881 228 881 223 861 c 0,4,5
171 861 m 0,16,17
 166 841 166 841 175 826.5 c 128,-1,18
 184 812 184 812 202 812 c 0,19,20
 219 812 219 812 234 826.5 c 128,-1,21
 249 841 249 841 253 861 c 0,22,23
 258 881 258 881 249 894.5 c 128,-1,24
 240 908 240 908 222 908 c 0,25,26
 205 908 205 908 189.5 894.5 c 128,-1,27
 174 881 174 881 171 861 c 0,16,17
EndSplineSet
EndChar

StartChar: alphatonos
Encoding: 940 940 452
Width: 647
GlyphClass: 1
Flags: W
LayerCount: 2
Fore
SplineSet
438 251 m 2,0,1
 425 226 425 226 407.5 192.5 c 128,-1,2
 390 159 390 159 364 129 c 128,-1,3
 338 99 338 99 303.5 78 c 128,-1,4
 269 57 269 57 223 57 c 0,5,6
 189 57 189 57 163 70 c 128,-1,7
 137 83 137 83 121 108 c 128,-1,8
 105 133 105 133 101.5 169 c 128,-1,9
 98 205 98 205 108 252 c 0,10,11
 120 304 120 304 141.5 344 c 128,-1,12
 163 384 163 384 190.5 410.5 c 128,-1,13
 218 437 218 437 248.5 451 c 128,-1,14
 279 465 279 465 309 465 c 256,15,16
 339 465 339 465 358.5 452 c 128,-1,17
 378 439 378 439 390.5 417 c 128,-1,18
 403 395 403 395 409.5 366 c 128,-1,19
 416 337 416 337 418.5 306.5 c 128,-1,20
 421 276 421 276 420.5 246.5 c 128,-1,21
 420 217 420 217 418 191 c 1,22,-1
 471 254 l 1,23,24
 475 300 475 300 471 348.5 c 128,-1,25
 467 397 467 397 450 437 c 128,-1,26
 433 477 433 477 401 502.5 c 128,-1,27
 369 528 369 528 316 528 c 0,28,29
 271 528 271 528 228 508 c 128,-1,30
 185 488 185 488 150 452.5 c 128,-1,31
 115 417 115 417 88.5 367 c 128,-1,32
 62 317 62 317 48 258 c 0,33,34
 35 201 35 201 40 152.5 c 128,-1,35
 45 104 45 104 66 68 c 128,-1,36
 87 32 87 32 122.5 12 c 128,-1,37
 158 -8 158 -8 205 -8 c 0,38,39
 244 -8 244 -8 281 5.5 c 128,-1,40
 318 19 318 19 351.5 44 c 128,-1,41
 385 69 385 69 414 104.5 c 128,-1,42
 443 140 443 140 466 183 c 2,43,-1
 646 520 l 1,44,-1
 579 520 l 1,45,-1
 438 251 l 2,0,1
545 52 m 1,46,-1
 520 65 l 2,47,48
 510 71 510 71 501.5 81 c 128,-1,49
 493 91 493 91 485.5 106.5 c 128,-1,50
 478 122 478 122 472.5 143 c 128,-1,51
 467 164 467 164 465 189 c 1,52,-1
 416 147 l 1,53,54
 414 121 414 121 417.5 99 c 128,-1,55
 421 77 421 77 430 59 c 128,-1,56
 439 41 439 41 451.5 27 c 128,-1,57
 464 13 464 13 480 3 c 2,58,-1
 499 -8 l 1,59,-1
 545 52 l 1,46,-1
408 799 m 1,60,-1
 334 583 l 1,61,-1
 379 576 l 1,62,-1
 461 787 l 1,63,-1
 408 799 l 1,60,-1
EndSplineSet
EndChar

StartChar: epsilontonos
Encoding: 941 941 453
Width: 476
GlyphClass: 1
Flags: W
LayerCount: 2
Fore
SplineSet
370 77 m 1,0,1
 331 67 331 67 295.5 61.5 c 128,-1,2
 260 56 260 56 226 56 c 0,3,4
 157 56 157 56 123 80 c 128,-1,5
 89 104 89 104 98 148 c 0,6,7
 104 172 104 172 121 189 c 128,-1,8
 138 206 138 206 162.5 217 c 128,-1,9
 187 228 187 228 217.5 232.5 c 128,-1,10
 248 237 248 237 281 237 c 2,11,-1
 326 237 l 1,12,-1
 340 301 l 1,13,-1
 286 301 l 2,14,15
 258 301 258 301 235 307 c 128,-1,16
 212 313 212 313 196.5 323.5 c 128,-1,17
 181 334 181 334 174.5 349 c 128,-1,18
 168 364 168 364 172 382 c 0,19,20
 176 398 176 398 186.5 412.5 c 128,-1,21
 197 427 197 427 214.5 438.5 c 128,-1,22
 232 450 232 450 258 457 c 128,-1,23
 284 464 284 464 319 464 c 0,24,25
 336 464 336 464 354 462.5 c 128,-1,26
 372 461 372 461 388.5 458 c 128,-1,27
 405 455 405 455 419.5 451.5 c 128,-1,28
 434 448 434 448 443 442 c 1,29,-1
 475 506 l 1,30,31
 447 520 447 520 408.5 524 c 128,-1,32
 370 528 370 528 335 528 c 0,33,34
 285 528 285 528 246.5 517.5 c 128,-1,35
 208 507 208 507 180 489 c 128,-1,36
 152 471 152 471 135 447.5 c 128,-1,37
 118 424 118 424 112 397 c 0,38,39
 107 376 107 376 110 356.5 c 128,-1,40
 113 337 113 337 121.5 320.5 c 128,-1,41
 130 304 130 304 143 292.5 c 128,-1,42
 156 281 156 281 171 276 c 1,43,-1
 168 274 l 1,44,45
 145 267 145 267 123.5 255 c 128,-1,46
 102 243 102 243 83.5 226 c 128,-1,47
 65 209 65 209 51.5 187.5 c 128,-1,48
 38 166 38 166 33 141 c 0,49,50
 25 107 25 107 35 79.5 c 128,-1,51
 45 52 45 52 70 32.5 c 128,-1,52
 95 13 95 13 133 2.5 c 128,-1,53
 171 -8 171 -8 217 -8 c 0,54,55
 239 -8 239 -8 260.5 -6.5 c 128,-1,56
 282 -5 282 -5 302.5 -2 c 128,-1,57
 323 1 323 1 340 4 c 128,-1,58
 357 7 357 7 369 10 c 1,59,-1
 370 77 l 1,0,1
406 840 m 1,60,-1
 332 624 l 1,61,-1
 377 617 l 1,62,-1
 460 828 l 1,63,-1
 406 840 l 1,60,-1
EndSplineSet
EndChar

StartChar: etatonos
Encoding: 942 942 454
Width: 577
GlyphClass: 1
Flags: W
LayerCount: 2
Fore
SplineSet
76 -2 m 1,0,1
 107 93 107 93 132 176.5 c 128,-1,2
 157 260 157 260 175 339 c 0,3,4
 183 373 183 373 186 401.5 c 128,-1,5
 189 430 189 430 184 453 c 128,-1,6
 179 476 179 476 166 494.5 c 128,-1,7
 153 513 153 513 130 528 c 1,8,-1
 83 470 l 1,9,10
 97 463 97 463 105 453 c 128,-1,11
 113 443 113 443 116 425.5 c 128,-1,12
 119 408 119 408 115.5 380 c 128,-1,13
 112 352 112 352 102 308 c 0,14,15
 86 242 86 242 62 162 c 128,-1,16
 38 82 38 82 10 2 c 1,17,-1
 76 -2 l 1,0,1
329 -209 m 1,18,19
 348 -169 348 -169 370.5 -112 c 128,-1,20
 393 -55 393 -55 415 8.5 c 128,-1,21
 437 72 437 72 456 136 c 128,-1,22
 475 200 475 200 487 254 c 0,23,24
 520 397 520 397 497.5 462.5 c 128,-1,25
 475 528 475 528 394 528 c 0,26,27
 359 528 359 528 323.5 515 c 128,-1,28
 288 502 288 502 257 479.5 c 128,-1,29
 226 457 226 457 200.5 427.5 c 128,-1,30
 175 398 175 398 160 365 c 1,31,-1
 140 209 l 1,32,33
 152 256 152 256 175 300.5 c 128,-1,34
 198 345 198 345 227.5 380.5 c 128,-1,35
 257 416 257 416 292.5 438 c 128,-1,36
 328 460 328 460 365 460 c 0,37,38
 419 460 419 460 432 407.5 c 128,-1,39
 445 355 445 355 418 237 c 0,40,41
 409 196 409 196 394.5 146 c 128,-1,42
 380 96 380 96 360.5 39.5 c 128,-1,43
 341 -17 341 -17 316.5 -78.5 c 128,-1,44
 292 -140 292 -140 264 -203 c 1,45,-1
 329 -209 l 1,18,19
438 799 m 1,46,-1
 364 583 l 1,47,-1
 409 576 l 1,48,-1
 492 787 l 1,49,-1
 438 799 l 1,46,-1
EndSplineSet
EndChar

StartChar: iotatonos
Encoding: 943 943 455
Width: 283
GlyphClass: 1
Flags: W
LayerCount: 2
Fore
SplineSet
116 -8 m 0,0,1
 125 -8 125 -8 142 -6.5 c 128,-1,2
 159 -5 159 -5 177 2 c 1,3,-1
 172 68 l 1,4,5
 161 65 161 65 152 61.5 c 128,-1,6
 143 58 143 58 133 57 c 0,7,8
 124 58 124 58 118.5 61.5 c 128,-1,9
 113 65 113 65 111 74.5 c 128,-1,10
 109 84 109 84 112 100 c 128,-1,11
 115 116 115 116 120 142 c 0,12,13
 126 167 126 167 137.5 211.5 c 128,-1,14
 149 256 149 256 162.5 309 c 128,-1,15
 176 362 176 362 190.5 416.5 c 128,-1,16
 205 471 205 471 217 518 c 1,17,-1
 146 525 l 1,18,19
 132 469 132 469 119 415.5 c 128,-1,20
 106 362 106 362 93.5 310.5 c 128,-1,21
 81 259 81 259 70 210 c 128,-1,22
 59 161 59 161 49 115 c 0,23,24
 41 82 41 82 42.5 58.5 c 128,-1,25
 44 35 44 35 53.5 20.5 c 128,-1,26
 63 6 63 6 79 -1 c 128,-1,27
 95 -8 95 -8 116 -8 c 0,0,1
243 804 m 1,28,-1
 169 588 l 1,29,-1
 214 581 l 1,30,-1
 297 793 l 1,31,-1
 243 804 l 1,28,-1
EndSplineSet
EndChar

StartChar: upsilondieresistonos
Encoding: 944 944 456
Width: 551
GlyphClass: 1
Flags: W
LayerCount: 2
Fore
SplineSet
59 178 m 0,0,1
 47 128 47 128 56 92.5 c 128,-1,2
 65 57 65 57 88.5 35 c 128,-1,3
 112 13 112 13 145.5 2.5 c 128,-1,4
 179 -8 179 -8 217 -8 c 0,5,6
 265 -8 265 -8 307 7 c 128,-1,7
 349 22 349 22 384 55.5 c 128,-1,8
 419 89 419 89 445.5 141.5 c 128,-1,9
 472 194 472 194 489 268 c 0,10,11
 494 293 494 293 500 324 c 128,-1,12
 506 355 506 355 511.5 389 c 128,-1,13
 517 423 517 423 520 456 c 128,-1,14
 523 489 523 489 523 518 c 1,15,-1
 457 525 l 1,16,17
 456 490 456 490 453 455.5 c 128,-1,18
 450 421 450 421 445 389 c 128,-1,19
 440 357 440 357 434.5 330 c 128,-1,20
 429 303 429 303 424 282 c 0,21,22
 399 165 399 165 348 112 c 128,-1,23
 297 59 297 59 225 57 c 0,24,25
 200 58 200 58 178 64 c 128,-1,26
 156 70 156 70 142 83.5 c 128,-1,27
 128 97 128 97 122.5 119 c 128,-1,28
 117 141 117 141 123 174 c 0,29,30
 126 186 126 186 131.5 204 c 128,-1,31
 137 222 137 222 143 243 c 128,-1,32
 149 264 149 264 154.5 286.5 c 128,-1,33
 160 309 160 309 165 330 c 0,34,35
 172 359 172 359 176 384 c 128,-1,36
 180 409 180 409 182 431 c 128,-1,37
 184 453 184 453 184 474 c 128,-1,38
 184 495 184 495 183 518 c 1,39,-1
 119 525 l 1,40,41
 120 479 120 479 116.5 433.5 c 128,-1,42
 113 388 113 388 102 337 c 0,43,44
 96 315 96 315 89.5 291.5 c 128,-1,45
 83 268 83 268 77 246.5 c 128,-1,46
 71 225 71 225 66.5 207.5 c 128,-1,47
 62 190 62 190 59 178 c 0,0,1
157 656 m 0,48,49
 151 631 151 631 164 612 c 128,-1,50
 177 593 177 593 203 593 c 0,51,52
 226 593 226 593 243.5 607.5 c 128,-1,53
 261 622 261 622 265 644 c 0,54,55
 271 670 271 670 258.5 687.5 c 128,-1,56
 246 705 246 705 220 705 c 0,57,58
 197 705 197 705 179.5 692 c 128,-1,59
 162 679 162 679 157 656 c 0,48,49
419 656 m 0,60,61
 414 631 414 631 427.5 612 c 128,-1,62
 441 593 441 593 467 593 c 0,63,64
 488 593 488 593 506 607.5 c 128,-1,65
 524 622 524 622 528 644 c 0,66,67
 534 670 534 670 521 687.5 c 128,-1,68
 508 705 508 705 483 705 c 0,69,70
 461 705 461 705 443 692 c 128,-1,71
 425 679 425 679 419 656 c 0,60,61
372 814 m 1,72,-1
 297 598 l 1,73,-1
 343 591 l 1,74,-1
 426 803 l 1,75,-1
 372 814 l 1,72,-1
EndSplineSet
EndChar

StartChar: alpha
Encoding: 945 945 457
Width: 628
GlyphClass: 1
Flags: W
LayerCount: 2
Fore
SplineSet
438 251 m 2,0,1
 425 226 425 226 407.5 192.5 c 128,-1,2
 390 159 390 159 364 129 c 128,-1,3
 338 99 338 99 303.5 78 c 128,-1,4
 269 57 269 57 223 57 c 0,5,6
 189 57 189 57 163 70 c 128,-1,7
 137 83 137 83 121 108 c 128,-1,8
 105 133 105 133 101.5 169 c 128,-1,9
 98 205 98 205 108 252 c 0,10,11
 120 304 120 304 141.5 344 c 128,-1,12
 163 384 163 384 190.5 410.5 c 128,-1,13
 218 437 218 437 248.5 451 c 128,-1,14
 279 465 279 465 309 465 c 256,15,16
 339 465 339 465 358.5 452 c 128,-1,17
 378 439 378 439 390.5 417 c 128,-1,18
 403 395 403 395 409.5 366 c 128,-1,19
 416 337 416 337 418.5 306.5 c 128,-1,20
 421 276 421 276 420.5 246.5 c 128,-1,21
 420 217 420 217 418 191 c 1,22,-1
 471 254 l 1,23,24
 475 300 475 300 471 348.5 c 128,-1,25
 467 397 467 397 450 437 c 128,-1,26
 433 477 433 477 401 502.5 c 128,-1,27
 369 528 369 528 316 528 c 0,28,29
 271 528 271 528 228 508 c 128,-1,30
 185 488 185 488 150 452.5 c 128,-1,31
 115 417 115 417 88.5 367 c 128,-1,32
 62 317 62 317 48 258 c 0,33,34
 35 201 35 201 40 152.5 c 128,-1,35
 45 104 45 104 66 68 c 128,-1,36
 87 32 87 32 122.5 12 c 128,-1,37
 158 -8 158 -8 205 -8 c 0,38,39
 244 -8 244 -8 281 5.5 c 128,-1,40
 318 19 318 19 351.5 44 c 128,-1,41
 385 69 385 69 414 104.5 c 128,-1,42
 443 140 443 140 466 183 c 2,43,-1
 646 520 l 1,44,-1
 579 520 l 1,45,-1
 438 251 l 2,0,1
545 52 m 1,46,-1
 520 65 l 2,47,48
 510 71 510 71 501.5 81 c 128,-1,49
 493 91 493 91 485.5 106.5 c 128,-1,50
 478 122 478 122 472.5 143 c 128,-1,51
 467 164 467 164 465 189 c 1,52,-1
 416 147 l 1,53,54
 414 121 414 121 417.5 99 c 128,-1,55
 421 77 421 77 430 59 c 128,-1,56
 439 41 439 41 451.5 27 c 128,-1,57
 464 13 464 13 480 3 c 2,58,-1
 499 -8 l 1,59,-1
 545 52 l 1,46,-1
EndSplineSet
EndChar

StartChar: beta
Encoding: 946 946 458
Width: 643
GlyphClass: 1
Flags: W
LayerCount: 2
Fore
SplineSet
100 66 m 1,0,1
 118 46 118 46 141 32 c 128,-1,2
 164 18 164 18 188.5 9 c 128,-1,3
 213 0 213 0 239 -4 c 128,-1,4
 265 -8 265 -8 290 -8 c 0,5,6
 339 -8 339 -8 385.5 10 c 128,-1,7
 432 28 432 28 470 58.5 c 128,-1,8
 508 89 508 89 534 129 c 128,-1,9
 560 169 560 169 569 214 c 0,10,11
 580 253 580 253 575.5 289 c 128,-1,12
 571 325 571 325 552 353 c 128,-1,13
 533 381 533 381 501 399 c 128,-1,14
 469 417 469 417 424 422 c 1,15,-1
 429 426 l 1,16,17
 458 441 458 441 482.5 459.5 c 128,-1,18
 507 478 507 478 526 499.5 c 128,-1,19
 545 521 545 521 558.5 545.5 c 128,-1,20
 572 570 572 570 577 596 c 0,21,22
 585 630 585 630 579 661 c 128,-1,23
 573 692 573 692 552.5 716 c 128,-1,24
 532 740 532 740 498.5 754.5 c 128,-1,25
 465 769 465 769 418 768 c 0,26,27
 361 769 361 769 315.5 747.5 c 128,-1,28
 270 726 270 726 235.5 688 c 128,-1,29
 201 650 201 650 177 597 c 128,-1,30
 153 544 153 544 139 482 c 2,31,-1
 -17 -208 l 1,32,-1
 50 -212 l 1,33,34
 67 -133 67 -133 81 -62 c 128,-1,35
 95 9 95 9 106 64 c 2,36,-1
 118 111 l 2,37,38
 127 149 127 149 135.5 185.5 c 128,-1,39
 144 222 144 222 153.5 263 c 128,-1,40
 163 304 163 304 174.5 354 c 128,-1,41
 186 404 186 404 201 469 c 0,42,43
 213 521 213 521 231.5 564.5 c 128,-1,44
 250 608 250 608 276 639.5 c 128,-1,45
 302 671 302 671 335.5 688 c 128,-1,46
 369 705 369 705 410 705 c 0,47,48
 442 705 442 705 463.5 696 c 128,-1,49
 485 687 485 687 497.5 671.5 c 128,-1,50
 510 656 510 656 513 636.5 c 128,-1,51
 516 617 516 617 511 596 c 0,52,53
 505 570 505 570 488 544.5 c 128,-1,54
 471 519 471 519 444 496.5 c 128,-1,55
 417 474 417 474 379.5 457 c 128,-1,56
 342 440 342 440 296 430 c 1,57,-1
 288 377 l 1,58,59
 290 378 290 378 298 379.5 c 128,-1,60
 306 381 306 381 317.5 382 c 128,-1,61
 329 383 329 383 341.5 383.5 c 128,-1,62
 354 384 354 384 365 383 c 0,63,64
 406 384 406 384 437 372.5 c 128,-1,65
 468 361 468 361 487 340 c 128,-1,66
 506 319 506 319 513 290.5 c 128,-1,67
 520 262 520 262 513 230 c 0,68,69
 505 193 505 193 483 161.5 c 128,-1,70
 461 130 461 130 430 106 c 128,-1,71
 399 82 399 82 362.5 67.5 c 128,-1,72
 326 53 326 53 288 52 c 0,73,74
 269 53 269 53 246 57 c 128,-1,75
 223 61 223 61 199.5 70.5 c 128,-1,76
 176 80 176 80 153.5 95 c 128,-1,77
 131 110 131 110 114 133 c 1,78,-1
 100 66 l 1,0,1
EndSplineSet
EndChar

StartChar: gamma
Encoding: 947 947 459
Width: 536
GlyphClass: 1
Flags: W
LayerCount: 2
Fore
SplineSet
147 -212 m 1,0,1
 186 -99 186 -99 215 9.5 c 128,-1,2
 244 118 244 118 251 214.5 c 128,-1,3
 258 311 258 311 236 392.5 c 128,-1,4
 214 474 214 474 150 534 c 1,5,-1
 100 483 l 1,6,7
 137 450 137 450 157 404 c 128,-1,8
 177 358 177 358 182.5 303.5 c 128,-1,9
 188 249 188 249 181.5 188 c 128,-1,10
 175 127 175 127 160.5 61.5 c 128,-1,11
 146 -4 146 -4 126 -71.5 c 128,-1,12
 106 -139 106 -139 83 -204 c 1,13,-1
 147 -212 l 1,0,1
192 -3 m 1,14,15
 265 74 265 74 321 140 c 128,-1,16
 377 206 377 206 421 268 c 128,-1,17
 465 330 465 330 499.5 391 c 128,-1,18
 534 452 534 452 564 517 c 1,19,-1
 492 525 l 1,20,21
 471 469 471 469 439 411.5 c 128,-1,22
 407 354 407 354 368 299 c 128,-1,23
 329 244 329 244 286.5 192.5 c 128,-1,24
 244 141 244 141 202 97 c 1,25,-1
 192 -3 l 1,14,15
EndSplineSet
EndChar

StartChar: delta
Encoding: 948 948 460
Width: 609
GlyphClass: 1
Flags: W
LayerCount: 2
Fore
SplineSet
245 -8 m 0,0,1
 298 -8 298 -8 347.5 11.5 c 128,-1,2
 397 31 397 31 437 65.5 c 128,-1,3
 477 100 477 100 506 147.5 c 128,-1,4
 535 195 535 195 548 250 c 0,5,6
 561 309 561 309 553 353 c 128,-1,7
 545 397 545 397 524 430.5 c 128,-1,8
 503 464 503 464 474.5 488.5 c 128,-1,9
 446 513 446 513 419 532 c 0,10,11
 397 548 397 548 376.5 563.5 c 128,-1,12
 356 579 356 579 340 593.5 c 128,-1,13
 324 608 324 608 316 623.5 c 128,-1,14
 308 639 308 639 312 656 c 0,15,16
 318 678 318 678 340 691 c 128,-1,17
 362 704 362 704 399 704 c 0,18,19
 426 704 426 704 457 696.5 c 128,-1,20
 488 689 488 689 518.5 677.5 c 128,-1,21
 549 666 549 666 575.5 649.5 c 128,-1,22
 602 633 602 633 619 614 c 1,23,-1
 664 666 l 1,24,25
 647 684 647 684 619 702 c 128,-1,26
 591 720 591 720 556.5 735 c 128,-1,27
 522 750 522 750 483 759 c 128,-1,28
 444 768 444 768 405 767 c 0,29,30
 339 767 339 767 296 740 c 128,-1,31
 253 713 253 713 242 665 c 0,32,33
 235 635 235 635 244.5 610.5 c 128,-1,34
 254 586 254 586 273.5 565.5 c 128,-1,35
 293 545 293 545 318 528 c 128,-1,36
 343 511 343 511 366 494 c 0,37,38
 393 475 393 475 419 452.5 c 128,-1,39
 445 430 445 430 464 401.5 c 128,-1,40
 483 373 483 373 490 336.5 c 128,-1,41
 497 300 497 300 487 253 c 0,42,43
 477 211 477 211 455 175 c 128,-1,44
 433 139 433 139 402 113.5 c 128,-1,45
 371 88 371 88 333 73 c 128,-1,46
 295 58 295 58 255 58 c 0,47,48
 216 58 216 58 185 72 c 128,-1,49
 154 86 154 86 134.5 111.5 c 128,-1,50
 115 137 115 137 108 171.5 c 128,-1,51
 101 206 101 206 111 248 c 0,52,53
 121 291 121 291 145 328 c 128,-1,54
 169 365 169 365 201.5 392 c 128,-1,55
 234 419 234 419 272.5 434 c 128,-1,56
 311 449 311 449 350 449 c 0,57,58
 385 450 385 450 415.5 438.5 c 128,-1,59
 446 427 446 427 468 406 c 1,60,-1
 443 474 l 1,61,62
 425 488 425 488 397.5 495.5 c 128,-1,63
 370 503 370 503 341 504 c 0,64,65
 292 505 292 505 245.5 486 c 128,-1,66
 199 467 199 467 160 433.5 c 128,-1,67
 121 400 121 400 92.5 354 c 128,-1,68
 64 308 64 308 52 253 c 0,69,70
 40 199 40 199 48 151.5 c 128,-1,71
 56 104 56 104 81.5 68.5 c 128,-1,72
 107 33 107 33 148.5 12.5 c 128,-1,73
 190 -8 190 -8 245 -8 c 0,0,1
EndSplineSet
EndChar

StartChar: epsilon
Encoding: 949 949 461
Width: 468
GlyphClass: 1
Flags: W
LayerCount: 2
Fore
SplineSet
370 77 m 1,0,1
 331 67 331 67 295.5 61.5 c 128,-1,2
 260 56 260 56 226 56 c 0,3,4
 157 56 157 56 123 80 c 128,-1,5
 89 104 89 104 98 148 c 0,6,7
 104 172 104 172 121 189 c 128,-1,8
 138 206 138 206 162.5 217 c 128,-1,9
 187 228 187 228 217.5 232.5 c 128,-1,10
 248 237 248 237 281 237 c 2,11,-1
 326 237 l 1,12,-1
 340 301 l 1,13,-1
 286 301 l 2,14,15
 258 301 258 301 235 307 c 128,-1,16
 212 313 212 313 196.5 323.5 c 128,-1,17
 181 334 181 334 174.5 349 c 128,-1,18
 168 364 168 364 172 382 c 0,19,20
 176 398 176 398 186.5 412.5 c 128,-1,21
 197 427 197 427 214.5 438.5 c 128,-1,22
 232 450 232 450 258 457 c 128,-1,23
 284 464 284 464 319 464 c 0,24,25
 336 464 336 464 354 462.5 c 128,-1,26
 372 461 372 461 388.5 458 c 128,-1,27
 405 455 405 455 419.5 451.5 c 128,-1,28
 434 448 434 448 443 442 c 1,29,-1
 475 506 l 1,30,31
 447 520 447 520 408.5 524 c 128,-1,32
 370 528 370 528 335 528 c 0,33,34
 285 528 285 528 246.5 517.5 c 128,-1,35
 208 507 208 507 180 489 c 128,-1,36
 152 471 152 471 135 447.5 c 128,-1,37
 118 424 118 424 112 397 c 0,38,39
 107 376 107 376 110 356.5 c 128,-1,40
 113 337 113 337 121.5 320.5 c 128,-1,41
 130 304 130 304 143 292.5 c 128,-1,42
 156 281 156 281 171 276 c 1,43,-1
 168 274 l 1,44,45
 145 267 145 267 123.5 255 c 128,-1,46
 102 243 102 243 83.5 226 c 128,-1,47
 65 209 65 209 51.5 187.5 c 128,-1,48
 38 166 38 166 33 141 c 0,49,50
 25 107 25 107 35 79.5 c 128,-1,51
 45 52 45 52 70 32.5 c 128,-1,52
 95 13 95 13 133 2.5 c 128,-1,53
 171 -8 171 -8 217 -8 c 0,54,55
 239 -8 239 -8 260.5 -6.5 c 128,-1,56
 282 -5 282 -5 302.5 -2 c 128,-1,57
 323 1 323 1 340 4 c 128,-1,58
 357 7 357 7 369 10 c 1,59,-1
 370 77 l 1,0,1
EndSplineSet
EndChar

StartChar: zeta
Encoding: 950 950 462
Width: 489
GlyphClass: 1
Flags: W
LayerCount: 2
Fore
SplineSet
237 -168 m 0,0,1
 270 -168 270 -168 301 -158 c 128,-1,2
 332 -148 332 -148 357 -131 c 128,-1,3
 382 -114 382 -114 399.5 -91 c 128,-1,4
 417 -68 417 -68 423 -41 c 0,5,6
 429 -19 429 -19 425 0.5 c 128,-1,7
 421 20 421 20 408.5 34 c 128,-1,8
 396 48 396 48 376 55.5 c 128,-1,9
 356 63 356 63 330 62 c 0,10,11
 322 63 322 63 309 62 c 128,-1,12
 296 61 296 61 281.5 60 c 128,-1,13
 267 59 267 59 251 57.5 c 128,-1,14
 235 56 235 56 219 56 c 0,15,16
 197 56 197 56 174.5 60.5 c 128,-1,17
 152 65 152 65 136 78 c 128,-1,18
 120 91 120 91 114 117 c 128,-1,19
 108 143 108 143 118 187 c 0,20,21
 127 227 127 227 148 270.5 c 128,-1,22
 169 314 169 314 199 358 c 128,-1,23
 229 402 229 402 267 446.5 c 128,-1,24
 305 491 305 491 348 532 c 128,-1,25
 391 573 391 573 438 609.5 c 128,-1,26
 485 646 485 646 533 676 c 1,27,-1
 542 725 l 1,28,-1
 374 725 l 2,29,30
 359 725 359 725 348 726.5 c 128,-1,31
 337 728 337 728 330.5 731.5 c 128,-1,32
 324 735 324 735 321.5 741 c 128,-1,33
 319 747 319 747 320 755 c 0,34,35
 323 761 323 761 328.5 772 c 128,-1,36
 334 783 334 783 341 790 c 1,37,-1
 288 817 l 1,38,39
 273 801 273 801 266.5 787 c 128,-1,40
 260 773 260 773 256 759 c 0,41,42
 252 739 252 739 255.5 722 c 128,-1,43
 259 705 259 705 272 692.5 c 128,-1,44
 285 680 285 680 306 673 c 128,-1,45
 327 666 327 666 357 665 c 2,46,-1
 459 665 l 1,47,-1
 450 694 l 1,48,49
 398 662 398 662 336 608 c 128,-1,50
 274 554 274 554 216.5 486.5 c 128,-1,51
 159 419 159 419 113.5 342 c 128,-1,52
 68 265 68 265 50 186 c 0,53,54
 35 122 35 122 45 84 c 128,-1,55
 55 46 55 46 79 25.5 c 128,-1,56
 103 5 103 5 136.5 -1.5 c 128,-1,57
 170 -8 170 -8 202 -8 c 0,58,59
 221 -8 221 -8 237 -7 c 128,-1,60
 253 -6 253 -6 266.5 -5 c 128,-1,61
 280 -4 280 -4 291.5 -2.5 c 128,-1,62
 303 -1 303 -1 313 -1 c 0,63,64
 341 -1 341 -1 351 -14 c 128,-1,65
 361 -27 361 -27 359 -40 c 0,66,67
 356 -53 356 -53 345 -64.5 c 128,-1,68
 334 -76 334 -76 317.5 -84.5 c 128,-1,69
 301 -93 301 -93 279.5 -98 c 128,-1,70
 258 -103 258 -103 235 -103 c 0,71,72
 217 -103 217 -103 195 -100 c 128,-1,73
 173 -97 173 -97 156 -91 c 1,74,-1
 145 -157 l 1,75,76
 170 -162 170 -162 194.5 -165.5 c 128,-1,77
 219 -169 219 -169 237 -168 c 0,0,1
EndSplineSet
EndChar

StartChar: eta
Encoding: 951 951 463
Width: 554
GlyphClass: 1
Flags: W
LayerCount: 2
Fore
SplineSet
76 -2 m 1,0,1
 107 93 107 93 132 176.5 c 128,-1,2
 157 260 157 260 175 339 c 0,3,4
 183 373 183 373 186 401.5 c 128,-1,5
 189 430 189 430 184 453 c 128,-1,6
 179 476 179 476 166 494.5 c 128,-1,7
 153 513 153 513 130 528 c 1,8,-1
 83 470 l 1,9,10
 97 463 97 463 105 453 c 128,-1,11
 113 443 113 443 116 425.5 c 128,-1,12
 119 408 119 408 115.5 380 c 128,-1,13
 112 352 112 352 102 308 c 0,14,15
 86 242 86 242 62 162 c 128,-1,16
 38 82 38 82 10 2 c 1,17,-1
 76 -2 l 1,0,1
329 -209 m 1,18,19
 348 -169 348 -169 370.5 -112 c 128,-1,20
 393 -55 393 -55 415 8.5 c 128,-1,21
 437 72 437 72 456 136 c 128,-1,22
 475 200 475 200 487 254 c 0,23,24
 520 397 520 397 497.5 462.5 c 128,-1,25
 475 528 475 528 394 528 c 0,26,27
 359 528 359 528 323.5 515 c 128,-1,28
 288 502 288 502 257 479.5 c 128,-1,29
 226 457 226 457 200.5 427.5 c 128,-1,30
 175 398 175 398 160 365 c 1,31,-1
 140 209 l 1,32,33
 152 256 152 256 175 300.5 c 128,-1,34
 198 345 198 345 227.5 380.5 c 128,-1,35
 257 416 257 416 292.5 438 c 128,-1,36
 328 460 328 460 365 460 c 0,37,38
 419 460 419 460 432 407.5 c 128,-1,39
 445 355 445 355 418 237 c 0,40,41
 409 196 409 196 394.5 146 c 128,-1,42
 380 96 380 96 360.5 39.5 c 128,-1,43
 341 -17 341 -17 316.5 -78.5 c 128,-1,44
 292 -140 292 -140 264 -203 c 1,45,-1
 329 -209 l 1,18,19
EndSplineSet
EndChar

StartChar: theta
Encoding: 952 952 464
Width: 635
GlyphClass: 1
Flags: W
LayerCount: 2
Fore
SplineSet
262 -8 m 256,0,1
 316 -8 316 -8 367 20.5 c 128,-1,2
 418 49 418 49 462 100 c 128,-1,3
 506 151 506 151 539.5 221 c 128,-1,4
 573 291 573 291 592 376 c 0,5,6
 612 464 612 464 610 536.5 c 128,-1,7
 608 609 608 609 587 660.5 c 128,-1,8
 566 712 566 712 526.5 740.5 c 128,-1,9
 487 769 487 769 431 768 c 0,10,11
 379 769 379 769 327.5 741 c 128,-1,12
 276 713 276 713 232 663 c 128,-1,13
 188 613 188 613 153 543 c 128,-1,14
 118 473 118 473 99 387 c 0,15,16
 78 296 78 296 80.5 223 c 128,-1,17
 83 150 83 150 105.5 98.5 c 128,-1,18
 128 47 128 47 168 19.5 c 128,-1,19
 208 -8 208 -8 262 -8 c 256,0,1
260 54 m 0,20,21
 220 55 220 55 193.5 80.5 c 128,-1,22
 167 106 167 106 154.5 149 c 128,-1,23
 142 192 142 192 142.5 248.5 c 128,-1,24
 143 305 143 305 158 367 c 0,25,26
 176 442 176 442 206.5 504 c 128,-1,27
 237 566 237 566 274.5 610 c 128,-1,28
 312 654 312 654 352 678.5 c 128,-1,29
 392 703 392 703 430 703 c 0,30,31
 472 703 472 703 498.5 679 c 128,-1,32
 525 655 525 655 537.5 613 c 128,-1,33
 550 571 550 571 548.5 514.5 c 128,-1,34
 547 458 547 458 532 393 c 0,35,36
 515 320 515 320 485.5 258 c 128,-1,37
 456 196 456 196 419 151 c 128,-1,38
 382 106 382 106 341 80.5 c 128,-1,39
 300 55 300 55 260 54 c 0,20,21
548 356 m 1,40,-1
 561 407 l 1,41,-1
 143 407 l 1,42,-1
 131 356 l 1,43,-1
 548 356 l 1,40,-1
EndSplineSet
EndChar

StartChar: iota
Encoding: 953 953 465
Width: 283
GlyphClass: 1
Flags: W
LayerCount: 2
Fore
SplineSet
116 -8 m 0,0,1
 125 -8 125 -8 142 -6.5 c 128,-1,2
 159 -5 159 -5 177 2 c 1,3,-1
 172 68 l 1,4,5
 161 65 161 65 152 61.5 c 128,-1,6
 143 58 143 58 133 57 c 0,7,8
 124 58 124 58 118.5 61.5 c 128,-1,9
 113 65 113 65 111 74.5 c 128,-1,10
 109 84 109 84 112 100 c 128,-1,11
 115 116 115 116 120 142 c 0,12,13
 126 167 126 167 137.5 211.5 c 128,-1,14
 149 256 149 256 162.5 309 c 128,-1,15
 176 362 176 362 190.5 416.5 c 128,-1,16
 205 471 205 471 217 518 c 1,17,-1
 146 525 l 1,18,19
 132 469 132 469 119 415.5 c 128,-1,20
 106 362 106 362 93.5 310.5 c 128,-1,21
 81 259 81 259 70 210 c 128,-1,22
 59 161 59 161 49 115 c 0,23,24
 41 82 41 82 42.5 58.5 c 128,-1,25
 44 35 44 35 53.5 20.5 c 128,-1,26
 63 6 63 6 79 -1 c 128,-1,27
 95 -8 95 -8 116 -8 c 0,0,1
EndSplineSet
EndChar

StartChar: kappa
Encoding: 954 954 466
Width: 563
GlyphClass: 1
Flags: W
LayerCount: 2
Fore
SplineSet
79 -3 m 1,0,1
 126 93 126 93 188 174 c 128,-1,2
 250 255 250 255 316 315.5 c 128,-1,3
 382 376 382 376 446 414 c 128,-1,4
 510 452 510 452 560 461 c 1,5,-1
 574 528 l 1,6,7
 532 522 532 522 475.5 497.5 c 128,-1,8
 419 473 419 473 357 427.5 c 128,-1,9
 295 382 295 382 232 314.5 c 128,-1,10
 169 247 169 247 115 154 c 1,11,-1
 124 152 l 1,12,13
 146 212 146 212 160 259.5 c 128,-1,14
 174 307 174 307 181 345 c 0,15,16
 192 388 192 388 193 418.5 c 128,-1,17
 194 449 194 449 188 470.5 c 128,-1,18
 182 492 182 492 170 506 c 128,-1,19
 158 520 158 520 141 528 c 1,20,-1
 97 472 l 1,21,22
 113 464 113 464 121.5 450.5 c 128,-1,23
 130 437 130 437 132 417.5 c 128,-1,24
 134 398 134 398 130 372 c 128,-1,25
 126 346 126 346 118 313 c 0,26,27
 102 238 102 238 73.5 159 c 128,-1,28
 45 80 45 80 14 1 c 1,29,-1
 79 -3 l 1,0,1
461 47 m 1,30,31
 426 68 426 68 399.5 99.5 c 128,-1,32
 373 131 373 131 355.5 169.5 c 128,-1,33
 338 208 338 208 328 249.5 c 128,-1,34
 318 291 318 291 317 330 c 1,35,-1
 262 291 l 1,36,37
 262 250 262 250 274.5 205 c 128,-1,38
 287 160 287 160 307.5 118.5 c 128,-1,39
 328 77 328 77 356 43 c 128,-1,40
 384 9 384 9 417 -8 c 1,41,-1
 461 47 l 1,30,31
EndSplineSet
EndChar

